<?xml version="1.0" standalone="no"?>
<!DOCTYPE svg PUBLIC "-//W3C//DTD SVG 1.1//EN" "http://www.w3.org/Graphics/SVG/1.1/DTD/svg11.dtd" >
<svg xmlns="http://www.w3.org/2000/svg" xmlns:xlink="http://www.w3.org/1999/xlink" version="1.1">
<metadata>
Created by FontForge 20190801 at Fri Jan  1 00:00:00 1904
 By www-data
</metadata>
<defs>
<font id="unicode_impact" horiz-adv-x="0" >
  <font-face 
    font-family="unicode_impact"
    font-weight="400"
    font-stretch="normal"
    units-per-em="2048"
    panose-1="2 2 5 0 0 0 0 0 0 0"
    ascent="1638"
    descent="-410"
    x-height="1327"
    cap-height="1620"
    bbox="-852 -463 2062 2294"
    underline-thickness="102"
    underline-position="-256"
    unicode-range="U+0020-F02A"
  />
<missing-glyph horiz-adv-x="1536" 
d="M256 0v1280h1024v-1280h-1024zM1247 33v1214h-958v-1214h958z" />
    <glyph glyph-name=".notdef" horiz-adv-x="1536" 
d="M256 0v1280h1024v-1280h-1024zM1247 33v1214h-958v-1214h958z" />
    <glyph glyph-name=".null" 
 />
    <glyph glyph-name="nonmarkingreturn" 
 />
    <glyph glyph-name="space" unicode=" " horiz-adv-x="360" 
 />
    <glyph glyph-name="space" unicode="&#x2031;" horiz-adv-x="360" 
 />
    <glyph glyph-name="space" unicode="&#x2025;" horiz-adv-x="360" 
 />
    <glyph glyph-name="space" unicode="&#x2024;" horiz-adv-x="360" 
 />
    <glyph glyph-name="space" unicode="&#x2023;" horiz-adv-x="360" 
 />
    <glyph glyph-name="space" unicode="&#x201f;" horiz-adv-x="360" 
 />
    <glyph glyph-name="space" unicode="&#x201b;" horiz-adv-x="360" 
 />
    <glyph glyph-name="space" unicode="&#x2017;" horiz-adv-x="360" 
 />
    <glyph glyph-name="space" unicode="&#x2016;" horiz-adv-x="360" 
 />
    <glyph glyph-name="space" unicode="&#x2015;" horiz-adv-x="360" 
 />
    <glyph glyph-name="exclam" unicode="!" horiz-adv-x="553" 
d="M516 1620l-65 -1221h-314l-65 1221h444zM483 324v-324h-377v324h377z" />
    <glyph glyph-name="quotedbl" unicode="&#x22;" horiz-adv-x="758" 
d="M88 1098l-51 272v250h305v-250l-45 -272h-209zM469 1098l-53 272v250h305v-250l-47 -272h-205z" />
    <glyph glyph-name="numbersign" unicode="#" horiz-adv-x="1282" 
d="M37 1061h307l84 383h190l-83 -383h354l82 383h188l-82 -383h170v-191h-207l-61 -301h268v-190h-305l-82 -379h-190l84 379h-361l-78 -379h-188l80 379h-170v190h209l63 301h-272v191zM498 870l-64 -301h357l61 301h-354z" />
    <glyph glyph-name="dollar" unicode="$" horiz-adv-x="1120" 
d="M1020 1147h-406v67q0 108 -14 140q-12 32 -59 32q-37 0 -56 -26q-18 -31 -18 -86q0 -97 37 -133q31 -35 219 -150q151 -90 211 -141q51 -46 94 -139q39 -90 39 -228q0 -216 -106 -338q-106 -124 -312 -151v-154h-186v158q-160 15 -283 125q-121 109 -121 379v78h404v-99
q0 -166 14 -202q12 -39 60 -39q41 0 61 26q18 28 18 82q0 136 -18 195q-17 56 -129 127q-187 119 -252 172t-115 151q-49 104 -49 226q0 181 103 282q101 106 307 127v129h186v-129q183 -20 281 -125q94 -100 94 -280q0 -6 -4 -76z" />
    <glyph glyph-name="percent" unicode="%" horiz-adv-x="1419" 
d="M1104 1651l-635 -1682h-154l635 1682h154zM633 1343v-278q0 -112 -21 -164q-22 -54 -88 -94q-68 -41 -180 -41q-129 0 -194 38.5t-91 92.5q-22 55 -22 156v290q0 120 24 179q25 58 95 92q72 37 172 37q113 0 184 -39q72 -41 96 -96q25 -57 25 -173zM377 1413q0 65 -6 80
q-8 14 -37 14q-27 0 -35 -14q-8 -13 -8 -80v-407q0 -71 8 -84q5 -15 37 -15q22 0 33 17q8 13 8 75v414zM1382 561v-278q0 -108 -18 -164q-20 -53 -88 -94q-71 -41 -180 -41q-130 0 -195 39q-69 40 -90 92q-25 58 -25 153v293q0 115 25 176q24 58 94 94q70 37 174 37
q116 0 187 -41q69 -38 94 -96q12 -30 17 -71.5t5 -98.5zM1126 631q0 63 -6 80q-6 14 -35 14q-26 0 -34.5 -14t-8.5 -80v-408q0 -70 9 -84q6 -12 34 -12q27 0 35 14q6 16 6 76v414z" />
    <glyph glyph-name="percent" unicode="&#x202f;" horiz-adv-x="1419" 
d="M1104 1651l-635 -1682h-154l635 1682h154zM633 1343v-278q0 -112 -21 -164q-22 -54 -88 -94q-68 -41 -180 -41q-129 0 -194 38.5t-91 92.5q-22 55 -22 156v290q0 120 24 179q25 58 95 92q72 37 172 37q113 0 184 -39q72 -41 96 -96q25 -57 25 -173zM377 1413q0 65 -6 80
q-8 14 -37 14q-27 0 -35 -14q-8 -13 -8 -80v-407q0 -71 8 -84q5 -15 37 -15q22 0 33 17q8 13 8 75v414zM1382 561v-278q0 -108 -18 -164q-20 -53 -88 -94q-71 -41 -180 -41q-130 0 -195 39q-69 40 -90 92q-25 58 -25 153v293q0 115 25 176q24 58 94 94q70 37 174 37
q116 0 187 -41q69 -38 94 -96q12 -30 17 -71.5t5 -98.5zM1126 631q0 63 -6 80q-6 14 -35 14q-26 0 -34.5 -14t-8.5 -80v-408q0 -70 9 -84q6 -12 34 -12q27 0 35 14q6 16 6 76v414z" />
    <glyph glyph-name="percent" unicode="&#x202e;" horiz-adv-x="1419" 
d="M1104 1651l-635 -1682h-154l635 1682h154zM633 1343v-278q0 -112 -21 -164q-22 -54 -88 -94q-68 -41 -180 -41q-129 0 -194 38.5t-91 92.5q-22 55 -22 156v290q0 120 24 179q25 58 95 92q72 37 172 37q113 0 184 -39q72 -41 96 -96q25 -57 25 -173zM377 1413q0 65 -6 80
q-8 14 -37 14q-27 0 -35 -14q-8 -13 -8 -80v-407q0 -71 8 -84q5 -15 37 -15q22 0 33 17q8 13 8 75v414zM1382 561v-278q0 -108 -18 -164q-20 -53 -88 -94q-71 -41 -180 -41q-130 0 -195 39q-69 40 -90 92q-25 58 -25 153v293q0 115 25 176q24 58 94 94q70 37 174 37
q116 0 187 -41q69 -38 94 -96q12 -30 17 -71.5t5 -98.5zM1126 631q0 63 -6 80q-6 14 -35 14q-26 0 -34.5 -14t-8.5 -80v-408q0 -70 9 -84q6 -12 34 -12q27 0 35 14q6 16 6 76v414z" />
    <glyph glyph-name="percent" unicode="&#x202d;" horiz-adv-x="1419" 
d="M1104 1651l-635 -1682h-154l635 1682h154zM633 1343v-278q0 -112 -21 -164q-22 -54 -88 -94q-68 -41 -180 -41q-129 0 -194 38.5t-91 92.5q-22 55 -22 156v290q0 120 24 179q25 58 95 92q72 37 172 37q113 0 184 -39q72 -41 96 -96q25 -57 25 -173zM377 1413q0 65 -6 80
q-8 14 -37 14q-27 0 -35 -14q-8 -13 -8 -80v-407q0 -71 8 -84q5 -15 37 -15q22 0 33 17q8 13 8 75v414zM1382 561v-278q0 -108 -18 -164q-20 -53 -88 -94q-71 -41 -180 -41q-130 0 -195 39q-69 40 -90 92q-25 58 -25 153v293q0 115 25 176q24 58 94 94q70 37 174 37
q116 0 187 -41q69 -38 94 -96q12 -30 17 -71.5t5 -98.5zM1126 631q0 63 -6 80q-6 14 -35 14q-26 0 -34.5 -14t-8.5 -80v-408q0 -70 9 -84q6 -12 34 -12q27 0 35 14q6 16 6 76v414z" />
    <glyph glyph-name="percent" unicode="&#x202c;" horiz-adv-x="1419" 
d="M1104 1651l-635 -1682h-154l635 1682h154zM633 1343v-278q0 -112 -21 -164q-22 -54 -88 -94q-68 -41 -180 -41q-129 0 -194 38.5t-91 92.5q-22 55 -22 156v290q0 120 24 179q25 58 95 92q72 37 172 37q113 0 184 -39q72 -41 96 -96q25 -57 25 -173zM377 1413q0 65 -6 80
q-8 14 -37 14q-27 0 -35 -14q-8 -13 -8 -80v-407q0 -71 8 -84q5 -15 37 -15q22 0 33 17q8 13 8 75v414zM1382 561v-278q0 -108 -18 -164q-20 -53 -88 -94q-71 -41 -180 -41q-130 0 -195 39q-69 40 -90 92q-25 58 -25 153v293q0 115 25 176q24 58 94 94q70 37 174 37
q116 0 187 -41q69 -38 94 -96q12 -30 17 -71.5t5 -98.5zM1126 631q0 63 -6 80q-6 14 -35 14q-26 0 -34.5 -14t-8.5 -80v-408q0 -70 9 -84q6 -12 34 -12q27 0 35 14q6 16 6 76v414z" />
    <glyph glyph-name="percent" unicode="&#x202b;" horiz-adv-x="1419" 
d="M1104 1651l-635 -1682h-154l635 1682h154zM633 1343v-278q0 -112 -21 -164q-22 -54 -88 -94q-68 -41 -180 -41q-129 0 -194 38.5t-91 92.5q-22 55 -22 156v290q0 120 24 179q25 58 95 92q72 37 172 37q113 0 184 -39q72 -41 96 -96q25 -57 25 -173zM377 1413q0 65 -6 80
q-8 14 -37 14q-27 0 -35 -14q-8 -13 -8 -80v-407q0 -71 8 -84q5 -15 37 -15q22 0 33 17q8 13 8 75v414zM1382 561v-278q0 -108 -18 -164q-20 -53 -88 -94q-71 -41 -180 -41q-130 0 -195 39q-69 40 -90 92q-25 58 -25 153v293q0 115 25 176q24 58 94 94q70 37 174 37
q116 0 187 -41q69 -38 94 -96q12 -30 17 -71.5t5 -98.5zM1126 631q0 63 -6 80q-6 14 -35 14q-26 0 -34.5 -14t-8.5 -80v-408q0 -70 9 -84q6 -12 34 -12q27 0 35 14q6 16 6 76v414z" />
    <glyph glyph-name="percent" unicode="&#x202a;" horiz-adv-x="1419" 
d="M1104 1651l-635 -1682h-154l635 1682h154zM633 1343v-278q0 -112 -21 -164q-22 -54 -88 -94q-68 -41 -180 -41q-129 0 -194 38.5t-91 92.5q-22 55 -22 156v290q0 120 24 179q25 58 95 92q72 37 172 37q113 0 184 -39q72 -41 96 -96q25 -57 25 -173zM377 1413q0 65 -6 80
q-8 14 -37 14q-27 0 -35 -14q-8 -13 -8 -80v-407q0 -71 8 -84q5 -15 37 -15q22 0 33 17q8 13 8 75v414zM1382 561v-278q0 -108 -18 -164q-20 -53 -88 -94q-71 -41 -180 -41q-130 0 -195 39q-69 40 -90 92q-25 58 -25 153v293q0 115 25 176q24 58 94 94q70 37 174 37
q116 0 187 -41q69 -38 94 -96q12 -30 17 -71.5t5 -98.5zM1126 631q0 63 -6 80q-6 14 -35 14q-26 0 -34.5 -14t-8.5 -80v-408q0 -70 9 -84q6 -12 34 -12q27 0 35 14q6 16 6 76v414z" />
    <glyph glyph-name="percent" unicode="&#x2029;" horiz-adv-x="1419" 
d="M1104 1651l-635 -1682h-154l635 1682h154zM633 1343v-278q0 -112 -21 -164q-22 -54 -88 -94q-68 -41 -180 -41q-129 0 -194 38.5t-91 92.5q-22 55 -22 156v290q0 120 24 179q25 58 95 92q72 37 172 37q113 0 184 -39q72 -41 96 -96q25 -57 25 -173zM377 1413q0 65 -6 80
q-8 14 -37 14q-27 0 -35 -14q-8 -13 -8 -80v-407q0 -71 8 -84q5 -15 37 -15q22 0 33 17q8 13 8 75v414zM1382 561v-278q0 -108 -18 -164q-20 -53 -88 -94q-71 -41 -180 -41q-130 0 -195 39q-69 40 -90 92q-25 58 -25 153v293q0 115 25 176q24 58 94 94q70 37 174 37
q116 0 187 -41q69 -38 94 -96q12 -30 17 -71.5t5 -98.5zM1126 631q0 63 -6 80q-6 14 -35 14q-26 0 -34.5 -14t-8.5 -80v-408q0 -70 9 -84q6 -12 34 -12q27 0 35 14q6 16 6 76v414z" />
    <glyph glyph-name="percent" unicode="&#x2028;" horiz-adv-x="1419" 
d="M1104 1651l-635 -1682h-154l635 1682h154zM633 1343v-278q0 -112 -21 -164q-22 -54 -88 -94q-68 -41 -180 -41q-129 0 -194 38.5t-91 92.5q-22 55 -22 156v290q0 120 24 179q25 58 95 92q72 37 172 37q113 0 184 -39q72 -41 96 -96q25 -57 25 -173zM377 1413q0 65 -6 80
q-8 14 -37 14q-27 0 -35 -14q-8 -13 -8 -80v-407q0 -71 8 -84q5 -15 37 -15q22 0 33 17q8 13 8 75v414zM1382 561v-278q0 -108 -18 -164q-20 -53 -88 -94q-71 -41 -180 -41q-130 0 -195 39q-69 40 -90 92q-25 58 -25 153v293q0 115 25 176q24 58 94 94q70 37 174 37
q116 0 187 -41q69 -38 94 -96q12 -30 17 -71.5t5 -98.5zM1126 631q0 63 -6 80q-6 14 -35 14q-26 0 -34.5 -14t-8.5 -80v-408q0 -70 9 -84q6 -12 34 -12q27 0 35 14q6 16 6 76v414z" />
    <glyph glyph-name="percent" unicode="&#x2027;" horiz-adv-x="1419" 
d="M1104 1651l-635 -1682h-154l635 1682h154zM633 1343v-278q0 -112 -21 -164q-22 -54 -88 -94q-68 -41 -180 -41q-129 0 -194 38.5t-91 92.5q-22 55 -22 156v290q0 120 24 179q25 58 95 92q72 37 172 37q113 0 184 -39q72 -41 96 -96q25 -57 25 -173zM377 1413q0 65 -6 80
q-8 14 -37 14q-27 0 -35 -14q-8 -13 -8 -80v-407q0 -71 8 -84q5 -15 37 -15q22 0 33 17q8 13 8 75v414zM1382 561v-278q0 -108 -18 -164q-20 -53 -88 -94q-71 -41 -180 -41q-130 0 -195 39q-69 40 -90 92q-25 58 -25 153v293q0 115 25 176q24 58 94 94q70 37 174 37
q116 0 187 -41q69 -38 94 -96q12 -30 17 -71.5t5 -98.5zM1126 631q0 63 -6 80q-6 14 -35 14q-26 0 -34.5 -14t-8.5 -80v-408q0 -70 9 -84q6 -12 34 -12q27 0 35 14q6 16 6 76v414z" />
    <glyph glyph-name="ampersand" unicode="&#x26;" horiz-adv-x="1180" 
d="M1153 614v-272l-115 -72l142 -270h-373l-49 90q-186 -125 -357 -125q-175 0 -270 119q-94 116 -94 281q0 133 55 206q56 79 168 123q-160 115 -160 312q0 168 113 272q114 102 315 102q57 0 111 -11t96.5 -33.5t75.5 -55.5q104 -101 104 -258q0 -164 -127 -291l144 -258z
M528 899q70 88 70 170q0 37 -20 64q-23 28 -58 28t-49 -20q-16 -24 -16 -68q0 -95 73 -174zM621 272l-132 220q-75 -68 -75 -148q0 -59 24 -86q24 -29 70 -29q47 0 113 43z" />
    <glyph glyph-name="quotesingle" unicode="'" horiz-adv-x="379" 
d="M88 1098l-51 272v250h305v-250l-45 -272h-209z" />
    <glyph glyph-name="parenleft" unicode="(" horiz-adv-x="641" 
d="M604 1620v-211q-87 0 -106 -8q-28 -6 -37 -33q-12 -24 -12 -143v-830q0 -109 10 -139q9 -28 35 -37q19 -8 110 -8v-211h-127q-179 0 -258 33q-42 17 -68 40t-40 56q-27 58 -27 266v828q0 207 27 268q23 63 110 96q79 33 256 33h127z" />
    <glyph glyph-name="parenright" unicode=")" horiz-adv-x="641" 
d="M37 1620h127q177 0 256 -33q87 -33 110 -96q27 -61 27 -268v-828q0 -208 -27 -266q-23 -62 -108 -96q-79 -33 -258 -33h-127v211q90 0 113 8q23 10 32 37q11 33 11 139v830q0 117 -13 143q-12 27 -37 33q-21 8 -106 8v211z" />
    <glyph glyph-name="asterisk" unicode="*" horiz-adv-x="575" 
d="M352 1620v-162l148 51l45 -118l-148 -62l92 -133l-100 -74l-100 133l-99 -133l-104 74l92 137l-147 58l43 118l153 -51v162h125z" />
    <glyph glyph-name="plus" unicode="+" horiz-adv-x="1092" 
d="M63 930h361v360h244v-360h360v-244h-360v-358h-244v358h-361v244z" />
    <glyph glyph-name="comma" unicode="," horiz-adv-x="344" 
d="M307 317v-145q0 -118 -26 -186q-28 -72 -93 -125q-68 -53 -151 -68v117q58 33 67 90h-67v317h270z" />
    <glyph glyph-name="hyphen" unicode="-" horiz-adv-x="602" 
d="M567 803v-279h-530v279h530z" />
    <glyph glyph-name="period" unicode="." horiz-adv-x="379" 
d="M342 330v-330h-305v330h305z" />
    <glyph glyph-name="slash" unicode="/" horiz-adv-x="811" 
d="M799 1651l-482 -1682h-305l484 1682h303z" />
    <glyph glyph-name="zero" unicode="0" horiz-adv-x="1098" 
d="M1024 1071v-541q0 -189 -20 -268q-21 -88 -82 -156q-62 -71 -152 -106q-91 -31 -199 -31q-146 0 -241 33q-96 35 -154 104q-53 69 -80 150q-24 79 -24 250v565q0 227 39 334q39 110 153 178q115 68 277 68q129 0 237 -47q102 -44 158 -113q49 -64 70 -152q18 -82 18 -268
zM621 1206q0 126 -13 162q-11 33 -57 33q-44 0 -59 -35q-17 -36 -17 -160v-788q0 -145 14 -170q16 -31 60 -31q45 0 57 35q15 33 15 154v800z" />
    <glyph glyph-name="one" unicode="1" horiz-adv-x="780" 
d="M694 1620v-1620h-403v868q0 193 -8 226q-10 38 -50 59q-39 18 -182 18h-39v189q96 21 178.5 57t147.5 85.5t119 117.5h237z" />
    <glyph glyph-name="two" unicode="2" horiz-adv-x="1028" 
d="M942 276v-276h-887v231q221 364 327.5 546t141.5 253q74 156 74 240q0 64 -23 98q-20 33 -67 33t-70 -35q-22 -39 -22 -143v-156h-361v59q0 145 15 215q12 78 67 154q56 78 144 117t211 39q120 0 210 -29t154 -90q123 -120 123 -303q0 -140 -70 -295q-25 -54 -78.5 -146
t-123.5 -200.5t-207 -311.5h442z" />
    <glyph glyph-name="three" unicode="3" horiz-adv-x="1085" 
d="M829 918q90 -31 138 -103q45 -70 45 -330q0 -188 -43 -299q-44 -107 -152 -161q-107 -58 -276 -58q-192 0 -301 66q-113 65 -146 157q-35 102 -35 324v129h404v-262q0 -108 14 -133q12 -31 55 -31q47 0 62 37q14 35 14 188v113q0 95 -20.5 135t-63.5 58q-35 11 -157 14
v235q142 0 178 11q34 13 49 49q14 34 14 114v91q0 83 -16 112q-17 27 -55 27q-43 0 -58.5 -29t-15.5 -121v-133h-404v137q0 234 107 316q109 80 338 80q290 0 391 -113q102 -114 102 -313q0 -138 -36 -197q-39 -63 -132 -110z" />
    <glyph glyph-name="four" unicode="4" horiz-adv-x="1024" 
d="M895 1620v-1059h117v-276h-117v-285h-403v285h-480v276l348 1059h535zM492 561v688l-179 -688h179z" />
    <glyph glyph-name="five" unicode="5" horiz-adv-x="1100" 
d="M952 1618v-258h-499v-275q94 111 241 111q168 0 254 -92q84 -96 84 -361v-231q0 -167 -16 -252q-14 -77 -70 -149q-52 -66 -149 -105q-102 -37 -238 -37q-153 0 -274 56q-116 49 -168 161q-51 105 -51 334v88h403v-100q0 -158 12 -223q9 -68 76 -68q32 0 49 21
q18 18 21 41q0 77 2 190v322q0 90 -19 122q-17 33 -63 33q-28 0 -47 -16q-18 -14 -25 -35q-6 -21 -6 -92h-399l16 815h866z" />
    <glyph glyph-name="six" unicode="6" horiz-adv-x="1110" 
d="M1042 1190h-403q0 123 -2 143q-3 28 -25 49q-20 21 -59 21q-31 0 -51 -21q-20 -16 -23 -49q-4 -40 -4 -121v-258q32 65 92 99q58 30 148 30q110 0 195.5 -59t109.5 -143q22 -88 22 -228v-129q0 -176 -14 -254q-11 -78 -67 -151q-58 -70 -156 -111q-99 -39 -230 -39
q-163 0 -268 45q-102 47 -160 129q-56 82 -65 179q-10 102 -10 360v223q0 279 10 387q6 97 68 185q59 87 166.5 130.5t242.5 43.5q167 0 281 -54q111 -56 155 -155q47 -103 47 -252zM639 684q0 87 -21 119q-19 31 -61 31t-61 -29q-21 -32 -21 -121v-293q0 -108 21 -139
q15 -35 59 -35q29 0 55 27q29 24 29 137v303z" />
    <glyph glyph-name="seven" unicode="7" horiz-adv-x="803" 
d="M784 1618v-352l-258 -1266h-401l287 1327h-400v291h772z" />
    <glyph glyph-name="eight" unicode="8" horiz-adv-x="1096" 
d="M844 918q85 -33 137 -107q47 -71 47 -342q0 -197 -39 -289q-36 -92 -147 -151q-114 -60 -295 -60t-285 58q-105 59 -149 149q-47 97 -47 313q0 144 22 256q21 106 141 173q-73 36 -110 114q-39 74 -39 201q0 209 117 313q112 105 346 105q268 0 368 -113
q103 -112 103 -315q0 -135 -33 -191q-32 -55 -137 -114zM616 1266q0 83 -14 108q-14 27 -55 27q-40 0 -55 -29q-15 -25 -15 -106v-123q0 -72 17 -101q16 -28 55 -28q37 0 53 28q14 27 14 113v111zM625 594q0 91 -21 123q-19 31 -59 31q-37 0 -58 -29q-18 -31 -18 -125v-211
q0 -106 20 -135q22 -31 62 -31q43 0 57 33q17 31 17 135v209z" />
    <glyph glyph-name="nine" unicode="9" horiz-adv-x="1110" 
d="M72 430h403q0 -105 4 -141q3 -30 25 -51q20 -21 57 -21q34 0 51 21q22 18 25 49q2 18 2 121v258q-31 -64 -90 -99q-60 -32 -150 -32q-111 0 -196 61q-83 58 -109 143q-22 88 -22 228v129q0 84 4 151.5t10 100.5q12 83 70 153q55 70 153 111q102 39 232 39q161 0 266 -45
q102 -47 160 -129q56 -83 65 -179q6 -59 8 -143t2 -217v-225q0 -301 -8 -385q-9 -99 -69 -187q-61 -85 -166 -129q-111 -43 -244 -43q-168 0 -279 54q-109 55 -155 155q-49 101 -49 252zM475 936q0 -103 29 -127q25 -25 53 -25q39 0 61 31q21 29 21 121v293q0 106 -18 139
q-22 33 -64 33q-27 0 -53 -25q-29 -27 -29 -139v-301z" />
    <glyph glyph-name="colon" unicode=":" horiz-adv-x="414" 
d="M377 1053v-328h-305v328h305zM377 330v-330h-305v330h305z" />
    <glyph glyph-name="semicolon" unicode=";" horiz-adv-x="414" 
d="M377 1053v-328h-305v328h305zM360 317v-145q0 -118 -26 -186q-27 -71 -94 -125q-68 -53 -152 -68v117q61 33 70 90h-70v317h272z" />
    <glyph glyph-name="less" unicode="&#x3c;" horiz-adv-x="1092" 
d="M1026 324l-960 401v203l960 401v-262l-594 -240l594 -237v-266z" />
    <glyph glyph-name="equal" unicode="=" horiz-adv-x="1092" 
d="M66 1122h960v-243h-960v243zM66 739h960v-243h-960v243z" />
    <glyph glyph-name="greater" unicode="&#x3e;" horiz-adv-x="1092" 
d="M66 1329l960 -399v-205l-960 -401v264l593 239l-593 238v264z" />
    <glyph glyph-name="question" unicode="?" horiz-adv-x="1075" 
d="M487 1098h-403q3 214 37 311q10 31 30.5 60.5t49.5 57.5t67 52q115 74 289 74q126 0 220.5 -39.5t152.5 -112.5q52 -66 82 -153q26 -81 26 -261v-198q0 -134 -24 -217q-28 -82 -111 -144q-82 -61 -196 -61q-147 0 -220 115v-174h-376v444h368q3 -92 66 -92q51 0 63 41
q15 39 15 198v269q0 87 -13 121q-12 28 -51 28q-45 0 -57 -39q-15 -39 -15 -184v-96zM487 324v-324h-376v324h376z" />
    <glyph glyph-name="at" unicode="@" horiz-adv-x="1587" 
d="M1194 1309l-127 -793q-4 -36 -4 -35q0 -39 37 -39q61 0 131 58q72 60 123 169.5t51 264.5q0 257 -154 414q-152 155 -401 155q-291 0 -477 -198q-96 -104 -142.5 -235t-46.5 -298q0 -322 185 -510q180 -188 467 -188q139 0 266 47q121 45 237 139h209q-43 -55 -92 -100.5
t-104 -82t-123 -67.5q-195 -86 -393 -86q-84 0 -163.5 15t-151 44.5t-132.5 70.5t-123 102q-229 229 -229 608q0 124 23.5 235.5t72.5 212t117 183.5q214 258 596 258q225 0 371 -86q147 -92 239 -244q96 -156 96 -389q0 -308 -170 -483q-171 -179 -344 -179
q-128 0 -155 117q-74 -68 -117 -90q-52 -27 -121 -27q-148 0 -237 117q-91 118 -91 309q0 252 125 447q125 192 306 192q71 0 131 -34q54 -35 100 -109l16 113zM524 641q0 -90 41 -158q41 -65 107 -65q67 0 114 51q50 53 93 211q41 164 41 301q0 89 -37 145q-41 56 -105 56
q-121 0 -186 -170q-68 -174 -68 -371z" />
    <glyph glyph-name="A" unicode="A" horiz-adv-x="1040" 
d="M811 1620l240 -1620h-430l-21 291h-151l-25 -291h-436l215 1620h608zM588 578q-16 136 -28.5 264.5t-35.5 414.5q-38 -276 -54 -416.5t-26 -262.5h144z" />
    <glyph glyph-name="B" unicode="B" horiz-adv-x="1130" 
d="M84 1620h420q203 0 303 -33q100 -30 164 -125q61 -94 61 -305q0 -143 -43 -196q-47 -59 -176 -87q148 -33 199 -108q51 -74 51 -236v-149q0 -169 -37 -244q-39 -82 -119 -108q-84 -29 -336 -29h-487v1620zM504 1341v-360q18 2 43 2q62 0 78 31q18 30 18 174q0 78 -14 106
q-16 30 -37 39q-19 8 -88 8zM504 729v-453q90 5 114 29q25 25 25 123v152q0 101 -22 125q-22 21 -117 24z" />
    <glyph glyph-name="C" unicode="C" horiz-adv-x="1135" 
d="M1067 913h-420v281q0 127 -14 156q-16 28 -60 28q-53 0 -65 -37q-16 -38 -16 -159v-752q0 -117 16 -154q12 -36 61 -36t64 36q14 32 14 168v203h420v-61q0 -250 -35 -357q-36 -103 -158 -184q-119 -80 -299 -80q-184 0 -305 68t-159 186q-39 116 -39 356v474
q0 172 12 262q11 84 72 168q59 83 166 129q103 45 241 45q186 0 307 -72q123 -72 158 -178q39 -104 39 -336v-154z" />
    <glyph glyph-name="D" unicode="D" horiz-adv-x="1133" 
d="M84 1620h315q302 0 412 -29q108 -27 164 -92q54 -62 69 -141q15 -72 15 -309v-568q0 -224 -21 -291q-22 -76 -71 -114q-53 -44 -125 -60q-82 -16 -228 -16h-530v1620zM504 1341v-1065q90 0 112 37q23 38 23 199v629q0 114 -8 141q-8 30 -33 45q-22 14 -94 14z" />
    <glyph glyph-name="E" unicode="E" horiz-adv-x="852" 
d="M84 1618h702v-324h-282v-307h264v-307h-264v-356h309v-324h-729v1618z" />
    <glyph glyph-name="F" unicode="F" horiz-adv-x="815" 
d="M84 1618h713v-324h-293v-307h262v-307h-262v-680h-420v1618z" />
    <glyph glyph-name="G" unicode="G" horiz-adv-x="1128" 
d="M1051 1024h-420v145q-3 145 -15 174q-12 35 -57 35q-39 0 -51 -28q-16 -34 -16 -156v-776q0 -107 16 -144q12 -34 55 -34q45 0 64 39q16 42 16 151v193h-86v245h494v-868h-265l-41 117q-41 -75 -106 -113.5t-156 -38.5q-103 0 -198 53q-94 53 -142 127q-48 83 -59 160
q-12 82 -12 250v481q0 232 24 336q28 107 146 195q41 30 87.5 48.5t99 28t118.5 9.5q185 0 307 -76t160 -180q37 -108 37 -303v-70z" />
    <glyph glyph-name="H" unicode="H" horiz-adv-x="1137" 
d="M1051 1620v-1620h-420v680h-127v-680h-420v1620h420v-580h127v580h420z" />
    <glyph glyph-name="I" unicode="I" horiz-adv-x="590" 
d="M504 1620v-1620h-420v1620h420z" />
    <glyph glyph-name="J" unicode="J" horiz-adv-x="678" 
d="M598 1620v-1083q0 -218 -4 -312q-3 -64 -45 -127q-39 -54 -111 -75q-72 -23 -209 -23h-211v283q25 -2 56 -2q46 0 69 20q28 21 31 55q4 42 4 123v1141h420z" />
    <glyph glyph-name="K" unicode="K" horiz-adv-x="1100" 
d="M1087 1620l-241 -731l264 -889h-434l-172 694v-694h-420v1620h420v-631l188 631h395z" />
    <glyph glyph-name="L" unicode="L" horiz-adv-x="778" 
d="M504 1620v-1296h258v-324h-678v1620h420z" />
    <glyph glyph-name="M" unicode="M" horiz-adv-x="1468" 
d="M1382 1620v-1620h-366v1094l-148 -1094h-262l-155 1067v-1067h-367v1620h545q6 -39 17 -111t17.5 -116.5t16.5 -116.5l57 -414l97 758h548z" />
    <glyph glyph-name="N" unicode="N" horiz-adv-x="1110" 
d="M1024 1620v-1620h-369l-219 735v-735h-352v1620h352l236 -729v729h352z" />
    <glyph glyph-name="O" unicode="O" horiz-adv-x="1118" 
d="M1044 672q0 -123 -2 -202t-8 -144q-12 -100 -71 -187q-60 -81 -164 -129q-102 -45 -240 -45q-130 0 -233 43t-166 127q-64 87 -76 187t-12 350v276q0 245 12 346q9 99 72 185q58 82 163 129q102 45 240 45q124 0 234 -41q106 -44 165 -129q65 -85 74 -185
q12 -100 12 -350v-276zM625 1202q0 116 -13 146q-12 30 -51 30q-34 0 -49 -24q-20 -27 -20 -152v-756q0 -142 14 -174q9 -32 51 -32q43 0 55 39q13 35 13 180v743z" />
    <glyph glyph-name="P" unicode="P" horiz-adv-x="1028" 
d="M84 1620h424q171 0 264 -29q96 -28 139 -78q50 -54 64 -122q16 -77 16 -226v-141q0 -158 -33 -225q-33 -71 -116 -109q-87 -39 -226 -39h-112v-651h-420v1620zM504 1341v-411h33q57 0 79 28q23 29 23 117v133q0 85 -27 109t-108 24z" />
    <glyph glyph-name="Q" unicode="Q" horiz-adv-x="1118" 
d="M1047 0v-195h-318q-113 0 -162 19q-47 16 -63 51q-17 39 -17 125q-141 3 -245 76q-104 70 -138 180q-32 105 -32 328v499q0 171 20 252q18 87 80 164q59 73 158 115q94 39 213 39q133 0 252 -47q110 -51 163 -123q56 -78 70 -154q16 -85 16 -235v-527q0 -219 -20 -293
q-21 -77 -80 -122q-58 -46 -160 -70q3 -51 25 -68q17 -14 92 -14h146zM625 1202q0 116 -13 146q-12 30 -51 30q-34 0 -49 -24q-20 -27 -20 -152v-756q0 -142 14 -174q9 -32 51 -32q43 0 55 39q13 35 13 180v743z" />
    <glyph glyph-name="R" unicode="R" horiz-adv-x="1104" 
d="M84 1620h299q299 0 403 -25q104 -21 172 -116q66 -98 66 -301q0 -189 -47.5 -254.5t-183.5 -77.5q127 -35 168 -84q45 -56 53 -94q6 -28 8 -86t2 -156v-426h-391v539q0 131 -21 159q-21 31 -108 31v-729h-420v1620zM504 1341v-360q74 0 100 20q29 23 29 127v89
q0 78 -29 102q-28 22 -100 22z" />
    <glyph glyph-name="S" unicode="S" horiz-adv-x="1059" 
d="M977 1128h-391v121q0 84 -17 107q-16 22 -49 22q-39 0 -57 -30q-21 -31 -21 -95q0 -77 23 -120.5t119 -100.5q281 -166 354 -272q72 -110 72 -346q0 -171 -39 -254q-40 -82 -158 -137q-113 -58 -268 -58q-166 0 -289 66q-121 65 -158 162q-37 103 -37 280v107h392v-197
q0 -87 16 -117q14 -26 59 -26q44 0 64 32q18 34 18 99q0 144 -39 186q-37 44 -196 148q-154 101 -207 151q-50 44 -84.5 128.5t-34.5 213.5q0 183 47 272q46 87 154 136q113 47 256 47q53 0 102.5 -6t96.5 -19t81 -29q114 -51 152 -133q37 -78 37 -272z" />
    <glyph glyph-name="T" unicode="T" horiz-adv-x="944" 
d="M932 1618v-324h-250v-1294h-420v1294h-250v324h920z" />
    <glyph glyph-name="U" unicode="U" horiz-adv-x="1120" 
d="M1040 1620v-1083q0 -184 -12 -258q-9 -72 -70 -152q-56 -79 -155 -121q-101 -41 -228 -41q-143 0 -256 49q-110 47 -165 125q-57 79 -66 162q-10 95 -10 361v958h420v-1214q0 -109 14 -136q9 -30 45 -30q42 0 51 32q13 37 13 154v1194h419z" />
    <glyph glyph-name="V" unicode="V" horiz-adv-x="1071" 
d="M1083 1620l-213 -1620h-639l-243 1620h444q19 -164 43 -395.5t39 -392.5t29 -345q7 95 17 226.5t19.5 250t18 215.5t12.5 140l31 301h442z" />
    <glyph glyph-name="W" unicode="W" horiz-adv-x="1667" 
d="M1667 1620l-186 -1620h-527q-39 211 -68.5 410t-58.5 438q-12 -96 -24 -186t-21 -161.5t-27.5 -202.5t-43.5 -298h-523l-188 1620h410l43 -565l43 -545q8 154 23.5 321t40.5 379.5t52 409.5h439q5 -39 45 -535l47 -616q33 590 117 1151h407z" />
    <glyph glyph-name="X" unicode="X" horiz-adv-x="987" 
d="M938 1620l-147 -717l221 -903h-389q-72 244 -129 590q-17 -161 -43 -326l-41 -264h-410l152 903l-152 717h408q10 -72 43 -223q26 -116 43 -219l90 442h354z" />
    <glyph glyph-name="Y" unicode="Y" horiz-adv-x="969" 
d="M981 1620l-307 -1034v-586h-389v586l-297 1034h387q94 -483 102 -639q34 261 117 639h387z" />
    <glyph glyph-name="Z" unicode="Z" horiz-adv-x="813" 
d="M788 1618v-324l-315 -970h315v-324h-776v236l324 1058h-287v324h739z" />
    <glyph glyph-name="bracketleft" unicode="[" horiz-adv-x="578" 
d="M541 1618v-248h-92v-1122h92v-248h-457v1618h457z" />
    <glyph glyph-name="backslash" unicode="\" horiz-adv-x="811" 
d="M12 1651h303l484 -1682h-305z" />
    <glyph glyph-name="bracketright" unicode="]" horiz-adv-x="578" 
d="M37 0v248h90v1122h-90v248h455v-1618h-455z" />
    <glyph glyph-name="asciicircum" unicode="^" horiz-adv-x="989" 
d="M12 819l375 801h223l367 -801h-285l-196 490l-197 -490h-287z" />
    <glyph glyph-name="underscore" unicode="_" horiz-adv-x="1130" 
d="M-12 -154h1155v-102h-1155v102z" />
    <glyph glyph-name="grave" unicode="`" horiz-adv-x="682" 
d="M0 1772h356l176 -271h-202z" />
    <glyph glyph-name="a" unicode="a" horiz-adv-x="1032" 
d="M432 813h-379v88q0 154 37 240q33 80 141 145q111 66 279 66q203 0 309 -72q104 -73 125 -178q21 -108 21 -436v-666h-394v119q-38 -74 -94 -107q-60 -37 -139 -37q-104 0 -195 62q-90 59 -90 260v109q0 147 47 202q49 55 234 125q196 75 213 107q14 25 14 108
q0 106 -14.5 137t-52.5 31q-42 0 -52 -26q-10 -32 -10 -138v-139zM561 631q-97 -72 -112 -119q-17 -48 -17 -137q0 -108 14 -133q16 -31 54 -31q39 0 51 25q10 23 10 122v273z" />
    <glyph glyph-name="b" unicode="b" horiz-adv-x="1065" 
d="M475 1620v-383q54 60 113 86q66 29 133 29q84 0 143 -27q60 -26 94 -74q29 -42 39 -92q7 -54 7 -190v-598q0 -146 -21 -217q-18 -73 -90 -125q-76 -54 -172 -54q-71 0 -131 31q-64 34 -115 94l-24 -100h-379v1620h403zM600 950q0 104 -14 135q-12 31 -51 31
q-38 0 -48 -26q-12 -28 -12 -140v-571q0 -112 14 -137q13 -31 50 -31t49 30.5t12 149.5v559z" />
    <glyph glyph-name="c" unicode="c" horiz-adv-x="1014" 
d="M965 825h-381v154q0 82 -13 108q-15 29 -49 29q-35 0 -47 -24.5t-12 -112.5v-627q0 -71 18 -104q19 -37 54 -37q42 0 57 37q12 36 12 139v160h361q0 -157 -11 -240q-12 -79 -67 -162q-60 -84 -148 -127q-94 -43 -225 -43q-170 0 -270 60q-103 59 -142 164
q-43 106 -43 299v376q0 165 35 256q34 86 146 154q110 68 270 68q158 0 268 -68q112 -66 150 -170q37 -103 37 -289z" />
    <glyph glyph-name="d" unicode="d" horiz-adv-x="1065" 
d="M991 1620v-1620h-403v96q-58 -58 -123 -90q-67 -31 -133 -31q-94 0 -164 52q-70 48 -88 112q-21 64 -21 213v621q0 152 21 217q17 62 90 113q72 49 166 49q71 0 137 -29q60 -25 115 -80v377h403zM588 993q0 74 -13 99q-15 24 -51 24q-34 0 -47 -22q-14 -21 -14 -101v-651
q0 -80 12 -104q11 -27 47 -27q39 0 51 29q15 25 15 139v614z" />
    <glyph glyph-name="e" unicode="e" horiz-adv-x="1047" 
d="M987 641h-524v-289q0 -92 14 -114q11 -27 49 -27q49 0 64 35q14 31 14 133v176h383v-98q0 -128 -14 -191q-15 -65 -74 -139q-58 -76 -143 -113q-90 -39 -221 -39q-124 0 -226 37q-98 38 -151 103q-58 67 -78 141q-21 76 -21 225v387q0 170 47 277q48 100 154 153
q111 54 248 54q168 0 280 -66q109 -65 154 -170t45 -301v-174zM582 856v96q0 105 -11 133q-12 31 -45 31q-44 0 -53 -24q-10 -32 -10 -140v-96h119z" />
    <glyph glyph-name="f" unicode="f" horiz-adv-x="592" 
d="M588 1618v-205q-123 0 -148 -10q-22 -13 -22 -66v-43h170v-209h-96v-1085h-404v1085h-84v209h84q0 137 8 174q9 47 45 80q32 32 99 51q63 19 198 19h150z" />
    <glyph glyph-name="g" unicode="g" horiz-adv-x="1063" 
d="M989 1327v-1022q0 -214 -8 -266q-9 -61 -68 -129t-161 -103q-105 -36 -260 -36q-191 0 -312 65q-118 65 -121 258h392q3 -88 65 -88q46 0 62 27q16 29 16 112l-2 101q-57 -51 -109 -72q-61 -22 -121 -22q-110 0 -180 43q-68 44 -96 116q-27 70 -27 203v481q0 190 70 273
q69 84 207 84q73 0 137 -31q66 -35 113 -94l28 100h375zM586 975q0 90 -11 117q-12 24 -47 24q-34 0 -49.5 -29t-15.5 -112v-447q0 -87 12 -114q9 -27 45 -27q42 0 53 33q13 29 13 143v412z" />
    <glyph glyph-name="h" unicode="h" horiz-adv-x="1073" 
d="M475 1620v-365q57 50 115 72q61 25 129 25q103 0 180 -56q75 -52 90 -122q17 -82 17 -259v-915h-404v934q0 112 -10 149q-11 33 -53 33q-36 0 -50 -35q-14 -31 -14 -135v-946h-403v1620h403z" />
    <glyph glyph-name="i" unicode="i" horiz-adv-x="561" 
d="M487 1327v-1327h-415v1327h415zM422 1597v-147h-291v147h291z" />
    <glyph glyph-name="j" unicode="j" horiz-adv-x="573" 
d="M500 1327v-1051q0 -184 -6 -249q-11 -70 -48 -115q-39 -49 -102 -74q-64 -24 -194 -24h-156v213q72 0 82 16q8 13 8 199v1085h416zM438 1595v-147h-291v147h291z" />
    <glyph glyph-name="k" unicode="k" horiz-adv-x="979" 
d="M942 1327l-164 -528l213 -799h-389l-127 578v-578h-403v1620h403v-682l127 389h340z" />
    <glyph glyph-name="l" unicode="l" horiz-adv-x="561" 
d="M487 1620v-1620h-415v1620h415z" />
    <glyph glyph-name="m" unicode="m" horiz-adv-x="1579" 
d="M471 1327l-8 -127q44 72 112 115q66 37 150 37q161 0 254 -152q52 75 115 115q66 37 143 37q103 0 170 -52q68 -48 86 -120q18 -75 18 -238v-942h-393l2 864q0 85 -2 135.5t-8 75.5q-12 41 -55 41q-42 0 -56 -41q-12 -39 -12 -211v-864h-391v844q0 190 -10 233
q-9 39 -54 39q-26 0 -45 -20q-17 -21 -20 -49q-4 -42 -4 -127v-920h-391v1327h399z" />
    <glyph glyph-name="n" unicode="n" horiz-adv-x="1071" 
d="M483 1327l-8 -123q43 73 109 110.5t145 37.5q104 0 170 -49q68 -50 86 -123q19 -82 19 -250v-930h-404v920q0 141 -8 165q-9 31 -51 31q-43 0 -54 -35q-12 -33 -12 -184v-897h-403v1327h411z" />
    <glyph glyph-name="o" unicode="o" horiz-adv-x="1047" 
d="M985 860v-323q0 -179 -18 -263q-17 -84 -76 -155q-59 -75 -152 -109q-97 -35 -213 -35q-129 0 -227 31q-91 28 -143.5 87.5t-73.5 146.5q-23 90 -23 252v339q0 183 41 289q40 104 143.5 168t266.5 64q130 0 233 -41q97 -40 152 -107q49 -60 72 -133q18 -70 18 -211z
M582 961q0 99 -11 129q-12 26 -47 26q-37 0 -49 -26q-12 -28 -12 -129v-599q0 -95 12 -122q12 -29 47 -29q38 0 49 27q11 25 11 110v613z" />
    <glyph glyph-name="p" unicode="p" horiz-adv-x="1063" 
d="M483 1327l-8 -117q53 68 121 107q68 35 141 35q95 0 162 -52q71 -51 86 -116q16 -69 16 -223v-560q0 -184 -20 -258q-20 -72 -88 -120q-70 -48 -162 -48q-69 0 -137 35q-68 36 -119 105v-303h-403v1515h411zM598 940q0 127 -8 150q-9 26 -51 26q-39 0 -52 -31
q-12 -27 -12 -145v-549q0 -122 12 -149q13 -31 54 -31q40 0 49 29q8 24 8 133v567z" />
    <glyph glyph-name="q" unicode="q" horiz-adv-x="1061" 
d="M987 1327v-1515h-403v294q-58 -84 -109 -106q-52 -25 -123 -25q-104 0 -174 52q-70 48 -94 129q-25 83 -25 243v584q0 132 19 203q18 65 88 117q69 49 162 49q71 0 139 -35q65 -35 117 -103l8 113h395zM584 967q0 89 -13 118q-15 31 -49 31q-35 0 -47 -26
q-12 -28 -12 -123v-592q0 -108 12 -135q12 -29 49 -29q35 0 47 31q13 26 13 127v598z" />
    <glyph glyph-name="r" unicode="r" horiz-adv-x="733" 
d="M475 1327l-16 -174q44 93 108.5 143t147.5 56v-467q-110 0 -164 -31q-50 -28 -64 -84q-12 -52 -12 -246v-524h-403v1327h403z" />
    <glyph glyph-name="s" unicode="s" horiz-adv-x="965" 
d="M897 903h-358v72q0 90 -11 117q-9 24 -53 24q-33 0 -49 -22q-18 -22 -18 -68q0 -58 9.5 -88.5t51.5 -63.5q49 -40 172 -100q179 -87 231 -162q56 -77 56 -221q0 -156 -41 -244q-42 -80 -142 -127q-97 -45 -237 -45q-154 0 -262 50q-112 45 -152 129q-41 87 -41 247v64
h359v-84q0 -108 14 -139q12 -31 51 -31q42 0 62 22q16 24 16 91q0 93 -23 118q-20 24 -233 142q-94 54 -144.5 97t-72.5 85q-39 79 -39 192q0 159 41 236q44 77 143 117q107 41 234 41q131 0 223 -33q92 -35 143 -90q51 -57 60 -103q10 -50 10 -145v-78z" />
    <glyph glyph-name="t" unicode="t" horiz-adv-x="625" 
d="M498 1503v-209h108v-209h-108v-710q0 -131 13.5 -146.5t113.5 -15.5v-213h-164q-138 0 -197 12q-57 9 -104 54q-45 37 -56 94q-10 58 -10 252v673h-88v209h88v209h404z" />
    <glyph glyph-name="u" unicode="u" horiz-adv-x="1069" 
d="M997 1327v-1327h-411l8 111q-40 -66 -105 -101q-64 -35 -141 -35q-92 0 -151 33q-64 38 -88 84q-29 53 -35 113q-8 49 -8 227v895h403v-903q0 -154 10 -184q9 -29 51 -29q47 0 56 31q8 24 8 192v893h403z" />
    <glyph glyph-name="v" unicode="v" horiz-adv-x="895" 
d="M907 1327l-188 -1327h-529l-200 1327h358l115 -969q11 99 43 521q17 214 41 448h360z" />
    <glyph glyph-name="w" unicode="w" horiz-adv-x="1370" 
d="M1376 1327l-159 -1327h-441q-7 56 -18.5 140.5t-19.5 150.5t-21.5 172t-22.5 178q-13 -151 -45 -352l-45 -289h-438l-172 1327h348q0 -6 88 -760q3 38 90 760h334l84 -760q17 319 90 760h348z" />
    <glyph glyph-name="x" unicode="x" horiz-adv-x="889" 
d="M870 1327l-159 -635l194 -692h-393q-59 263 -86 451q-15 -90 -39 -215t-49 -236h-338l174 692l-174 635h338q42 -202 63.5 -315.5t24.5 -145.5q56 324 86 461h358z" />
    <glyph glyph-name="y" unicode="y" horiz-adv-x="918" 
d="M918 1327l-115 -960q-25 -200 -45 -312q-23 -85 -64.5 -137.5t-118.5 -77.5q-33 -12 -96 -19t-147 -7h-246v213q89 0 121 10q26 9 26 41q0 16 -24 139l-221 1110h366l133 -895l64 895h367z" />
    <glyph glyph-name="z" unicode="z" horiz-adv-x="719" 
d="M700 1327v-295l-299 -766h299v-266h-688v279l305 782h-274v266h657z" />
    <glyph glyph-name="braceleft" unicode="{" horiz-adv-x="758" 
d="M37 539v239q107 0 164 66q55 61 55 284q0 167 12 250q11 80 60 138q50 56 125 79q78 23 215 23h53v-240q-146 0 -174 -28t-31 -117q-3 -223 -14 -311q-9 -71 -43 -138q-35 -66 -129 -127q88 -51 129 -129t47 -215l14 -290q9 -42 43 -64q36 -22 156 -22v-240h-51
q-161 0 -248 37q-84 35 -125 119q-39 79 -39 268q0 207 -14 262q-17 58 -56 104q-41 49 -149 52z" />
    <glyph glyph-name="bar" unicode="|" horiz-adv-x="555" 
d="M168 1620h217v-1884h-217v1884z" />
    <glyph glyph-name="braceright" unicode="}" horiz-adv-x="758" 
d="M721 539q-113 -3 -164 -66q-55 -64 -55 -285q0 -172 -13 -249q-12 -83 -61 -138q-45 -54 -123 -80q-76 -24 -215 -24h-53v240q136 0 172 28q30 32 33 119q6 257 18 330q12 70 51 134.5t117 108.5q-84 57 -119 111q-35 56 -47 119q-9 62 -18 235q-6 177 -15 197
q-9 25 -36 43q-31 18 -156 18v238h51q161 0 248 -35q85 -35 127 -121q39 -82 39 -268q0 -106 4 -174t10 -92q14 -52 55 -101q41 -46 150 -49v-239z" />
    <glyph glyph-name="asciitilde" unicode="~" horiz-adv-x="1075" 
d="M1018 786q-156 -131 -285 -131q-83 0 -256 84q-96 47 -141 47q-108 0 -279 -163v276q148 129 289 129q45 0 101 -16.5t131 -53.5q118 -57 170 -57q45 0 98 29q49 23 172 133v-277z" />
    <glyph glyph-name="Zcaron" horiz-adv-x="813" 
d="M788 1618v-324l-315 -970h315v-324h-776v236l324 1058h-287v324h739zM430 1827l78 90h188l-166 -195h-196l-180 195h194z" />
    <glyph glyph-name="ogonek" horiz-adv-x="682" 
d="M262 20h146q-107 -100 -107 -153q0 -34 18 -49q20 -17 56 -17q47 0 112 27l41 -100q-82 -43 -174 -43q-85 0 -141 41q-57 38 -57 112q0 92 106 182z" />
    <glyph glyph-name="caron" horiz-adv-x="682" 
d="M350 1651l111 131h270l-239 -281h-283l-258 281h280z" />
    <glyph glyph-name="Lslash" 
 />
    <glyph glyph-name="ordmasculine" horiz-adv-x="676" 
d="M637 1346v-189q0 -130 -21 -190q-21 -68 -92 -109q-70 -43 -188 -43q-127 0 -186 37q-62 31 -89 96q-24 64 -24 182v197q0 185 80 252q80 68 211 68q110 0 184 -41q71 -41 98 -99q27 -55 27 -161zM375 1405q0 57 -6 74q-6 14 -31 14q-27 0 -33 -14q-6 -16 -6 -74v-352
q0 -55 6 -70q8 -14 29 -14q29 0 35 12q6 15 6 63v361z" />
    <glyph glyph-name="fraction" horiz-adv-x="256" 
d="M520 1651l-631 -1682h-155l637 1682h149z" />
    <glyph glyph-name="breve" horiz-adv-x="682" 
d="M455 1802h170q-6 -135 -78 -219q-76 -82 -205 -82q-133 0 -205 84q-74 83 -80 217h170q13 -137 115 -137q100 0 113 137z" />
    <glyph glyph-name="dotlessi" horiz-adv-x="561" 
d="M487 1327v-1327h-415v1327h415z" />
    <glyph glyph-name="dotlessi" unicode="&#x131;" horiz-adv-x="561" 
d="M487 1327v-1327h-415v1327h415z" />
    <glyph glyph-name="zcaron" horiz-adv-x="719" 
d="M700 1327v-295l-299 -766h299v-266h-688v279l305 782h-274v266h657zM383 1534l78 90h188l-166 -194h-196l-181 194h195z" />
    <glyph glyph-name="Ydieresis" horiz-adv-x="969" 
d="M981 1620l-307 -1034v-586h-389v586l-297 1034h387q94 -483 102 -639q34 261 117 639h387zM408 1958v-207h-207v207h207zM758 1958v-207h-207v207h207z" />
    <glyph glyph-name="Ydieresis" unicode="&#x178;" horiz-adv-x="969" 
d="M981 1620l-307 -1034v-586h-389v586l-297 1034h387q94 -483 102 -639q34 261 117 639h387zM408 1958v-207h-207v207h207zM758 1958v-207h-207v207h207z" />
    <glyph glyph-name="fl" unicode="&#xa0;" horiz-adv-x="1145" 
d="M588 1618v-205q-123 0 -148 -10q-22 -13 -22 -66v-43h170v-209h-96v-1085h-404v1085h-84v209h84q0 137 8 174q9 47 45 80q32 32 99 51q63 19 198 19h150zM1071 1618v-1618h-416v1618h416z" />
    <glyph glyph-name="exclamdown" unicode="&#xa1;" horiz-adv-x="553" 
d="M70 1100v323h376v-323h-376zM37 -195l65 1219h312l65 -1219h-442z" />
    <glyph glyph-name="cent" unicode="&#xa2;" horiz-adv-x="1059" 
d="M1004 922h-404v135q0 117 -12 147q-12 31 -56 31q-41 0 -55 -27q-14 -25 -14 -137v-620q0 -111 14 -140q12 -30 53 -30q50 0 68 41q18 39 18 172v147h388q2 -31 2 -68q0 -237 -91 -364q-89 -126 -286 -170v-166h-187v166q-128 15 -231 98q-103 80 -127 168
q-25 89 -25 285v297q0 202 27 301q25 97 119 178q97 81 237 109v137h187v-137q97 -19 180 -66q79 -52 125 -119q48 -70 57 -137q13 -73 13 -231z" />
    <glyph glyph-name="sterling" unicode="&#xa3;" horiz-adv-x="1096" 
d="M999 1098h-362v147q0 107 -2 125q-3 26 -25 47q-20 21 -53 21q-36 0 -65 -35q-25 -34 -25 -78q0 -54 43 -207q47 -164 47 -196h256v-277h-231q-3 -270 -195 -407q18 3 45 6q42 4 55 4q28 0 93 -10q35 -5 41 -5q38 0 63 25t25 131v66h338v-129q0 -145 -21 -207
q-22 -67 -94 -107q-75 -43 -184 -43q-70 0 -205 33q-134 35 -226 35q-150 0 -245 -68v236q45 29 71 74q27 43 50 147q22 107 22 174v45h-143v277h98q-84 162 -84 305q0 207 129 315q130 109 330 109q213 0 338 -113t125 -307q0 -65 -9 -133z" />
    <glyph glyph-name="currency" unicode="&#xa4;" horiz-adv-x="1122" 
d="M813 1061l133 133l139 -141l-131 -133q74 -118 74 -250q0 -136 -74 -254l131 -129l-139 -142l-133 129q-61 -38 -123 -55q-64 -18 -131 -18q-65 0 -127 17.5t-123 55.5l-131 -129l-141 142l131 129q-74 121 -74 254q0 126 74 250l-131 133l139 141l133 -133q66 38 125 55
q65 19 125 19q61 0 129 -19q59 -17 125 -55zM293 674q0 -121 80 -197q81 -78 188 -78q109 0 191 80q77 77 77 189q0 111 -77 188q-82 80 -191 80q-114 0 -190 -82q-78 -82 -78 -180z" />
    <glyph glyph-name="yen" unicode="&#xa5;" horiz-adv-x="969" 
d="M793 981h174v-172h-226l-67 -223h293v-170h-293v-416h-389v416h-283v170h283l-66 223h-217v172h168l-182 639h387q39 -204 57.5 -310t30 -190t14.5 -139q34 258 117 639h387z" />
    <glyph glyph-name="brokenbar" unicode="&#xa6;" horiz-adv-x="555" 
d="M168 1620h217v-815h-217v815zM168 551h217v-815h-217v815z" />
    <glyph glyph-name="section" unicode="&#xa7;" horiz-adv-x="991" 
d="M877 1274h-320v24q0 52 -18 76q-22 25 -64 25q-31 0 -45 -15q-14 -14 -14 -45t30 -67q33 -40 160 -131q118 -84 192 -147t99 -99q57 -75 57 -166q0 -184 -217 -285q86 -88 129 -170q43 -79 43 -153q0 -132 -108 -242q-114 -108 -307 -108q-168 0 -273 90
q-103 88 -106 284h317q0 -129 80 -129q31 0 47 19q16 16 16 49q0 35 -30 70q-47 45 -109 90q-99 71 -184.5 140t-128.5 114q-86 89 -86 196q0 163 217 289q-86 80 -127 156q-43 79 -43 164q0 128 102 241q103 109 306 109q161 0 274 -82q111 -82 111 -297zM383 868
q-37 -33 -37 -73q0 -29 27 -56q23 -26 129 -100q18 -12 53.5 -40.5t52.5 -41.5q35 35 35 76q0 31 -33 63q-33 34 -141 111q-28 18 -86 61z" />
    <glyph glyph-name="dieresis" unicode="&#xa8;" horiz-adv-x="682" 
d="M254 1761v-260h-260v260h260zM690 1761v-260h-260v260h260z" />
    <glyph glyph-name="copyright" unicode="&#xa9;" horiz-adv-x="1606" 
d="M782 1532q349 0 568 -229q217 -230 217 -537q0 -317 -224.5 -541.5t-539.5 -224.5q-76 0 -153 14.5t-143.5 43t-126.5 69t-120 98.5q-223 224 -223 541q0 218 113 400.5t290 275.5q182 90 342 90zM817 1380q-275 0 -452 -182q-179 -182 -179 -432q0 -251 183 -434
q179 -180 434 -180q254 0 434 180t180 434q0 267 -186 440q-186 174 -414 174zM987 653l162 -55q-82 -260 -338 -260q-176 0 -281 117q-104 113 -104 307q0 200 106 313q109 115 275 115q256 0 342 -244l-162 -37q-53 140 -178 140q-102 0 -154 -76q-53 -79 -53 -201
q0 -141 51 -215q52 -76 146 -76q135 0 188 172z" />
    <glyph glyph-name="ordfeminine" unicode="&#xaa;" horiz-adv-x="666" 
d="M283 1362h-246q0 102 20 151q23 54 93 93q67 39 180 39q130 0 198 -41q69 -41 84 -107q17 -66 17 -268v-395h-256v69q-24 -44 -64 -65q-37 -23 -88 -23q-91 0 -137 49q-47 50 -47 150v63q0 99 33 131q33 35 184 86q105 38 108 56q5 17 5 43q0 62 -11 82q-9 18 -34 18
q-27 0 -33 -14q-6 -16 -6 -78v-39zM367 1208q-54 -38 -68 -59q-16 -22 -16 -86q0 -55 8 -70q10 -16 35 -16q26 0 32 12q9 13 9 70v149z" />
    <glyph glyph-name="guillemotleft" unicode="&#xab;" horiz-adv-x="760" 
d="M121 1237h237l-84 -543l84 -569h-237l-84 569zM487 1237h238l-84 -543l84 -569h-238l-84 569z" />
    <glyph glyph-name="logicalnot" unicode="&#xac;" horiz-adv-x="1092" 
d="M63 1124h965v-632h-244v389h-721v243z" />
    <glyph glyph-name="minus" unicode="&#xad;" horiz-adv-x="602" 
d="M567 803v-279h-530v279h530z" />
    <glyph glyph-name="registered" unicode="&#xae;" horiz-adv-x="1606" 
d="M782 1532q341 0 566 -227q219 -233 219 -539q0 -317 -224.5 -541.5t-539.5 -224.5q-76 0 -153 14.5t-143.5 43t-126.5 69t-120 98.5q-223 224 -223 541q0 224 119 410q116 186 295 272q180 84 331 84zM819 1382q-141 0 -255 -46t-202 -140q-174 -184 -174 -430
q0 -253 180.5 -434.5t436.5 -181.5q250 0 432 182q91 91 136.5 198.5t45.5 235.5q0 174 -92 324q-90 149 -233 219q-145 73 -275 73zM465 356v813h385q144 0 209 -65q63 -66 63 -164q0 -93 -53 -152q-56 -57 -166 -75q56 -24 80 -51q27 -29 94 -142l94 -164h-202l-68 131
q-61 117 -106.5 160t-122.5 43h-43v-334h-164zM629 819h135q103 0 143 27q41 27 41 86q0 53 -41 82q-40 26 -127 26h-151v-221z" />
    <glyph glyph-name="macron" unicode="&#xaf;" horiz-adv-x="682" 
d="M739 1673v-172h-794v172h794z" />
    <glyph glyph-name="ring" unicode="&#xb0;" horiz-adv-x="682" 
d="M342 1921q82 0 147 -59q62 -62 62 -152q0 -85 -62 -147q-60 -62 -147 -62q-89 0 -149 62q-62 62 -62 147q0 88 62 150q64 61 149 61zM340 1790q-33 0 -57 -25q-25 -21 -25 -59q0 -33 24.5 -57.5t57.5 -24.5q35 0 58.5 25t23.5 57q0 38 -23 59q-24 25 -59 25z" />
    <glyph glyph-name="plusminus" unicode="&#xb1;" horiz-adv-x="1092" 
d="M668 543h-244v356h-361v244h361v358h244v-358h360v-244h-360v-356zM63 422h965v-244h-965v244z" />
    <glyph glyph-name="twosuperior" unicode="&#xb2;" horiz-adv-x="651" 
d="M592 938v-154h-555v127q253 351 293 418q43 78 43 119q0 61 -54 61q-27 0 -40 -16q-15 -14 -15 -70v-86h-227v35q0 88 18 144q20 55 82 94q68 41 172 41q151 0 228 -64.5t77 -161.5q0 -77 -43 -153q-22 -39 -59 -90.5t-117 -155.5l-69 -88h266z" />
    <glyph glyph-name="threesuperior" unicode="&#xb3;" horiz-adv-x="668" 
d="M532 1264q50 -18 74 -54q27 -37 27 -170q0 -169 -82.5 -221.5t-214.5 -52.5q-119 0 -189 35q-66 31 -90 86q-20 50 -20 170v55h254v-127q0 -54 8 -65q6 -13 33 -13t37 19q10 17 10 94v53q0 69 -29 84q-29 16 -123 19v133q109 0 129 14q23 12 23 72v47q0 46 -12 55
q-13 12 -33 12q-26 0 -35 -12q-8 -11 -8 -59v-60h-254v62q0 124 65 168q66 43 211 43q176 0 242 -60q68 -59 68 -170q0 -41 -17 -90q-15 -43 -74 -67z" />
    <glyph glyph-name="acute" unicode="&#xb4;" horiz-adv-x="682" 
d="M684 1772l-330 -271h-202l176 271h356z" />
    <glyph glyph-name="mu" unicode="&#xb5;" horiz-adv-x="965" 
d="M72 1327h323v-956q0 -142 78 -142q98 0 98 232v866h320v-1327h-305v123q-61 -140 -191 -143v-388h-323v1735z" />
    <glyph glyph-name="paragraph" unicode="&#xb6;" horiz-adv-x="1180" 
d="M672 -221h-244l2 1018q-393 45 -393 403q0 121 45 207q46 88 121 139q74 48 147 62q47 6 95.5 8t123.5 2h598v-260h-114v-1579h-236v1579h-145v-1579z" />
    <glyph glyph-name="periodcentered" unicode="&#xb7;" horiz-adv-x="451" 
d="M377 973v-330h-305v330h305z" />
    <glyph glyph-name="periodcentered" unicode="&#x2219;" horiz-adv-x="451" 
d="M377 973v-330h-305v330h305z" />
    <glyph glyph-name="cedilla" unicode="&#xb8;" horiz-adv-x="682" 
d="M379 12v-125q50 0 98 -34q45 -33 45 -97q0 -75 -61 -133q-64 -55 -150 -55q-156 0 -198 158h149q12 -41 49 -41q29 0 45 16q15 14 15 43q0 37 -21 51q-24 17 -63 17q-15 0 -25 -2v202h117z" />
    <glyph glyph-name="onesuperior" unicode="&#xb9;" horiz-adv-x="502" 
d="M440 1636v-854h-254v457q0 97 -6 117q-7 17 -30 26q-22 9 -109 9h-29v110q183 35 279 135h149z" />
    <glyph glyph-name="degree" unicode="&#xba;" horiz-adv-x="711" 
d="M37 1315q0 142 94 233q95 92 223 92q133 0 228 -92q92 -95 92 -225q0 -133 -92 -225q-94 -94 -226 -94q-141 0 -229 98q-90 96 -90 213zM203 1325q0 -69 45 -111q46 -45 106 -45q62 0 109 45q45 45 45 109q0 62 -45.5 107t-108.5 45q-65 0 -108 -48q-43 -44 -43 -102z
" />
    <glyph glyph-name="guillemotright" unicode="&#xbb;" horiz-adv-x="760" 
d="M639 1237l86 -543l-86 -569h-236l84 569l-84 543h236zM272 1237l86 -543l-86 -569h-235l84 569l-84 543h235z" />
    <glyph glyph-name="onequarter" unicode="&#xbc;" horiz-adv-x="1278" 
d="M1001 1651l-632 -1682h-154l635 1682h151zM440 1636v-854h-254v457q0 97 -6 117q-7 17 -30 26q-22 9 -109 9h-29v110q183 35 279 135h149zM1182 854v-551h71v-156h-71v-147h-256v147h-297v152l219 555h334zM926 303v336l-125 -336h125z" />
    <glyph glyph-name="onehalf" unicode="&#xbd;" horiz-adv-x="1321" 
d="M1001 1651l-632 -1682h-154l635 1682h151zM440 1636v-854h-254v457q0 97 -6 117q-7 17 -30 26q-22 9 -109 9h-29v110q183 35 279 135h149zM1262 154v-154h-555v129q145 199 208.5 290.5t83.5 127.5q43 76 43 119q0 59 -53 59q-30 0 -41 -14q-12 -16 -12 -70v-86h-229v35
q0 87 18 143q17 54 84 94q65 41 170 41q152 0 227 -63q78 -66 78 -164q0 -72 -43 -152q-52 -91 -176 -247l-70 -88h267z" />
    <glyph glyph-name="threequarters" unicode="&#xbe;" horiz-adv-x="1415" 
d="M532 1264q47 -17 72 -54q29 -40 29 -170q0 -169 -82.5 -221.5t-214.5 -52.5q-119 0 -189 35q-66 31 -90 86q-20 50 -20 170v55h254v-127q0 -54 8 -65q6 -13 33 -13t37 19q8 13 8 94v53q0 70 -27 84q-29 16 -125 19v133q111 0 131 14q21 11 21 72v47q0 45 -10 55
q-13 12 -33 12q-26 0 -35 -12q-8 -11 -8 -59v-60h-254v62q0 124 65 168q66 43 211 43q176 0 242 -60q68 -59 68 -170q0 -41 -17 -90q-15 -43 -74 -67zM1139 1651l-631 -1682h-156l635 1682h152zM1319 854v-551h72v-156h-72v-147h-254v147h-297v152l217 555h334zM1065 303
v336l-127 -336h127z" />
    <glyph glyph-name="questiondown" unicode="&#xbf;" horiz-adv-x="1075" 
d="M586 1100v323h377v-323h-377zM586 328h403q-3 -220 -35 -312q-33 -102 -147 -172q-113 -73 -291 -73q-125 0 -221 41q-92 37 -152 110q-52 66 -80 156q-26 79 -26 258v199q0 133 24 217q25 80 109 143q82 61 197 61q156 0 219 -112v172h377v-445h-367q-3 93 -68 93
q-49 0 -61 -39q-14 -38 -14 -199v-270q0 -89 12 -119.5t49 -30.5q45 0 58.5 39t13.5 184v99z" />
    <glyph glyph-name="Agrave" unicode="&#xc0;" horiz-adv-x="1040" 
d="M811 1620l240 -1620h-430l-21 291h-151l-25 -291h-436l215 1620h608zM588 578q-16 136 -28.5 264.5t-35.5 414.5q-38 -276 -54 -416.5t-26 -262.5h144zM295 1911h248l123 -189h-142z" />
    <glyph glyph-name="Aacute" unicode="&#xc1;" horiz-adv-x="1040" 
d="M811 1620l240 -1620h-430l-21 291h-151l-25 -291h-436l215 1620h608zM588 578q-16 136 -28.5 264.5t-35.5 414.5q-38 -276 -54 -416.5t-26 -262.5h144zM739 1911l-229 -189h-141l123 189h247z" />
    <glyph glyph-name="Acircumflex" unicode="&#xc2;" horiz-adv-x="1040" 
d="M811 1620l240 -1620h-430l-21 291h-151l-25 -291h-436l215 1620h608zM588 578q-16 136 -28.5 264.5t-35.5 414.5q-38 -276 -54 -416.5t-26 -262.5h144zM506 1817l-84 -91h-195l181 195h196l166 -195h-188z" />
    <glyph glyph-name="Atilde" unicode="&#xc3;" horiz-adv-x="1040" 
d="M811 1620l240 -1620h-430l-21 291h-151l-25 -291h-436l215 1620h608zM588 578q-16 136 -28.5 264.5t-35.5 414.5q-38 -276 -54 -416.5t-26 -262.5h144zM803 1858h-4q-31 -70 -78 -99q-42 -26 -78 -26q-53 0 -104 20l-52 21q-48 18 -71 18q-52 0 -82 -70l-109 72
q73 135 170 135q54 0 107 -20l43 -15q55 -18 71 -18q56 0 74 61z" />
    <glyph glyph-name="Adieresis" unicode="&#xc4;" horiz-adv-x="1040" 
d="M811 1620l240 -1620h-430l-21 291h-151l-25 -291h-436l215 1620h608zM588 578q-16 136 -28.5 264.5t-35.5 414.5q-38 -276 -54 -416.5t-26 -262.5h144zM434 1929v-207h-207v207h207zM784 1929v-207h-206v207h206z" />
    <glyph glyph-name="Aring" unicode="&#xc5;" horiz-adv-x="1040" 
d="M811 1620l240 -1620h-430l-21 291h-151l-25 -291h-436l215 1620h608zM588 578q-16 136 -28.5 264.5t-35.5 414.5q-38 -276 -54 -416.5t-26 -262.5h144zM506 2052h4q65 0 115 -47q49 -51 49 -121q0 -66 -49 -117q-51 -49 -117 -49q-68 0 -119 49q-49 49 -49 117
q0 70 49 119t117 49zM506 1950q-25 0 -43 -19q-19 -16 -19 -45q0 -24 19 -43q18 -18 43 -18q27 0 45 18q16 19 16 43q0 29 -16 45q-18 19 -45 19z" />
    <glyph glyph-name="AE" unicode="&#xc6;" horiz-adv-x="1460" 
d="M1405 1618v-324h-285v-307h266v-307h-266v-356h303v-324h-723v291h-241l-70 -291h-401l426 1618h991zM700 1315l-180 -737h180v737z" />
    <glyph glyph-name="Ccedilla" unicode="&#xc7;" horiz-adv-x="1135" 
d="M1067 913h-420v281q0 127 -14 156q-16 28 -60 28q-53 0 -65 -37q-16 -38 -16 -159v-752q0 -117 16 -154q12 -36 61 -36t64 36q14 32 14 168v203h420v-61q0 -250 -35 -357q-36 -103 -158 -184q-119 -80 -299 -80q-184 0 -305 68t-159 186q-39 116 -39 356v474
q0 172 12 262q11 84 72 168q59 83 166 129q103 45 241 45q186 0 307 -72q123 -72 158 -178q39 -104 39 -336v-154zM565 -39l-2 -113q46 0 86 -28q39 -27 39 -84q0 -65 -55 -117q-55 -49 -131 -49q-138 0 -174 139h133q10 -35 41 -35q26 0 39 13q10 10 10 37q0 31 -16 43
q-19 12 -56 12h-18v182h104z" />
    <glyph glyph-name="Egrave" unicode="&#xc8;" horiz-adv-x="852" 
d="M84 1618h702v-324h-282v-307h264v-307h-264v-356h309v-324h-729v1618zM211 1909h248l123 -189h-142z" />
    <glyph glyph-name="Eacute" unicode="&#xc9;" horiz-adv-x="852" 
d="M84 1618h702v-324h-282v-307h264v-307h-264v-356h309v-324h-729v1618zM655 1909l-229 -189h-141l123 189h247z" />
    <glyph glyph-name="Ecircumflex" unicode="&#xca;" horiz-adv-x="852" 
d="M84 1618h702v-324h-282v-307h264v-307h-264v-356h309v-324h-729v1618zM438 1812l-84 -90h-194l180 195h197l165 -195h-188z" />
    <glyph glyph-name="Edieresis" unicode="&#xcb;" horiz-adv-x="852" 
d="M84 1618h702v-324h-282v-307h264v-307h-264v-356h309v-324h-729v1618zM356 1946v-207h-206v207h206zM707 1946v-207h-207v207h207z" />
    <glyph glyph-name="Igrave" unicode="&#xcc;" horiz-adv-x="590" 
d="M504 1620v-1620h-420v1620h420zM66 1921h247l123 -188h-141z" />
    <glyph glyph-name="Iacute" unicode="&#xcd;" horiz-adv-x="590" 
d="M504 1620v-1620h-420v1620h420zM500 1911l-230 -189h-141l123 189h248z" />
    <glyph glyph-name="Icircumflex" unicode="&#xce;" horiz-adv-x="590" 
d="M504 1620v-1620h-420v1620h420zM297 1837l-84 -90h-195l181 195h196l166 -195h-188z" />
    <glyph glyph-name="Idieresis" unicode="&#xcf;" horiz-adv-x="590" 
d="M504 1620v-1620h-420v1620h420zM217 1956v-207h-207v207h207zM567 1956v-207h-207v207h207z" />
    <glyph glyph-name="Eth" unicode="&#xd0;" horiz-adv-x="1145" 
d="M96 809h-82v172h82v639h316q303 0 411 -29q108 -27 164 -92q55 -64 70 -141q14 -74 14 -309v-568q0 -222 -20 -291q-24 -78 -72 -114q-53 -44 -125 -60q-82 -16 -227 -16h-531v809zM516 809v-533q90 0 113 37q12 22 17 69.5t5 129.5v629q0 114 -8 141q-9 31 -33 45
q-22 14 -94 14v-360h68v-172h-68z" />
    <glyph glyph-name="Ntilde" unicode="&#xd1;" horiz-adv-x="1110" 
d="M1024 1620v-1620h-369l-219 735v-735h-352v1620h352l236 -729v729h352zM868 1855h-4q-29 -68 -78 -98q-40 -26 -77 -26q-52 0 -105 20l-51 21q-49 18 -72 18q-51 0 -82 -70l-108 72q73 135 170 135q53 0 106 -20l43 -15q55 -18 72 -18q55 0 74 61z" />
    <glyph glyph-name="Ograve" unicode="&#xd2;" horiz-adv-x="1118" 
d="M1044 672q0 -123 -2 -202t-8 -144q-12 -100 -71 -187q-60 -81 -164 -129q-102 -45 -240 -45q-130 0 -233 43t-166 127q-64 87 -76 187t-12 350v276q0 245 12 346q9 99 72 185q58 82 163 129q102 45 240 45q124 0 234 -41q106 -44 165 -129q65 -85 74 -185
q12 -100 12 -350v-276zM625 1202q0 116 -13 146q-12 30 -51 30q-34 0 -49 -24q-20 -27 -20 -152v-756q0 -142 14 -174q9 -32 51 -32q43 0 55 39q13 35 13 180v743zM319 1944h248l123 -189h-141z" />
    <glyph glyph-name="Oacute" unicode="&#xd3;" horiz-adv-x="1118" 
d="M1044 672q0 -123 -2 -202t-8 -144q-12 -100 -71 -187q-60 -81 -164 -129q-102 -45 -240 -45q-130 0 -233 43t-166 127q-64 87 -76 187t-12 350v276q0 245 12 346q9 99 72 185q58 82 163 129q102 45 240 45q124 0 234 -41q106 -44 165 -129q65 -85 74 -185
q12 -100 12 -350v-276zM625 1202q0 116 -13 146q-12 30 -51 30q-34 0 -49 -24q-20 -27 -20 -152v-756q0 -142 14 -174q9 -32 51 -32q43 0 55 39q13 35 13 180v743zM815 1944l-229 -189h-142l123 189h248z" />
    <glyph glyph-name="Ocircumflex" unicode="&#xd4;" horiz-adv-x="1118" 
d="M1044 672q0 -123 -2 -202t-8 -144q-12 -100 -71 -187q-60 -81 -164 -129q-102 -45 -240 -45q-130 0 -233 43t-166 127q-64 87 -76 187t-12 350v276q0 245 12 346q9 99 72 185q58 82 163 129q102 45 240 45q124 0 234 -41q106 -44 165 -129q65 -85 74 -185
q12 -100 12 -350v-276zM625 1202q0 116 -13 146q-12 30 -51 30q-34 0 -49 -24q-20 -27 -20 -152v-756q0 -142 14 -174q9 -32 51 -32q43 0 55 39q13 35 13 180v743zM573 1827l-84 -90h-194l180 194h197l166 -194h-189z" />
    <glyph glyph-name="Otilde" unicode="&#xd5;" horiz-adv-x="1118" 
d="M1044 672q0 -123 -2 -202t-8 -144q-12 -100 -71 -187q-60 -81 -164 -129q-102 -45 -240 -45q-130 0 -233 43t-166 127q-64 87 -76 187t-12 350v276q0 245 12 346q9 99 72 185q58 82 163 129q102 45 240 45q124 0 234 -41q106 -44 165 -129q65 -85 74 -185
q12 -100 12 -350v-276zM625 1202q0 116 -13 146q-12 30 -51 30q-34 0 -49 -24q-20 -27 -20 -152v-756q0 -142 14 -174q9 -32 51 -32q43 0 55 39q13 35 13 180v743zM848 1890h-4q-32 -71 -78 -98q-43 -27 -78 -27q-48 0 -104 21l-52 20q-47 19 -71 19q-52 0 -82 -70l-109 72
q73 135 170 135q54 0 107 -20l43 -15q55 -18 72 -18q55 0 73 61z" />
    <glyph glyph-name="Odieresis" unicode="&#xd6;" horiz-adv-x="1118" 
d="M1044 672q0 -123 -2 -202t-8 -144q-12 -100 -71 -187q-60 -81 -164 -129q-102 -45 -240 -45q-130 0 -233 43t-166 127q-64 87 -76 187t-12 350v276q0 245 12 346q9 99 72 185q58 82 163 129q102 45 240 45q124 0 234 -41q106 -44 165 -129q65 -85 74 -185
q12 -100 12 -350v-276zM625 1202q0 116 -13 146q-12 30 -51 30q-34 0 -49 -24q-20 -27 -20 -152v-756q0 -142 14 -174q9 -32 51 -32q43 0 55 39q13 35 13 180v743zM492 1970v-207h-207v207h207zM842 1970v-207h-207v207h207z" />
    <glyph glyph-name="multiply" unicode="&#xd7;" horiz-adv-x="1092" 
d="M74 1122l172 172l301 -299l299 299l172 -172l-299 -301l297 -295l-172 -174l-297 297l-297 -295l-172 172l297 295z" />
    <glyph glyph-name="Oslash" unicode="&#xd8;" horiz-adv-x="1118" 
d="M1024 1339q20 -73 20 -391v-276q0 -123 -2 -202t-8 -144q-12 -100 -71 -187q-60 -81 -164 -129q-102 -45 -240 -45q-143 0 -250 49q-100 46 -166 144l-106 -142l-92 70l147 193q-11 36 -15.5 139t-4.5 254v276q0 245 12 346q9 99 72 185q58 82 163 129q102 45 240 45
q140 0 250 -47q100 -46 166 -144l106 140l93 -68zM625 987v215q0 116 -13 146q-12 30 -51 30q-41 0 -53 -32q-16 -37 -16 -144v-389zM492 625v-179q0 -142 14 -174q9 -32 51 -32q43 0 55 39q13 35 13 180v340z" />
    <glyph glyph-name="Ugrave" unicode="&#xd9;" horiz-adv-x="1120" 
d="M1040 1620v-1083q0 -184 -12 -258q-9 -72 -70 -152q-56 -79 -155 -121q-101 -41 -228 -41q-143 0 -256 49q-110 47 -165 125q-57 79 -66 162q-10 95 -10 361v958h420v-1214q0 -109 14 -136q9 -30 45 -30q42 0 51 32q13 37 13 154v1194h419zM301 1911h248l123 -189h-142z
" />
    <glyph glyph-name="Uacute" unicode="&#xda;" horiz-adv-x="1120" 
d="M1040 1620v-1083q0 -184 -12 -258q-9 -72 -70 -152q-56 -79 -155 -121q-101 -41 -228 -41q-143 0 -256 49q-110 47 -165 125q-57 79 -66 162q-10 95 -10 361v958h420v-1214q0 -109 14 -136q9 -30 45 -30q42 0 51 32q13 37 13 154v1194h419zM858 1911l-229 -189h-142
l123 189h248z" />
    <glyph glyph-name="Ucircumflex" unicode="&#xdb;" horiz-adv-x="1120" 
d="M1040 1620v-1083q0 -184 -12 -258q-9 -72 -70 -152q-56 -79 -155 -121q-101 -41 -228 -41q-143 0 -256 49q-110 47 -165 125q-57 79 -66 162q-10 95 -10 361v958h420v-1214q0 -109 14 -136q9 -30 45 -30q42 0 51 32q13 37 13 154v1194h419zM567 1810l-84 -90h-194
l180 195h197l165 -195h-188z" />
    <glyph glyph-name="Udieresis" unicode="&#xdc;" horiz-adv-x="1120" 
d="M1040 1620v-1083q0 -184 -12 -258q-9 -72 -70 -152q-56 -79 -155 -121q-101 -41 -228 -41q-143 0 -256 49q-110 47 -165 125q-57 79 -66 162q-10 95 -10 361v958h420v-1214q0 -109 14 -136q9 -30 45 -30q42 0 51 32q13 37 13 154v1194h419zM498 1929v-207h-207v207h207z
M848 1929v-207h-207v207h207z" />
    <glyph glyph-name="Yacute" unicode="&#xdd;" horiz-adv-x="969" 
d="M981 1620l-307 -1034v-586h-389v586l-297 1034h387q94 -483 102 -639q34 261 117 639h387zM776 1911l-229 -189h-141l122 189h248z" />
    <glyph glyph-name="Thorn" unicode="&#xde;" horiz-adv-x="1028" 
d="M504 1317q177 0 264 -25q86 -24 139 -80q56 -57 70 -122q14 -64 14 -226v-139q0 -144 -28 -217t-111 -117q-87 -41 -236 -41h-112v-350h-420v1620h420v-303zM504 1040v-411h31q59 0 81 28q23 29 23 117v133q0 80 -27 107q-26 26 -108 26z" />
    <glyph glyph-name="germandbls" unicode="&#xdf;" horiz-adv-x="1126" 
d="M901 1024q71 -35 115 -106q43 -74 43 -285v-150q0 -154 -21 -225q-21 -76 -84 -139q-62 -69 -143 -92q-78 -27 -203 -27h-78v244h48q56 0 65 18q12 18 12 141v398q0 70 -14 92q-16 25 -63 31v245q19 0 40 15q21 8 21 80q0 80 -21 116q-21 37 -61 37q-49 0 -63 -33
q-19 -32 -19 -135v-1249h-403v1081q0 240 26 334q28 97 135 167.5t302 70.5q239 0 372 -97q131 -97 131 -270q0 -158 -137 -262z" />
    <glyph glyph-name="agrave" unicode="&#xe0;" horiz-adv-x="1032" 
d="M432 813h-379v88q0 154 37 240q33 80 141 145q111 66 279 66q203 0 309 -72q104 -73 125 -178q21 -108 21 -436v-666h-394v119q-38 -74 -94 -107q-60 -37 -139 -37q-104 0 -195 62q-90 59 -90 260v109q0 147 47 202q49 55 234 125q196 75 213 107q14 25 14 108
q0 106 -14.5 137t-52.5 31q-42 0 -52 -26q-10 -32 -10 -138v-139zM561 631q-97 -72 -112 -119q-17 -48 -17 -137q0 -108 14 -133q16 -31 54 -31q39 0 51 25q10 23 10 122v273zM301 1642h248l123 -188h-142z" />
    <glyph glyph-name="aacute" unicode="&#xe1;" horiz-adv-x="1032" 
d="M432 813h-379v88q0 154 37 240q33 80 141 145q111 66 279 66q203 0 309 -72q104 -73 125 -178q21 -108 21 -436v-666h-394v119q-38 -74 -94 -107q-60 -37 -139 -37q-104 0 -195 62q-90 59 -90 260v109q0 147 47 202q49 55 234 125q196 75 213 107q14 25 14 108
q0 106 -14.5 137t-52.5 31q-42 0 -52 -26q-10 -32 -10 -138v-139zM561 631q-97 -72 -112 -119q-17 -48 -17 -137q0 -108 14 -133q16 -31 54 -31q39 0 51 25q10 23 10 122v273zM756 1642l-230 -188h-141l123 188h248z" />
    <glyph glyph-name="acircumflex" unicode="&#xe2;" horiz-adv-x="1032" 
d="M432 813h-379v88q0 154 37 240q33 80 141 145q111 66 279 66q203 0 309 -72q104 -73 125 -178q21 -108 21 -436v-666h-394v119q-38 -74 -94 -107q-60 -37 -139 -37q-104 0 -195 62q-90 59 -90 260v109q0 147 47 202q49 55 234 125q196 75 213 107q14 25 14 108
q0 106 -14.5 137t-52.5 31q-42 0 -52 -26q-10 -32 -10 -138v-139zM561 631q-97 -72 -112 -119q-17 -48 -17 -137q0 -108 14 -133q16 -31 54 -31q39 0 51 25q10 23 10 122v273zM510 1532l-84 -90h-195l181 194h196l166 -194h-188z" />
    <glyph glyph-name="atilde" unicode="&#xe3;" horiz-adv-x="1032" 
d="M432 813h-379v88q0 154 37 240q33 80 141 145q111 66 279 66q203 0 309 -72q104 -73 125 -178q21 -108 21 -436v-666h-394v119q-38 -74 -94 -107q-60 -37 -139 -37q-104 0 -195 62q-90 59 -90 260v109q0 147 47 202q49 55 234 125q196 75 213 107q14 25 14 108
q0 106 -14.5 137t-52.5 31q-42 0 -52 -26q-10 -32 -10 -138v-139zM561 631q-97 -72 -112 -119q-17 -48 -17 -137q0 -108 14 -133q16 -31 54 -31q39 0 51 25q10 23 10 122v273zM799 1589h-4q-32 -71 -78 -98q-43 -27 -78 -27q-54 0 -104 21l-52 20q-47 19 -71 19
q-52 0 -82 -70l-109 72q73 135 170 135q55 0 107 -21l43 -14q55 -18 71 -18q56 0 74 61z" />
    <glyph glyph-name="adieresis" unicode="&#xe4;" horiz-adv-x="1032" 
d="M432 813h-379v88q0 154 37 240q33 80 141 145q111 66 279 66q203 0 309 -72q104 -73 125 -178q21 -108 21 -436v-666h-394v119q-38 -74 -94 -107q-60 -37 -139 -37q-104 0 -195 62q-90 59 -90 260v109q0 147 47 202q49 55 234 125q196 75 213 107q14 25 14 108
q0 106 -14.5 137t-52.5 31q-42 0 -52 -26q-10 -32 -10 -138v-139zM561 631q-97 -72 -112 -119q-17 -48 -17 -137q0 -108 14 -133q16 -31 54 -31q39 0 51 25q10 23 10 122v273zM428 1675v-207h-207v207h207zM778 1675v-207h-207v207h207z" />
    <glyph glyph-name="aring" unicode="&#xe5;" horiz-adv-x="1032" 
d="M432 813h-379v88q0 154 37 240q33 80 141 145q111 66 279 66q203 0 309 -72q104 -73 125 -178q21 -108 21 -436v-666h-394v119q-38 -74 -94 -107q-60 -37 -139 -37q-104 0 -195 62q-90 59 -90 260v109q0 147 47 202q49 55 234 125q196 75 213 107q14 25 14 108
q0 106 -14.5 137t-52.5 31q-42 0 -52 -26q-10 -32 -10 -138v-139zM561 631q-97 -72 -112 -119q-17 -48 -17 -137q0 -108 14 -133q16 -31 54 -31q39 0 51 25q10 23 10 122v273zM510 1788h4q65 0 115 -47q49 -49 49 -121q0 -68 -49 -117t-117 -49q-70 0 -119 49t-49 117
q0 70 49 119t117 49zM510 1686q-24 0 -43 -19q-18 -15 -18 -45q0 -25 18 -43t43 -18q27 0 45 18q16 19 16 43q0 29 -16 45q-19 19 -45 19z" />
    <glyph glyph-name="ae" unicode="&#xe6;" horiz-adv-x="1542" 
d="M1481 641h-527v-268q0 -106 15 -131q12 -31 55 -31q44 0 59 31q17 28 17 123v190h381v-135q0 -132 -39 -221q-42 -93 -144 -156q-104 -68 -254 -68q-142 0 -237 39q-96 36 -156 115q-57 -79 -131 -115q-73 -39 -168 -39q-111 0 -182 45q-72 47 -92 115q-25 69 -25 225
q0 144 21 193q21 52 84 92q56 35 223 94q81 28 111 47q29 24 40 50q11 28 11 120q0 93 -13 125q-12 35 -45 35q-30 0 -41 -29q-10 -30 -10 -147v-127h-379v98q0 108 17 174q15 66 71 127q54 63 142 101q82 39 217 39q74 0 143 -19q67 -17 131 -53q47 35 109 53q57 19 137 19
q151 0 260 -68q108 -63 156 -168q43 -103 43 -305v-170zM1077 856v121q0 90 -16 117q-16 22 -43 22q-35 0 -47 -26q-17 -32 -17 -113v-121h123zM551 623q-80 -58 -102 -101q-29 -46 -29 -170q0 -76 16 -108q14 -33 58 -33q27 0 43 20q14 21 14 60v119v213z" />
    <glyph glyph-name="ccedilla" unicode="&#xe7;" horiz-adv-x="1014" 
d="M965 825h-381v154q0 82 -13 108q-15 29 -49 29q-35 0 -47 -24.5t-12 -112.5v-627q0 -71 18 -104q19 -37 54 -37q42 0 57 37q12 36 12 139v160h361q0 -157 -11 -240q-12 -79 -67 -162q-60 -84 -148 -127q-94 -43 -225 -43q-170 0 -270 60q-103 59 -142 164
q-43 106 -43 299v376q0 165 35 256q34 86 146 154q110 68 270 68q158 0 268 -68q112 -66 150 -170q37 -103 37 -289zM522 -14l-2 -113q46 0 86 -29q39 -26 39 -84q0 -65 -55 -116q-56 -50 -131 -50q-137 0 -174 140h133q9 -35 41 -35q25 0 39 12q10 10 10 37q0 32 -16 43
q-19 12 -56 12h-18v183h104z" />
    <glyph glyph-name="egrave" unicode="&#xe8;" horiz-adv-x="1047" 
d="M987 641h-524v-289q0 -92 14 -114q11 -27 49 -27q49 0 64 35q14 31 14 133v176h383v-98q0 -128 -14 -191q-15 -65 -74 -139q-58 -76 -143 -113q-90 -39 -221 -39q-124 0 -226 37q-98 38 -151 103q-58 67 -78 141q-21 76 -21 225v387q0 170 47 277q48 100 154 153
q111 54 248 54q168 0 280 -66q109 -65 154 -170t45 -301v-174zM582 856v96q0 105 -11 133q-12 31 -45 31q-44 0 -53 -24q-10 -32 -10 -140v-96h119zM295 1642h248l123 -188h-142z" />
    <glyph glyph-name="eacute" unicode="&#xe9;" horiz-adv-x="1047" 
d="M987 641h-524v-289q0 -92 14 -114q11 -27 49 -27q49 0 64 35q14 31 14 133v176h383v-98q0 -128 -14 -191q-15 -65 -74 -139q-58 -76 -143 -113q-90 -39 -221 -39q-124 0 -226 37q-98 38 -151 103q-58 67 -78 141q-21 76 -21 225v387q0 170 47 277q48 100 154 153
q111 54 248 54q168 0 280 -66q109 -65 154 -170t45 -301v-174zM582 856v96q0 105 -11 133q-12 31 -45 31q-44 0 -53 -24q-10 -32 -10 -140v-96h119zM780 1642l-229 -188h-141l122 188h248z" />
    <glyph glyph-name="ecircumflex" unicode="&#xea;" horiz-adv-x="1047" 
d="M987 641h-524v-289q0 -92 14 -114q11 -27 49 -27q49 0 64 35q14 31 14 133v176h383v-98q0 -128 -14 -191q-15 -65 -74 -139q-58 -76 -143 -113q-90 -39 -221 -39q-124 0 -226 37q-98 38 -151 103q-58 67 -78 141q-21 76 -21 225v387q0 170 47 277q48 100 154 153
q111 54 248 54q168 0 280 -66q109 -65 154 -170t45 -301v-174zM582 856v96q0 105 -11 133q-12 31 -45 31q-44 0 -53 -24q-10 -32 -10 -140v-96h119zM530 1526l-84 -90h-194l180 194h197l166 -194h-189z" />
    <glyph glyph-name="edieresis" unicode="&#xeb;" horiz-adv-x="1047" 
d="M987 641h-524v-289q0 -92 14 -114q11 -27 49 -27q49 0 64 35q14 31 14 133v176h383v-98q0 -128 -14 -191q-15 -65 -74 -139q-58 -76 -143 -113q-90 -39 -221 -39q-124 0 -226 37q-98 38 -151 103q-58 67 -78 141q-21 76 -21 225v387q0 170 47 277q48 100 154 153
q111 54 248 54q168 0 280 -66q109 -65 154 -170t45 -301v-174zM582 856v96q0 105 -11 133q-12 31 -45 31q-44 0 -53 -24q-10 -32 -10 -140v-96h119zM449 1679v-206h-207v206h207zM799 1679v-206h-207v206h207z" />
    <glyph glyph-name="igrave" unicode="&#xec;" horiz-adv-x="561" 
d="M487 1327v-1327h-415v1327h415zM96 1626h248l123 -188h-141z" />
    <glyph glyph-name="iacute" unicode="&#xed;" horiz-adv-x="561" 
d="M487 1327v-1327h-415v1327h415zM510 1626l-229 -188h-142l123 188h248z" />
    <glyph glyph-name="icircumflex" unicode="&#xee;" horiz-adv-x="561" 
d="M487 1327v-1327h-415v1327h415zM291 1520l-84 -90h-195l181 194h196l166 -194h-188z" />
    <glyph glyph-name="idieresis" unicode="&#xef;" horiz-adv-x="561" 
d="M487 1327v-1327h-415v1327h415zM201 1649v-207h-207v207h207zM551 1649v-207h-207v207h207z" />
    <glyph glyph-name="eth" unicode="&#xf0;" horiz-adv-x="1047" 
d="M369 1620h245q21 -15 52 -41l161 41l29 -90l-113 -33q64 -73 129 -188q61 -112 89 -226q26 -108 26 -309v-301q0 -170 -43 -272q-47 -106 -153 -164q-109 -62 -275 -62q-169 0 -272 58q-109 56 -146 153q-39 96 -39 308v292q0 169 35 271q34 93 123 164q84 69 199 69
q98 0 168 -55q-23 109 -74 203l-193 -54l-30 93l166 45q-44 59 -84 98zM584 907q0 100 -13 123q-11 27 -47 27q-35 0 -47 -31q-14 -28 -14 -106v-570q0 -81 15.5 -110t45.5 -29t45 29q15 25 15 122v545z" />
    <glyph glyph-name="ntilde" unicode="&#xf1;" horiz-adv-x="1071" 
d="M483 1327l-8 -123q43 73 109 110.5t145 37.5q104 0 170 -49q68 -50 86 -123q19 -82 19 -250v-930h-404v920q0 141 -8 165q-9 31 -51 31q-43 0 -54 -35q-12 -33 -12 -184v-897h-403v1327h411zM821 1575h-4q-30 -70 -78 -98q-40 -27 -77 -27q-52 0 -105 20l-51 21
q-49 18 -72 18q-51 0 -82 -69l-108 71q73 136 170 136q50 0 106 -21l43 -14q54 -19 72 -19q54 0 74 62z" />
    <glyph glyph-name="ograve" unicode="&#xf2;" horiz-adv-x="1047" 
d="M985 860v-323q0 -179 -18 -263q-17 -84 -76 -155q-59 -75 -152 -109q-97 -35 -213 -35q-129 0 -227 31q-91 28 -143.5 87.5t-73.5 146.5q-23 90 -23 252v339q0 183 41 289q40 104 143.5 168t266.5 64q130 0 233 -41q97 -40 152 -107q49 -60 72 -133q18 -70 18 -211z
M582 961q0 99 -11 129q-12 26 -47 26q-37 0 -49 -26q-12 -28 -12 -129v-599q0 -95 12 -122q12 -29 47 -29q38 0 49 27q11 25 11 110v613zM315 1642h248l123 -188h-141z" />
    <glyph glyph-name="oacute" unicode="&#xf3;" horiz-adv-x="1047" 
d="M985 860v-323q0 -179 -18 -263q-17 -84 -76 -155q-59 -75 -152 -109q-97 -35 -213 -35q-129 0 -227 31q-91 28 -143.5 87.5t-73.5 146.5q-23 90 -23 252v339q0 183 41 289q40 104 143.5 168t266.5 64q130 0 233 -41q97 -40 152 -107q49 -60 72 -133q18 -70 18 -211z
M582 961q0 99 -11 129q-12 26 -47 26q-37 0 -49 -26q-12 -28 -12 -129v-599q0 -95 12 -122q12 -29 47 -29q38 0 49 27q11 25 11 110v613zM760 1642l-230 -188h-141l123 188h248z" />
    <glyph glyph-name="ocircumflex" unicode="&#xf4;" horiz-adv-x="1047" 
d="M985 860v-323q0 -179 -18 -263q-17 -84 -76 -155q-59 -75 -152 -109q-97 -35 -213 -35q-129 0 -227 31q-91 28 -143.5 87.5t-73.5 146.5q-23 90 -23 252v339q0 183 41 289q40 104 143.5 168t266.5 64q130 0 233 -41q97 -40 152 -107q49 -60 72 -133q18 -70 18 -211z
M582 961q0 99 -11 129q-12 26 -47 26q-37 0 -49 -26q-12 -28 -12 -129v-599q0 -95 12 -122q12 -29 47 -29q38 0 49 27q11 25 11 110v613zM520 1524l-84 -90h-194l180 194h196l166 -194h-188z" />
    <glyph glyph-name="otilde" unicode="&#xf5;" horiz-adv-x="1047" 
d="M985 860v-323q0 -179 -18 -263q-17 -84 -76 -155q-59 -75 -152 -109q-97 -35 -213 -35q-129 0 -227 31q-91 28 -143.5 87.5t-73.5 146.5q-23 90 -23 252v339q0 183 41 289q40 104 143.5 168t266.5 64q130 0 233 -41q97 -40 152 -107q49 -60 72 -133q18 -70 18 -211z
M582 961q0 99 -11 129q-12 26 -47 26q-37 0 -49 -26q-12 -28 -12 -129v-599q0 -95 12 -122q12 -29 47 -29q38 0 49 27q11 25 11 110v613zM813 1589h-4q-32 -71 -78 -98q-43 -27 -78 -27q-52 0 -104 21l-51 20q-48 19 -72 19q-51 0 -82 -70l-108 72q73 135 170 135
q54 0 106 -21l43 -14q55 -18 72 -18q55 0 73 61z" />
    <glyph glyph-name="odieresis" unicode="&#xf6;" horiz-adv-x="1047" 
d="M985 860v-323q0 -179 -18 -263q-17 -84 -76 -155q-59 -75 -152 -109q-97 -35 -213 -35q-129 0 -227 31q-91 28 -143.5 87.5t-73.5 146.5q-23 90 -23 252v339q0 183 41 289q40 104 143.5 168t266.5 64q130 0 233 -41q97 -40 152 -107q49 -60 72 -133q18 -70 18 -211z
M582 961q0 99 -11 129q-12 26 -47 26q-37 0 -49 -26q-12 -28 -12 -129v-599q0 -95 12 -122q12 -29 47 -29q38 0 49 27q11 25 11 110v613zM438 1657v-207h-207v207h207zM788 1657v-207h-206v207h206z" />
    <glyph glyph-name="divide" unicode="&#xf7;" horiz-adv-x="1092" 
d="M406 1145q0 58 39.5 97.5t97.5 39.5q57 0 98 -41t41 -96q0 -59 -41 -98q-41 -41 -98 -41q-59 0 -99 43q-38 38 -38 96zM66 928h962v-236h-962v236zM406 475q0 63 40 105q39 38 99 38q56 0 98 -38q41 -41 41 -101q0 -57 -41 -98t-98 -41q-61 0 -101 43q-38 39 -38 92z" />
    <glyph glyph-name="oslash" unicode="&#xf8;" horiz-adv-x="1047" 
d="M911 1182q37 -47 58 -115q16 -69 16 -207v-323q0 -179 -18 -263q-17 -84 -76 -155q-59 -75 -152 -109q-97 -35 -213 -35q-106 0 -196 23q-87 22 -137 63l-31 -47l-80 52l45 67q-38 64 -51 127q-17 80 -17 232v339q0 183 41 289q40 104 143.5 168t266.5 64q105 0 188 -27
q82 -23 148 -74l41 62l76 -51zM582 836v125q0 99 -11 129q-12 26 -47 26q-37 0 -49 -26q-12 -28 -12 -129v-306zM463 481v-119q0 -95 12 -122q12 -29 47 -29q38 0 49 27q11 25 11 110v314z" />
    <glyph glyph-name="ugrave" unicode="&#xf9;" horiz-adv-x="1069" 
d="M997 1327v-1327h-411l8 111q-40 -66 -105 -101q-64 -35 -141 -35q-92 0 -151 33q-64 38 -88 84q-29 53 -35 113q-8 49 -8 227v895h403v-903q0 -154 10 -184q9 -29 51 -29q47 0 56 31q8 24 8 192v893h403zM303 1618h248l123 -188h-142z" />
    <glyph glyph-name="uacute" unicode="&#xfa;" horiz-adv-x="1069" 
d="M997 1327v-1327h-411l8 111q-40 -66 -105 -101q-64 -35 -141 -35q-92 0 -151 33q-64 38 -88 84q-29 53 -35 113q-8 49 -8 227v895h403v-903q0 -154 10 -184q9 -29 51 -29q47 0 56 31q8 24 8 192v893h403zM829 1618l-229 -188h-141l123 188h247z" />
    <glyph glyph-name="ucircumflex" unicode="&#xfb;" horiz-adv-x="1069" 
d="M997 1327v-1327h-411l8 111q-40 -66 -105 -101q-64 -35 -141 -35q-92 0 -151 33q-64 38 -88 84q-29 53 -35 113q-8 49 -8 227v895h403v-903q0 -154 10 -184q9 -29 51 -29q47 0 56 31q8 24 8 192v893h403zM535 1520l-84 -90h-195l180 194h197l166 -194h-189z" />
    <glyph glyph-name="udieresis" unicode="&#xfc;" horiz-adv-x="1069" 
d="M997 1327v-1327h-411l8 111q-40 -66 -105 -101q-64 -35 -141 -35q-92 0 -151 33q-64 38 -88 84q-29 53 -35 113q-8 49 -8 227v895h403v-903q0 -154 10 -184q9 -29 51 -29q47 0 56 31q8 24 8 192v893h403zM465 1638v-206h-207v206h207zM815 1638v-206h-207v206h207z" />
    <glyph glyph-name="yacute" unicode="&#xfd;" horiz-adv-x="918" 
d="M918 1327l-115 -960q-25 -200 -45 -312q-23 -85 -64.5 -137.5t-118.5 -77.5q-33 -12 -96 -19t-147 -7h-246v213q89 0 121 10q26 9 26 41q0 16 -24 139l-221 1110h366l133 -895l64 895h367zM745 1618l-229 -188h-141l123 188h247z" />
    <glyph glyph-name="thorn" unicode="&#xfe;" horiz-adv-x="1063" 
d="M475 1620v-410q108 142 262 142q95 0 162 -52q71 -51 86 -116q16 -69 16 -223v-560q0 -184 -20 -258q-20 -72 -88 -120q-70 -48 -162 -48q-146 0 -256 140v-303h-403v1808h403zM598 940q0 127 -8 150q-9 26 -51 26q-39 0 -52 -31q-12 -27 -12 -145v-549q0 -122 12 -149
q13 -31 54 -31q40 0 49 29q8 24 8 133v567z" />
    <glyph glyph-name="ydieresis" unicode="&#xff;" horiz-adv-x="918" 
d="M918 1327l-115 -960q-25 -200 -45 -312q-23 -85 -64.5 -137.5t-118.5 -77.5q-33 -12 -96 -19t-147 -7h-246v213q89 0 121 10q26 9 26 41q0 16 -24 139l-221 1110h366l133 -895l64 895h367zM393 1647v-207h-207v207h207zM743 1647v-207h-206v207h206z" />
    <glyph glyph-name="aahoa" unicode="&#x102;" horiz-adv-x="1040" 
d="M811 1620l240 -1620h-430l-21 291h-151l-25 -291h-436l215 1620h608zM588 578q-16 136 -28.5 264.5t-35.5 414.5q-38 -276 -54 -416.5t-26 -262.5h144zM608 1919l131 2q-3 -95 -59 -149q-62 -56 -162 -56q-106 0 -162 56q-58 53 -61 147h135q9 -94 90 -94q79 0 88 94z
" />
    <glyph glyph-name="aath" unicode="&#x103;" horiz-adv-x="1032" 
d="M432 813h-379v88q0 154 37 240q33 80 141 145q111 66 279 66q203 0 309 -72q104 -73 125 -178q21 -108 21 -436v-666h-394v119q-38 -74 -94 -107q-60 -37 -139 -37q-104 0 -195 62q-90 59 -90 260v109q0 147 47 202q49 55 234 125q196 75 213 107q14 25 14 108
q0 106 -14.5 137t-52.5 31q-42 0 -52 -26q-10 -32 -10 -138v-139zM561 631q-97 -72 -112 -119q-17 -48 -17 -137q0 -108 14 -133q16 -31 54 -31q39 0 51 25q10 23 10 122v273zM612 1634l131 2q-3 -93 -59 -149q-61 -55 -162 -55q-107 0 -162 55q-58 57 -61 147h135
q9 -94 90 -94q79 0 88 94z" />
    <glyph glyph-name="dhoa" unicode="&#x110;" horiz-adv-x="1145" 
d="M96 809h-82v172h82v639h316q303 0 411 -29q108 -27 164 -92q55 -64 70 -141q14 -74 14 -309v-568q0 -222 -20 -291q-24 -78 -72 -114q-53 -44 -125 -60q-82 -16 -227 -16h-531v809zM516 809v-533q90 0 113 37q12 22 17 69.5t5 129.5v629q0 114 -8 141q-9 31 -33 45
q-22 14 -94 14v-360h68v-172h-68z" />
    <glyph glyph-name="dth" unicode="&#x111;" horiz-adv-x="1065" 
d="M991 1708v-174h86v-107h-86v-1454h-403v97q-61 -61 -123 -90q-63 -31 -133 -31q-96 0 -164 51q-70 49 -88 113q-21 64 -21 213v620q0 152 21 217q17 62 90 113q70 49 166 49q74 0 137 -29q59 -25 115 -79v210h-314v107h314v174h403zM588 983q0 75 -13 98q-15 25 -51 25
q-35 0 -47 -23q-14 -20 -14 -100v-651q0 -79 12 -105t47 -26q39 0 51 28q15 26 15 140v614z" />
    <glyph glyph-name="dth" unicode="&#x20ab;" horiz-adv-x="1065" 
d="M991 1708v-174h86v-107h-86v-1454h-403v97q-61 -61 -123 -90q-63 -31 -133 -31q-96 0 -164 51q-70 49 -88 113q-21 64 -21 213v620q0 152 21 217q17 62 90 113q70 49 166 49q74 0 137 -29q59 -25 115 -79v210h-314v107h314v174h403zM588 983q0 75 -13 98q-15 25 -51 25
q-35 0 -47 -23q-14 -20 -14 -100v-651q0 -79 12 -105t47 -26q39 0 51 28q15 26 15 140v614z" />
    <glyph glyph-name="ihoanga" unicode="&#x128;" horiz-adv-x="590" 
d="M504 1620v-1620h-420v1620h420zM584 1858h-4q-30 -69 -78 -99q-42 -26 -78 -26q-52 0 -105 20l-51 21q-48 18 -71 18q-52 0 -82 -70l-109 72q73 135 170 135q54 0 107 -20l43 -15q54 -18 71 -18q56 0 74 61z" />
    <glyph glyph-name="ithnga" unicode="&#x129;" horiz-adv-x="561" 
d="M487 1327v-1327h-415v1327h415zM563 1563h-4q-29 -69 -78 -99q-40 -26 -78 -26q-51 0 -104 20l-51 21q-49 18 -72 18q-51 0 -82 -70l-108 72q73 135 170 135q53 0 106 -20l43 -15q55 -18 72 -18q54 0 74 61z" />
    <glyph glyph-name="OE" unicode="&#x152;" horiz-adv-x="1409" 
d="M1339 1618v-324h-284v-307h270v-307h-270v-356h317v-324h-633q-147 -16 -188 -16q-131 0 -236 44.5t-157 114.5q-56 75 -70 146q-16 78 -16 239v529q0 91 4 161.5t10 102.5q16 88 72 158q61 74 157 114q98 43 242 43q85 0 186 -18h596zM635 1110q0 57 -2 74q-2 30 -2 61
q0 117 -70 117q-42 0 -53 -27q-14 -25 -14 -92l-2 -74v-649q0 -184 12 -225q9 -39 55 -39t62 43q14 41 14 203v608z" />
    <glyph glyph-name="oe" unicode="&#x153;" horiz-adv-x="1567" 
d="M1505 639h-520v-297q0 -84 14 -106q13 -25 48 -25q43 0 61 43q16 43 16 135v166h381v-131q0 -135 -41.5 -225t-150.5 -156q-109 -68 -258 -68q-68 0 -148 17q-73 16 -125 47q-50 -31 -118 -47q-73 -17 -140 -17q-133 0 -233 43q-97 42 -150 111q-52 64 -67 133
q-15 64 -15 234v288q0 103 7.5 183.5t21.5 128.5q27 94 139 176q112 80 283 80q80 0 143 -21q73 -22 129 -59q50 37 117 59q60 21 143 21q141 0 265 -68q122 -67 161 -176q37 -107 37 -277v-192zM582 926q0 128 -11.5 159t-50.5 31q-33 0 -45 -29q-12 -27 -12 -122v-578
q0 -122 9.5 -149t47.5 -27q37 0 49 29q13 26 13 133v553zM1102 854v141q0 87 -19 103q-18 18 -41 18q-31 0 -45 -22q-12 -22 -12 -97v-143h117z" />
    <glyph glyph-name="Scaron" unicode="&#x160;" horiz-adv-x="1059" 
d="M977 1128h-391v121q0 84 -17 107q-16 22 -49 22q-39 0 -57 -30q-21 -31 -21 -95q0 -77 23 -120.5t119 -100.5q281 -166 354 -272q72 -110 72 -346q0 -171 -39 -254q-40 -82 -158 -137q-113 -58 -268 -58q-166 0 -289 66q-121 65 -158 162q-37 103 -37 280v107h392v-197
q0 -87 16 -117q14 -26 59 -26q44 0 64 32q18 34 18 99q0 144 -39 186q-37 44 -196 148q-154 101 -207 151q-50 44 -84.5 128.5t-34.5 213.5q0 183 47 272q46 87 154 136q113 47 256 47q53 0 102.5 -6t96.5 -19t81 -29q114 -51 152 -133q37 -78 37 -272zM535 1855l77 91h189
l-166 -195h-197l-180 195h195z" />
    <glyph glyph-name="scaron" unicode="&#x161;" horiz-adv-x="965" 
d="M897 903h-358v72q0 90 -11 117q-9 24 -53 24q-33 0 -49 -22q-18 -22 -18 -68q0 -58 9.5 -88.5t51.5 -63.5q49 -40 172 -100q179 -87 231 -162q56 -77 56 -221q0 -156 -41 -244q-42 -80 -142 -127q-97 -45 -237 -45q-154 0 -262 50q-112 45 -152 129q-41 87 -41 247v64
h359v-84q0 -108 14 -139q12 -31 51 -31q42 0 62 22q16 24 16 91q0 93 -23 118q-20 24 -233 142q-94 54 -144.5 97t-72.5 85q-39 79 -39 192q0 159 41 236q44 77 143 117q107 41 234 41q131 0 223 -33q92 -35 143 -90q51 -57 60 -103q10 -50 10 -145v-78zM477 1548l78 90h188
l-165 -194h-197l-180 194h194z" />
    <glyph glyph-name="uhoanga" unicode="&#x168;" horiz-adv-x="1120" 
d="M1040 1620v-1083q0 -184 -12 -258q-9 -72 -70 -152q-56 -79 -155 -121q-101 -41 -228 -41q-143 0 -256 49q-110 47 -165 125q-57 79 -66 162q-10 95 -10 361v958h420v-1214q0 -109 14 -136q9 -30 45 -30q42 0 51 32q13 37 13 154v1194h419zM850 1858h-4q-31 -70 -78 -99
q-42 -26 -78 -26q-51 0 -104 20l-51 21q-49 18 -72 18q-52 0 -82 -70l-109 72q75 135 170 135q54 0 107 -20l43 -15q55 -18 72 -18q55 0 73 61z" />
    <glyph glyph-name="uthnga" unicode="&#x169;" horiz-adv-x="1069" 
d="M997 1327v-1327h-411l8 111q-40 -66 -105 -101q-64 -35 -141 -35q-92 0 -151 33q-64 38 -88 84q-29 53 -35 113q-8 49 -8 227v895h403v-903q0 -154 10 -184q9 -29 51 -29q47 0 56 31q8 24 8 192v893h403zM821 1565h-4q-29 -69 -78 -99q-40 -26 -77 -26q-52 0 -105 20
l-51 21q-49 18 -72 18q-51 0 -82 -69l-108 71q73 135 170 135q53 0 106 -20l43 -14q54 -19 72 -19q54 0 74 62z" />
    <glyph glyph-name="florin" unicode="&#x192;" horiz-adv-x="907" 
d="M907 1651l-43 -213q-49 0 -69 -4q-11 -2 -21 -45q-1 -2 -8 -41l-68 -344h148l-47 -242h-148l-133 -674q-35 -188 -108 -254q-70 -63 -277 -63h-182l43 213q60 0 72 10q8 5 20 74l139 694h-139l45 244h145l62 311q32 178 76 233q38 51 92 76q55 25 188 25h213z" />
    <glyph glyph-name="ochoa" unicode="&#x1a0;" horiz-adv-x="1229" 
d="M1044 672l3 2q0 -223 -11 -346q-12 -102 -71 -187q-60 -81 -164 -129q-102 -45 -240 -45q-130 0 -233 43t-166 127q-64 87 -76 187t-12 350v276q0 245 12 346q9 99 72 185q58 82 164 129q100 45 239 45q122 0 242 -41q104 -44 164 -127q28 -32 47 -76t22 -80
q33 0 43.5 62.5t10.5 248.5h139q0 -204 -48.5 -310.5t-136.5 -106.5v-277v-276zM627 1204q0 116 -13 146q-12 30 -51 30q-34 0 -49 -24q-20 -27 -20 -152v-755q0 -70 4 -115t10 -60q9 -32 51 -32q43 0 55 39q13 35 13 180v743z" />
    <glyph glyph-name="octh" unicode="&#x1a1;" horiz-adv-x="1167" 
d="M985 860l-2 -323q0 -179 -18 -263q-17 -84 -76 -155q-59 -75 -152 -109q-97 -35 -213 -35q-129 0 -227 31q-91 28 -143.5 87.5t-73.5 146.5q-23 90 -23 252v339q0 183 41 289q40 104 143.5 168t266.5 64q136 0 240 -41q97 -40 151 -107q49 -60 72 -133q4 -24 4 -33
q24 0 38 28.5t20.5 97.5t6.5 188h138q0 -138 -22.5 -229.5t-65.5 -138t-107 -48.5q2 -16 2 -76zM580 961q0 94 -11 129q-12 26 -47 26q-37 0 -49 -26q-12 -28 -12 -129v-599q0 -95 12 -122q12 -29 47 -29q38 0 49 27q11 29 11 110v613z" />
    <glyph glyph-name="uchoa" unicode="&#x1af;" horiz-adv-x="1188" 
d="M1040 1620v-315q99 0 99 315h139q0 -143 -22 -234.5t-74.5 -138.5t-141.5 -47v-663q0 -184 -12 -258q-9 -72 -70 -152q-56 -79 -155 -121q-101 -41 -228 -41q-143 0 -256 49q-110 47 -165 125q-57 79 -66 162q-10 95 -10 361v958h420v-1214q0 -109 14 -136q9 -30 45 -30
q42 0 51 32q13 37 13 154v1194h419z" />
    <glyph glyph-name="ucth" unicode="&#x1b0;" horiz-adv-x="1167" 
d="M997 1327v-317q99 0 99 317h139q0 -143 -22 -234.5t-74.5 -138.5t-141.5 -47v-907h-411l8 111q-40 -66 -105 -101q-64 -35 -141 -35q-92 0 -151 33q-64 38 -88 84q-29 53 -35 113q-8 49 -8 227v895h403v-903q0 -154 10 -184q9 -29 51 -29q47 0 56 31q8 24 8 192v893h403z
" />
    <glyph glyph-name="circumflex" unicode="&#x2c6;" horiz-adv-x="682" 
d="M350 1632l-119 -131h-280l258 281h283l239 -281h-270z" />
    <glyph glyph-name="tilde" unicode="&#x2dc;" horiz-adv-x="682" 
d="M764 1692q-46 -100 -115 -142q-68 -41 -117 -41q-70 0 -153 33l-74 31q-76 29 -106 29q-75 0 -121 -101l-158 105q54 97 116 145.5t132 48.5q76 0 156 -33l61 -22q81 -29 107 -29q83 0 110 90z" />
    <glyph glyph-name="abhuyenth" unicode="&#x300;" 
d="M-526 1835h247l123 -188h-141z" />
    <glyph glyph-name="absacth" unicode="&#x301;" 
d="M41 1784l-229 -189h-142l123 189h248z" />
    <glyph glyph-name="absacth" unicode="&#x302;" 
d="M41 1784l-229 -189h-142l123 189h248z" />
    <glyph glyph-name="abngath" unicode="&#x303;" 
d="M-233 1853h-5q-29 -67 -77 -98q-42 -26 -78 -26q-52 0 -105 20l-51 20q-48 19 -72 19q-51 0 -81 -70l-109 72q73 135 170 135q55 0 106 -20l43 -15q55 -18 72 -18q56 0 74 61z" />
    <glyph glyph-name="abhoith" unicode="&#x309;" 
d="M-215 1765h-113q0 48 11.5 70.5t35.5 44.5q33 16 109 16q47 -9 82 -41q24 -32 24 -71q0 -56 -20 -76q-22 -27 -64.5 -53.5t-52.5 -42.5v-17h-114q0 44 21.5 75t76.5 56q33 13 33 62v16q0 25 -2 29q-3 6 -13 6q-9 0 -12 -8q-2 -6 -2 -43v-23z" />
    <glyph glyph-name="ananghoa" unicode="&#x323;" 
d="M-410 -143v-148h-290v148h290z" />
    <glyph glyph-name="ananghoa" unicode="&#xf02b;" 
d="M-410 -143v-148h-290v148h290z" />
    <glyph glyph-name="ananghoa" unicode="&#xf029;" 
d="M-410 -143v-148h-290v148h290z" />
    <glyph glyph-name="ananghoa" unicode="&#xf022;" 
d="M-410 -143v-148h-290v148h290z" />
    <glyph glyph-name="ananghoa" unicode="&#xf021;" 
d="M-410 -143v-148h-290v148h290z" />
    <glyph glyph-name="ananghoa" unicode="&#xf020;" 
d="M-410 -143v-148h-290v148h290z" />
    <glyph glyph-name="ananghoa" unicode="&#xf01f;" 
d="M-410 -143v-148h-290v148h290z" />
    <glyph glyph-name="ananghoa" unicode="&#xf01e;" 
d="M-410 -143v-148h-290v148h290z" />
    <glyph glyph-name="ahuyenhoa" unicode="&#x340;" 
d="M-793 1939h248l123 -188h-141z" />
    <glyph glyph-name="ahuyenhoa" unicode="&#xf00c;" 
d="M-793 1939h248l123 -188h-141z" />
    <glyph glyph-name="asachoa" unicode="&#x341;" 
d="M-317 1929l-230 -188h-141l123 188h248z" />
    <glyph glyph-name="asachoa" unicode="&#xf007;" 
d="M-317 1929l-230 -188h-141l123 188h248z" />
    <glyph glyph-name="angahoa" unicode="&#x342;" 
d="M-274 1876h-5q-30 -70 -77 -98q-41 -27 -78 -27q-53 0 -105 21l-51 20q-49 18 -72 18q-52 0 -81 -69l-109 71q73 136 170 136q55 0 107 -21l43 -14q57 -19 71 -19q56 0 74 62z" />
    <glyph glyph-name="angahoa" unicode="&#xf030;" 
d="M-274 1876h-5q-30 -70 -77 -98q-41 -27 -78 -27q-53 0 -105 21l-51 20q-49 18 -72 18q-52 0 -81 -69l-109 71q73 136 170 136q55 0 107 -21l43 -14q57 -19 71 -19q56 0 74 62z" />
    <glyph glyph-name="angahoa" unicode="&#xf02e;" 
d="M-274 1876h-5q-30 -70 -77 -98q-41 -27 -78 -27q-53 0 -105 21l-51 20q-49 18 -72 18q-52 0 -81 -69l-109 71q73 136 170 136q55 0 107 -21l43 -14q57 -19 71 -19q56 0 74 62z" />
    <glyph glyph-name="angahoa" unicode="&#xf01c;" 
d="M-274 1876h-5q-30 -70 -77 -98q-41 -27 -78 -27q-53 0 -105 21l-51 20q-49 18 -72 18q-52 0 -81 -69l-109 71q73 136 170 136q55 0 107 -21l43 -14q57 -19 71 -19q56 0 74 62z" />
    <glyph glyph-name="angahoa" unicode="&#xf017;" 
d="M-274 1876h-5q-30 -70 -77 -98q-41 -27 -78 -27q-53 0 -105 21l-51 20q-49 18 -72 18q-52 0 -81 -69l-109 71q73 136 170 136q55 0 107 -21l43 -14q57 -19 71 -19q56 0 74 62z" />
    <glyph glyph-name="angahoa" unicode="&#xf016;" 
d="M-274 1876h-5q-30 -70 -77 -98q-41 -27 -78 -27q-53 0 -105 21l-51 20q-49 18 -72 18q-52 0 -81 -69l-109 71q73 136 170 136q55 0 107 -21l43 -14q57 -19 71 -19q56 0 74 62z" />
    <glyph glyph-name="ahoanang" unicode="&#x1ea0;" horiz-adv-x="1040" 
d="M811 1620l240 -1620h-430l-21 291h-151l-25 -291h-436l215 1620h608zM588 578q-16 136 -28.5 264.5t-35.5 414.5q-38 -276 -54 -416.5t-26 -262.5h144zM668 -119v-147h-291v147h291z" />
    <glyph glyph-name="athnang" unicode="&#x1ea1;" horiz-adv-x="1032" 
d="M432 813h-379v88q0 154 37 240q33 80 141 145q111 66 279 66q203 0 309 -72q104 -73 125 -178q21 -108 21 -436v-666h-394v119q-38 -74 -94 -107q-60 -37 -139 -37q-104 0 -195 62q-90 59 -90 260v109q0 147 47 202q49 55 234 125q196 75 213 107q14 25 14 108
q0 106 -14.5 137t-52.5 31q-42 0 -52 -26q-10 -32 -10 -138v-139zM561 631q-97 -72 -112 -119q-17 -48 -17 -137q0 -108 14 -133q16 -31 54 -31q39 0 51 25q10 23 10 122v273zM643 -123v-147h-291v147h291z" />
    <glyph glyph-name="ahoahoi" unicode="&#x1ea2;" horiz-adv-x="1040" 
d="M811 1620l240 -1620h-430l-21 291h-151l-25 -291h-436l215 1620h608zM588 578q-16 136 -28.5 264.5t-35.5 414.5q-38 -276 -54 -416.5t-26 -262.5h144zM535 1892h-113q0 46 11.5 69.5t35.5 45.5q33 16 109 16q48 -10 81 -41q25 -31 25 -71q0 -56 -20 -76q-23 -28 -66 -55
t-51 -41v-17h-115q0 44 21 74.5t77 56.5q33 12 33 62v16q0 25 -2 29q-3 6 -12 6t-12 -8q-2 -6 -2 -43v-23z" />
    <glyph glyph-name="athhoi" unicode="&#x1ea3;" horiz-adv-x="1032" 
d="M432 813h-379v88q0 154 37 240q33 80 141 145q111 66 279 66q203 0 309 -72q104 -73 125 -178q21 -108 21 -436v-666h-394v119q-38 -74 -94 -107q-60 -37 -139 -37q-104 0 -195 62q-90 59 -90 260v109q0 147 47 202q49 55 234 125q196 75 213 107q14 25 14 108
q0 106 -14.5 137t-52.5 31q-42 0 -52 -26q-10 -32 -10 -138v-139zM561 631q-97 -72 -112 -119q-17 -48 -17 -137q0 -108 14 -133q16 -31 54 -31q39 0 51 25q10 23 10 122v273zM571 1624h-112q0 46 11.5 69.5t35.5 45.5q33 16 108 16q49 -10 82 -41q25 -31 25 -72
q0 -55 -21 -75q-16 -21 -41 -38t-46.5 -32.5t-28.5 -26.5v-16h-115q0 43 22.5 74.5t75.5 56.5q33 10 33 62v16q0 25 -2 29q-3 6 -12 6q-10 0 -13 -8q-2 -7 -2 -43v-23z" />
    <glyph glyph-name="abhoasac" unicode="&#x1ea4;" horiz-adv-x="1040" 
d="M811 1620l240 -1620h-430l-21 291h-151l-25 -291h-436l215 1620h608zM588 578q-16 136 -28.5 264.5t-35.5 414.5q-38 -276 -54 -416.5t-26 -262.5h144zM506 1817l-84 -91h-195l181 195h196l166 -195h-188zM1090 2079l-230 -189h-141l123 189h248z" />
    <glyph glyph-name="abthsac" unicode="&#x1ea5;" horiz-adv-x="1032" 
d="M432 813h-379v88q0 154 37 240q33 80 141 145q111 66 279 66q203 0 309 -72q104 -73 125 -178q21 -108 21 -436v-666h-394v119q-38 -74 -94 -107q-60 -37 -139 -37q-104 0 -195 62q-90 59 -90 260v109q0 147 47 202q49 55 234 125q196 75 213 107q14 25 14 108
q0 106 -14.5 137t-52.5 31q-42 0 -52 -26q-10 -32 -10 -138v-139zM561 631q-97 -72 -112 -119q-17 -48 -17 -137q0 -108 14 -133q16 -31 54 -31q39 0 51 25q10 23 10 122v273zM510 1532l-84 -90h-195l181 194h196l166 -194h-188zM1094 1794l-230 -188h-141l123 188h248z" />
    <glyph glyph-name="abhoahuyen" unicode="&#x1ea6;" horiz-adv-x="1040" 
d="M811 1620l240 -1620h-430l-21 291h-151l-25 -291h-436l215 1620h608zM588 578q-16 136 -28.5 264.5t-35.5 414.5q-38 -276 -54 -416.5t-26 -262.5h144zM506 1817l-84 -91h-195l181 195h196l166 -195h-188zM502 2120h248l122 -189h-141z" />
    <glyph glyph-name="abthhuyen" unicode="&#x1ea7;" horiz-adv-x="1032" 
d="M432 813h-379v88q0 154 37 240q33 80 141 145q111 66 279 66q203 0 309 -72q104 -73 125 -178q21 -108 21 -436v-666h-394v119q-38 -74 -94 -107q-60 -37 -139 -37q-104 0 -195 62q-90 59 -90 260v109q0 147 47 202q49 55 234 125q196 75 213 107q14 25 14 108
q0 106 -14.5 137t-52.5 31q-42 0 -52 -26q-10 -32 -10 -138v-139zM561 631q-97 -72 -112 -119q-17 -48 -17 -137q0 -108 14 -133q16 -31 54 -31q39 0 51 25q10 23 10 122v273zM510 1532l-84 -90h-195l181 194h196l166 -194h-188zM506 1835h248l123 -188h-142z" />
    <glyph glyph-name="abhoahoi" unicode="&#x1ea8;" horiz-adv-x="1040" 
d="M811 1620l240 -1620h-430l-21 291h-151l-25 -291h-436l215 1620h608zM588 578q-16 136 -28.5 264.5t-35.5 414.5q-38 -276 -54 -416.5t-26 -262.5h144zM506 1817l-84 -91h-195l181 195h196l166 -195h-188zM823 2060h-112q0 46 11.5 69.5t35.5 45.5q33 16 108 16
q49 -10 82 -41q25 -31 25 -71q0 -56 -21 -76q-22 -27 -64.5 -53.5t-51.5 -42.5v-17h-115q0 44 21.5 75t76.5 56q33 12 33 62v16q0 25 -2 29q-3 6 -12 6q-10 0 -13 -8q-2 -6 -2 -43v-23z" />
    <glyph glyph-name="abthhoi" unicode="&#x1ea9;" horiz-adv-x="1032" 
d="M432 813h-379v88q0 154 37 240q33 80 141 145q111 66 279 66q203 0 309 -72q104 -73 125 -178q21 -108 21 -436v-666h-394v119q-38 -74 -94 -107q-60 -37 -139 -37q-104 0 -195 62q-90 59 -90 260v109q0 147 47 202q49 55 234 125q196 75 213 107q14 25 14 108
q0 106 -14.5 137t-52.5 31q-42 0 -52 -26q-10 -32 -10 -138v-139zM561 631q-97 -72 -112 -119q-17 -48 -17 -137q0 -108 14 -133q16 -31 54 -31q39 0 51 25q10 23 10 122v273zM510 1532l-84 -90h-195l181 194h196l166 -194h-188zM827 1776h-112q0 45 11.5 68.5t35.5 45.5
q33 17 108 17q48 -11 82 -41q25 -33 25 -72q0 -55 -21 -76q-23 -29 -65.5 -55.5t-50.5 -40.5v-16h-115q0 43 22.5 74.5t75.5 56.5q33 10 33 61v17q0 24 -2 28q-3 6 -12 6q-10 0 -13 -8q-2 -6 -2 -43v-22z" />
    <glyph glyph-name="abhoanga" unicode="&#x1eaa;" horiz-adv-x="1040" 
d="M811 1620l240 -1620h-430l-21 291h-151l-25 -291h-436l215 1620h608zM588 578q-16 136 -28.5 264.5t-35.5 414.5q-38 -276 -54 -416.5t-26 -262.5h144zM506 1817l-84 -91h-195l181 195h196l166 -195h-188zM795 2138h-4q-31 -70 -78 -98q-41 -27 -78 -27q-53 0 -105 21
l-51 20q-52 19 -71 19q-52 0 -82 -70l-109 72q73 135 170 135q55 0 107 -21l43 -14q54 -18 71 -18q56 0 74 61z" />
    <glyph glyph-name="abthnga" unicode="&#x1eab;" horiz-adv-x="1032" 
d="M432 813h-379v88q0 154 37 240q33 80 141 145q111 66 279 66q203 0 309 -72q104 -73 125 -178q21 -108 21 -436v-666h-394v119q-38 -74 -94 -107q-60 -37 -139 -37q-104 0 -195 62q-90 59 -90 260v109q0 147 47 202q49 55 234 125q196 75 213 107q14 25 14 108
q0 106 -14.5 137t-52.5 31q-42 0 -52 -26q-10 -32 -10 -138v-139zM561 631q-97 -72 -112 -119q-17 -48 -17 -137q0 -108 14 -133q16 -31 54 -31q39 0 51 25q10 23 10 122v273zM510 1532l-84 -90h-195l181 194h196l166 -194h-188zM799 1853h-4q-31 -69 -78 -98
q-42 -26 -78 -26q-53 0 -104 20l-52 20q-47 19 -71 19q-52 0 -82 -70l-109 72q73 135 170 135q54 0 107 -20l43 -15q55 -18 71 -18q56 0 74 61z" />
    <glyph glyph-name="abhoanang" unicode="&#x1eac;" horiz-adv-x="1040" 
d="M811 1620l240 -1620h-430l-21 291h-151l-25 -291h-436l215 1620h608zM588 578q-16 136 -28.5 264.5t-35.5 414.5q-38 -276 -54 -416.5t-26 -262.5h144zM506 1817l-84 -91h-195l181 195h196l166 -195h-188zM659 -115v-147h-290v147h290z" />
    <glyph glyph-name="abthnang" unicode="&#x1ead;" horiz-adv-x="1032" 
d="M432 813h-379v88q0 154 37 240q33 80 141 145q111 66 279 66q203 0 309 -72q104 -73 125 -178q21 -108 21 -436v-666h-394v119q-38 -74 -94 -107q-60 -37 -139 -37q-104 0 -195 62q-90 59 -90 260v109q0 147 47 202q49 55 234 125q196 75 213 107q14 25 14 108
q0 106 -14.5 137t-52.5 31q-42 0 -52 -26q-10 -32 -10 -138v-139zM561 631q-97 -72 -112 -119q-17 -48 -17 -137q0 -108 14 -133q16 -31 54 -31q39 0 51 25q10 23 10 122v273zM510 1532l-84 -90h-195l181 194h196l166 -194h-188zM643 -123v-147h-291v147h291z" />
    <glyph glyph-name="aahoasac" unicode="&#x1eae;" horiz-adv-x="1040" 
d="M811 1620l240 -1620h-430l-21 291h-151l-25 -291h-436l215 1620h608zM588 578q-16 136 -28.5 264.5t-35.5 414.5q-38 -276 -54 -416.5t-26 -262.5h144zM608 1919l131 2q-3 -95 -59 -149q-62 -56 -162 -56q-106 0 -162 56q-58 53 -61 147h135q9 -94 90 -94q79 0 88 94z
M834 2202l-230 -189h-141l123 189h248z" />
    <glyph glyph-name="aathsac" unicode="&#x1eaf;" horiz-adv-x="1032" 
d="M432 813h-379v88q0 154 37 240q33 80 141 145q111 66 279 66q203 0 309 -72q104 -73 125 -178q21 -108 21 -436v-666h-394v119q-38 -74 -94 -107q-60 -37 -139 -37q-104 0 -195 62q-90 59 -90 260v109q0 147 47 202q49 55 234 125q196 75 213 107q14 25 14 108
q0 106 -14.5 137t-52.5 31q-42 0 -52 -26q-10 -32 -10 -138v-139zM561 631q-97 -72 -112 -119q-17 -48 -17 -137q0 -108 14 -133q16 -31 54 -31q39 0 51 25q10 23 10 122v273zM612 1634l131 2q-3 -93 -59 -149q-61 -55 -162 -55q-107 0 -162 55q-58 57 -61 147h135
q9 -94 90 -94q79 0 88 94zM838 1917l-230 -188h-141l123 188h248z" />
    <glyph glyph-name="aahoahuyen" unicode="&#x1eb0;" horiz-adv-x="1040" 
d="M811 1620l240 -1620h-430l-21 291h-151l-25 -291h-436l215 1620h608zM588 578q-16 136 -28.5 264.5t-35.5 414.5q-38 -276 -54 -416.5t-26 -262.5h144zM608 1919l131 2q-3 -95 -59 -149q-62 -56 -162 -56q-106 0 -162 56q-58 53 -61 147h135q9 -94 90 -94q79 0 88 94z
M246 2191h248l122 -188h-141z" />
    <glyph glyph-name="aathhuyen" unicode="&#x1eb1;" horiz-adv-x="1032" 
d="M432 813h-379v88q0 154 37 240q33 80 141 145q111 66 279 66q203 0 309 -72q104 -73 125 -178q21 -108 21 -436v-666h-394v119q-38 -74 -94 -107q-60 -37 -139 -37q-104 0 -195 62q-90 59 -90 260v109q0 147 47 202q49 55 234 125q196 75 213 107q14 25 14 108
q0 106 -14.5 137t-52.5 31q-42 0 -52 -26q-10 -32 -10 -138v-139zM561 631q-97 -72 -112 -119q-17 -48 -17 -137q0 -108 14 -133q16 -31 54 -31q39 0 51 25q10 23 10 122v273zM612 1634l131 2q-3 -93 -59 -149q-61 -55 -162 -55q-107 0 -162 55q-58 57 -61 147h135
q9 -94 90 -94q79 0 88 94zM250 1907h248l123 -189h-142z" />
    <glyph glyph-name="aahoahoi" unicode="&#x1eb2;" horiz-adv-x="1040" 
d="M811 1620l240 -1620h-430l-21 291h-151l-25 -291h-436l215 1620h608zM588 578q-16 136 -28.5 264.5t-35.5 414.5q-38 -276 -54 -416.5t-26 -262.5h144zM608 1919l131 2q-3 -95 -59 -149q-62 -56 -162 -56q-106 0 -162 56q-58 53 -61 147h135q9 -94 90 -94q79 0 88 94z
M567 2163h-112q0 45 11.5 68.5t35.5 45.5q33 17 108 17q47 -9 82 -41q25 -33 25 -72q0 -55 -21 -76q-23 -29 -65.5 -55.5t-50.5 -40.5v-16h-115q0 43 22.5 74.5t75.5 56.5q33 10 33 61v17q0 24 -2 28q-3 6 -12 6q-10 0 -13 -8q-2 -6 -2 -43v-22z" />
    <glyph glyph-name="aathhoi" unicode="&#x1eb3;" horiz-adv-x="1032" 
d="M432 813h-379v88q0 154 37 240q33 80 141 145q111 66 279 66q203 0 309 -72q104 -73 125 -178q21 -108 21 -436v-666h-394v119q-38 -74 -94 -107q-60 -37 -139 -37q-104 0 -195 62q-90 59 -90 260v109q0 147 47 202q49 55 234 125q196 75 213 107q14 25 14 108
q0 106 -14.5 137t-52.5 31q-42 0 -52 -26q-10 -32 -10 -138v-139zM561 631q-97 -72 -112 -119q-17 -48 -17 -137q0 -108 14 -133q16 -31 54 -31q39 0 51 25q10 23 10 122v273zM612 1634l131 2q-3 -93 -59 -149q-61 -55 -162 -55q-107 0 -162 55q-58 57 -61 147h135
q9 -94 90 -94q79 0 88 94zM571 1878h-112q0 46 11.5 69.5t35.5 45.5q33 16 108 16q49 -10 82 -41q25 -31 25 -72q0 -55 -21 -75q-16 -21 -41 -38t-46.5 -32.5t-28.5 -26.5v-16h-115q0 43 22.5 74.5t75.5 56.5q33 10 33 62v16q0 25 -2 29q-3 6 -12 6q-10 0 -13 -8
q-2 -7 -2 -43v-23z" />
    <glyph glyph-name="aahoanga" unicode="&#x1eb4;" horiz-adv-x="1040" 
d="M811 1620l240 -1620h-430l-21 291h-151l-25 -291h-436l215 1620h608zM588 578q-16 136 -28.5 264.5t-35.5 414.5q-38 -276 -54 -416.5t-26 -262.5h144zM608 1919l131 2q-3 -95 -59 -149q-62 -56 -162 -56q-106 0 -162 56q-58 53 -61 147h135q9 -94 90 -94q79 0 88 94z
M795 2159h-4q-30 -69 -78 -99q-42 -26 -78 -26q-52 0 -105 20l-51 21q-49 18 -71 18q-53 0 -82 -70l-109 72q73 135 170 135q54 0 107 -20l43 -15q54 -18 71 -18q56 0 74 61z" />
    <glyph glyph-name="aathnga" unicode="&#x1eb5;" horiz-adv-x="1032" 
d="M432 813h-379v88q0 154 37 240q33 80 141 145q111 66 279 66q203 0 309 -72q104 -73 125 -178q21 -108 21 -436v-666h-394v119q-38 -74 -94 -107q-60 -37 -139 -37q-104 0 -195 62q-90 59 -90 260v109q0 147 47 202q49 55 234 125q196 75 213 107q14 25 14 108
q0 106 -14.5 137t-52.5 31q-42 0 -52 -26q-10 -32 -10 -138v-139zM561 631q-97 -72 -112 -119q-17 -48 -17 -137q0 -108 14 -133q16 -31 54 -31q39 0 51 25q10 23 10 122v273zM612 1634l131 2q-3 -93 -59 -149q-61 -55 -162 -55q-107 0 -162 55q-58 57 -61 147h135
q9 -94 90 -94q79 0 88 94zM799 1874h-4q-32 -71 -78 -98q-41 -27 -78 -27q-53 0 -104 20l-52 21q-48 18 -71 18q-53 0 -82 -69l-109 71q73 136 170 136q51 0 107 -21l43 -14q54 -19 71 -19q56 0 74 62z" />
    <glyph glyph-name="aahoanang" unicode="&#x1eb6;" horiz-adv-x="1040" 
d="M811 1620l240 -1620h-430l-21 291h-151l-25 -291h-436l215 1620h608zM588 578q-16 136 -28.5 264.5t-35.5 414.5q-38 -276 -54 -416.5t-26 -262.5h144zM608 1919l131 2q-3 -95 -59 -149q-62 -56 -162 -56q-106 0 -162 56q-58 53 -61 147h135q9 -94 90 -94q79 0 88 94z
M670 -125v-147h-291v147h291z" />
    <glyph glyph-name="aathnang" unicode="&#x1eb7;" horiz-adv-x="1032" 
d="M432 813h-379v88q0 154 37 240q33 80 141 145q111 66 279 66q203 0 309 -72q104 -73 125 -178q21 -108 21 -436v-666h-394v119q-38 -74 -94 -107q-60 -37 -139 -37q-104 0 -195 62q-90 59 -90 260v109q0 147 47 202q49 55 234 125q196 75 213 107q14 25 14 108
q0 106 -14.5 137t-52.5 31q-42 0 -52 -26q-10 -32 -10 -138v-139zM561 631q-97 -72 -112 -119q-17 -48 -17 -137q0 -108 14 -133q16 -31 54 -31q39 0 51 25q10 23 10 122v273zM612 1634l131 2q-3 -93 -59 -149q-61 -55 -162 -55q-107 0 -162 55q-58 57 -61 147h135
q9 -94 90 -94q79 0 88 94zM653 -133v-148h-291v148h291z" />
    <glyph glyph-name="ehoanang" unicode="&#x1eb8;" horiz-adv-x="852" 
d="M84 1618h702v-324h-282v-307h264v-307h-264v-356h309v-324h-729v1618zM584 -119v-147h-291v147h291z" />
    <glyph glyph-name="ethnang" unicode="&#x1eb9;" horiz-adv-x="1047" 
d="M987 641h-524v-289q0 -92 14 -114q11 -27 49 -27q49 0 64 35q14 31 14 133v176h383v-98q0 -128 -14 -191q-15 -65 -74 -139q-58 -76 -143 -113q-90 -39 -221 -39q-124 0 -226 37q-98 38 -151 103q-58 67 -78 141q-21 76 -21 225v387q0 170 47 277q48 100 154 153
q111 54 248 54q168 0 280 -66q109 -65 154 -170t45 -301v-174zM582 856v96q0 105 -11 133q-12 31 -45 31q-44 0 -53 -24q-10 -32 -10 -140v-96h119zM678 -133v-148h-291v148h291z" />
    <glyph glyph-name="ehoahoi" unicode="&#x1eba;" horiz-adv-x="852" 
d="M84 1618h702v-324h-282v-307h264v-307h-264v-356h309v-324h-729v1618zM481 1890h-112q0 46 11.5 69.5t35.5 45.5q33 16 108 16q49 -10 82 -41q25 -33 25 -71q0 -56 -21 -76q-22 -27 -64.5 -53.5t-51.5 -42.5v-17h-115q0 44 21.5 75t76.5 56q33 12 33 62v16q0 25 -2 29
q-3 6 -12 6q-10 0 -13 -8q-2 -6 -2 -43v-23z" />
    <glyph glyph-name="ethhoi" unicode="&#x1ebb;" horiz-adv-x="1047" 
d="M987 641h-524v-289q0 -92 14 -114q11 -27 49 -27q49 0 64 35q14 31 14 133v176h383v-98q0 -128 -14 -191q-15 -65 -74 -139q-58 -76 -143 -113q-90 -39 -221 -39q-124 0 -226 37q-98 38 -151 103q-58 67 -78 141q-21 76 -21 225v387q0 170 47 277q48 100 154 153
q111 54 248 54q168 0 280 -66q109 -65 154 -170t45 -301v-174zM582 856v96q0 105 -11 133q-12 31 -45 31q-44 0 -53 -24q-10 -32 -10 -140v-96h119zM565 1624h-112q0 46 11.5 69.5t35.5 45.5q32 16 108 16q49 -10 82 -41q25 -33 25 -72q0 -55 -21 -75q-16 -21 -41 -38
t-46.5 -32.5t-28.5 -26.5v-16h-115q0 43 22.5 74.5t75.5 56.5q33 10 33 62v16q0 25 -2 29q-3 6 -12 6q-10 0 -13 -8q-2 -7 -2 -43v-23z" />
    <glyph glyph-name="ehoanga" unicode="&#x1ebc;" horiz-adv-x="852" 
d="M84 1618h702v-324h-282v-307h264v-307h-264v-356h309v-324h-729v1618zM739 1855h-4q-29 -68 -78 -98q-40 -26 -77 -26q-52 0 -105 20l-51 21q-49 18 -72 18q-51 0 -82 -70l-108 72q73 135 170 135q53 0 106 -20l43 -15q55 -18 72 -18q55 0 74 61z" />
    <glyph glyph-name="ethnga" unicode="&#x1ebd;" horiz-adv-x="1047" 
d="M987 641h-524v-289q0 -92 14 -114q11 -27 49 -27q49 0 64 35q14 31 14 133v176h383v-98q0 -128 -14 -191q-15 -65 -74 -139q-58 -76 -143 -113q-90 -39 -221 -39q-124 0 -226 37q-98 38 -151 103q-58 67 -78 141q-21 76 -21 225v387q0 170 47 277q48 100 154 153
q111 54 248 54q168 0 280 -66q109 -65 154 -170t45 -301v-174zM582 856v96q0 105 -11 133q-12 31 -45 31q-44 0 -53 -24q-10 -32 -10 -140v-96h119zM813 1589h-4q-32 -71 -78 -98q-43 -27 -78 -27q-52 0 -104 21l-51 20q-48 19 -72 19q-51 0 -82 -70l-108 72q73 135 170 135
q54 0 106 -21l43 -14q55 -18 72 -18q55 0 73 61z" />
    <glyph glyph-name="ebhoasac" unicode="&#x1ebe;" horiz-adv-x="852" 
d="M84 1618h702v-324h-282v-307h264v-307h-264v-356h309v-324h-729v1618zM438 1812l-84 -90h-194l180 195h197l165 -195h-188zM1022 2075l-229 -189h-142l123 189h248z" />
    <glyph glyph-name="ebthsac" unicode="&#x1ebf;" horiz-adv-x="1047" 
d="M987 641h-524v-289q0 -92 14 -114q11 -27 49 -27q49 0 64 35q14 31 14 133v176h383v-98q0 -128 -14 -191q-15 -65 -74 -139q-58 -76 -143 -113q-90 -39 -221 -39q-124 0 -226 37q-98 38 -151 103q-58 67 -78 141q-21 76 -21 225v387q0 170 47 277q48 100 154 153
q111 54 248 54q168 0 280 -66q109 -65 154 -170t45 -301v-174zM582 856v96q0 105 -11 133q-12 31 -45 31q-44 0 -53 -24q-10 -32 -10 -140v-96h119zM530 1526l-84 -90h-194l180 194h197l166 -194h-189zM1114 1788l-229 -189h-142l123 189h248z" />
    <glyph glyph-name="ebhoahuyen" unicode="&#x1ec0;" horiz-adv-x="852" 
d="M84 1618h702v-324h-282v-307h264v-307h-264v-356h309v-324h-729v1618zM438 1812l-84 -90h-194l180 195h197l165 -195h-188zM434 2116h248l123 -189h-141z" />
    <glyph glyph-name="ebthhuyen" unicode="&#x1ec1;" horiz-adv-x="1047" 
d="M987 641h-524v-289q0 -92 14 -114q11 -27 49 -27q49 0 64 35q14 31 14 133v176h383v-98q0 -128 -14 -191q-15 -65 -74 -139q-58 -76 -143 -113q-90 -39 -221 -39q-124 0 -226 37q-98 38 -151 103q-58 67 -78 141q-21 76 -21 225v387q0 170 47 277q48 100 154 153
q111 54 248 54q168 0 280 -66q109 -65 154 -170t45 -301v-174zM582 856v96q0 105 -11 133q-12 31 -45 31q-44 0 -53 -24q-10 -32 -10 -140v-96h119zM530 1526l-84 -90h-194l180 194h197l166 -194h-189zM526 1829h248l123 -189h-141z" />
    <glyph glyph-name="ebhoahoi" unicode="&#x1ec2;" horiz-adv-x="852" 
d="M84 1618h702v-324h-282v-307h264v-307h-264v-356h309v-324h-729v1618zM438 1812l-84 -90h-194l180 195h197l165 -195h-188zM756 2056h-113q0 48 11.5 70.5t35.5 44.5q33 16 109 16q47 -9 82 -41q24 -32 24 -71q0 -56 -20 -76q-23 -28 -66 -55t-51 -41v-17h-115
q0 43 22 74.5t77 56.5q32 11 32 62v16q0 25 -2 29q-3 6 -12 6t-12 -8q-2 -6 -2 -43v-23z" />
    <glyph glyph-name="ebthhoi" unicode="&#x1ec3;" horiz-adv-x="1047" 
d="M987 641h-524v-289q0 -92 14 -114q11 -27 49 -27q49 0 64 35q14 31 14 133v176h383v-98q0 -128 -14 -191q-15 -65 -74 -139q-58 -76 -143 -113q-90 -39 -221 -39q-124 0 -226 37q-98 38 -151 103q-58 67 -78 141q-21 76 -21 225v387q0 170 47 277q48 100 154 153
q111 54 248 54q168 0 280 -66q109 -65 154 -170t45 -301v-174zM582 856v96q0 105 -11 133q-12 31 -45 31q-44 0 -53 -24q-10 -32 -10 -140v-96h119zM530 1526l-84 -90h-194l180 194h197l166 -194h-189zM848 1769h-113q0 48 11.5 70.5t35.5 44.5q33 17 109 17q46 -10 82 -41
q24 -34 24 -72q0 -55 -20 -76q-23 -29 -66 -55.5t-51 -40.5v-17h-115q0 44 21.5 75t77.5 57q33 11 33 61v16q0 25 -3 29q-3 6 -12 6t-12 -8q-2 -6 -2 -43v-23z" />
    <glyph glyph-name="ebhoanga" unicode="&#x1ec4;" horiz-adv-x="852" 
d="M84 1618h702v-324h-282v-307h264v-307h-264v-356h309v-324h-729v1618zM438 1812l-84 -90h-194l180 195h197l165 -195h-188zM727 2134h-4q-32 -71 -78 -98q-41 -27 -78 -27q-52 0 -104 21l-51 20q-49 18 -72 18q-51 0 -82 -69l-108 72q73 135 169 135q55 0 107 -21l43 -14
q59 -19 72 -19q55 0 73 62z" />
    <glyph glyph-name="ebthnga" unicode="&#x1ec5;" horiz-adv-x="1047" 
d="M987 641h-524v-289q0 -92 14 -114q11 -27 49 -27q49 0 64 35q14 31 14 133v176h383v-98q0 -128 -14 -191q-15 -65 -74 -139q-58 -76 -143 -113q-90 -39 -221 -39q-124 0 -226 37q-98 38 -151 103q-58 67 -78 141q-21 76 -21 225v387q0 170 47 277q48 100 154 153
q111 54 248 54q168 0 280 -66q109 -65 154 -170t45 -301v-174zM582 856v96q0 105 -11 133q-12 31 -45 31q-44 0 -53 -24q-10 -32 -10 -140v-96h119zM530 1526l-84 -90h-194l180 194h197l166 -194h-189zM819 1847h-4q-30 -70 -78 -98q-42 -27 -78 -27q-48 0 -104 21l-51 20
q-48 19 -72 19q-51 0 -82 -70l-108 72q73 135 170 135q54 0 106 -21l43 -14q55 -18 72 -18q55 0 74 61z" />
    <glyph glyph-name="ebhoanang" unicode="&#x1ec6;" horiz-adv-x="852" 
d="M84 1618h702v-324h-282v-307h264v-307h-264v-356h309v-324h-729v1618zM438 1812l-84 -90h-194l180 195h197l165 -195h-188zM561 -129v-147h-291v147h291z" />
    <glyph glyph-name="ebthnang" unicode="&#x1ec7;" horiz-adv-x="1047" 
d="M987 641h-524v-289q0 -92 14 -114q11 -27 49 -27q49 0 64 35q14 31 14 133v176h383v-98q0 -128 -14 -191q-15 -65 -74 -139q-58 -76 -143 -113q-90 -39 -221 -39q-124 0 -226 37q-98 38 -151 103q-58 67 -78 141q-21 76 -21 225v387q0 170 47 277q48 100 154 153
q111 54 248 54q168 0 280 -66q109 -65 154 -170t45 -301v-174zM582 856v96q0 105 -11 133q-12 31 -45 31q-44 0 -53 -24q-10 -32 -10 -140v-96h119zM530 1526l-84 -90h-194l180 194h197l166 -194h-189zM664 -129v-147h-291v147h291z" />
    <glyph glyph-name="ihoahoi" unicode="&#x1ec8;" horiz-adv-x="590" 
d="M504 1620v-1620h-420v1620h420zM305 1923h-112q0 46 11.5 69.5t35.5 45.5q32 16 108 16q49 -10 82 -41q25 -33 25 -71q0 -56 -21 -76q-16 -21 -41.5 -38.5t-47.5 -33t-28 -25.5v-16h-114q0 43 22.5 74.5t75.5 56.5q33 11 33 62v16q0 25 -2 29q-3 6 -13 6q-9 0 -12 -8
q-2 -7 -2 -43v-23z" />
    <glyph glyph-name="ithhoi" unicode="&#x1ec9;" horiz-adv-x="561" 
d="M487 1327v-1327h-415v1327h415zM315 1608h-112q0 45 11.5 68.5t35.5 45.5q33 17 108 17q47 -9 82 -41q25 -33 25 -72q0 -55 -21 -76q-23 -29 -65.5 -55.5t-50.5 -40.5v-16h-115q0 43 22.5 74.5t75.5 56.5q33 10 33 61v17q0 24 -2 28q-3 6 -12 6q-10 0 -13 -8
q-2 -6 -2 -43v-22z" />
    <glyph glyph-name="ihoanang" unicode="&#x1eca;" horiz-adv-x="590" 
d="M504 1620v-1620h-420v1620h420zM438 -119v-147h-291v147h291z" />
    <glyph glyph-name="ithnang" unicode="&#x1ecb;" horiz-adv-x="561" 
d="M487 1327v-1327h-415v1327h415zM422 1597v-147h-291v147h291zM424 -119v-147h-291v147h291z" />
    <glyph glyph-name="ohoanang" unicode="&#x1ecc;" horiz-adv-x="1118" 
d="M1044 672q0 -123 -2 -202t-8 -144q-12 -100 -71 -187q-60 -81 -164 -129q-102 -45 -240 -45q-130 0 -233 43t-166 127q-64 87 -76 187t-12 350v276q0 245 12 346q9 99 72 185q58 82 163 129q102 45 240 45q124 0 234 -41q106 -44 165 -129q65 -85 74 -185
q12 -100 12 -350v-276zM625 1202q0 116 -13 146q-12 30 -51 30q-34 0 -49 -24q-20 -27 -20 -152v-756q0 -142 14 -174q9 -32 51 -32q43 0 55 39q13 35 13 180v743zM702 -143v-148h-290v148h290z" />
    <glyph glyph-name="othnang" unicode="&#x1ecd;" horiz-adv-x="1047" 
d="M985 860v-323q0 -179 -18 -263q-17 -84 -76 -155q-59 -75 -152 -109q-97 -35 -213 -35q-129 0 -227 31q-91 28 -143.5 87.5t-73.5 146.5q-23 90 -23 252v339q0 183 41 289q40 104 143.5 168t266.5 64q130 0 233 -41q97 -40 152 -107q49 -60 72 -133q18 -70 18 -211z
M582 961q0 99 -11 129q-12 26 -47 26q-37 0 -49 -26q-12 -28 -12 -129v-599q0 -95 12 -122q12 -29 47 -29q38 0 49 27q11 25 11 110v613zM668 -133v-148h-291v148h291z" />
    <glyph glyph-name="ohoahoi" unicode="&#x1ece;" horiz-adv-x="1118" 
d="M1044 672q0 -123 -2 -202t-8 -144q-12 -100 -71 -187q-60 -81 -164 -129q-102 -45 -240 -45q-130 0 -233 43t-166 127q-64 87 -76 187t-12 350v276q0 245 12 346q9 99 72 185q58 82 163 129q102 45 240 45q124 0 234 -41q106 -44 165 -129q65 -85 74 -185
q12 -100 12 -350v-276zM625 1202q0 116 -13 146q-12 30 -51 30q-34 0 -49 -24q-20 -27 -20 -152v-756q0 -142 14 -174q9 -32 51 -32q43 0 55 39q13 35 13 180v743zM590 1925h-113q0 48 11.5 70.5t35.5 44.5q33 16 109 16q47 -9 82 -41q24 -32 24 -71q0 -56 -20 -76
q-22 -27 -64.5 -53.5t-52.5 -42.5v-17h-115q0 43 22 74.5t77 56.5q32 11 32 62v16q0 25 -2 29q-3 6 -12 6t-12 -8q-2 -6 -2 -43v-23z" />
    <glyph glyph-name="othhoi" unicode="&#x1ecf;" horiz-adv-x="1047" 
d="M985 860v-323q0 -179 -18 -263q-17 -84 -76 -155q-59 -75 -152 -109q-97 -35 -213 -35q-129 0 -227 31q-91 28 -143.5 87.5t-73.5 146.5q-23 90 -23 252v339q0 183 41 289q40 104 143.5 168t266.5 64q130 0 233 -41q97 -40 152 -107q49 -60 72 -133q18 -70 18 -211z
M582 961q0 99 -11 129q-12 26 -47 26q-37 0 -49 -26q-12 -28 -12 -129v-599q0 -95 12 -122q12 -29 47 -29q38 0 49 27q11 25 11 110v613zM545 1624h-113q0 48 11.5 70.5t35.5 44.5q33 16 109 16q47 -9 82 -41q24 -32 24 -72q0 -55 -20 -75q-21 -27 -65.5 -56t-51.5 -41v-16
h-115q0 43 22 74.5t77 56.5q32 11 32 62v16q0 25 -2 29q-3 6 -12 6t-12 -8q-2 -7 -2 -43v-23z" />
    <glyph glyph-name="obhoasac" unicode="&#x1ed0;" horiz-adv-x="1118" 
d="M1044 672q0 -123 -2 -202t-8 -144q-12 -100 -71 -187q-60 -81 -164 -129q-102 -45 -240 -45q-130 0 -233 43t-166 127q-64 87 -76 187t-12 350v276q0 245 12 346q9 99 72 185q58 82 163 129q102 45 240 45q124 0 234 -41q106 -44 165 -129q65 -85 74 -185
q12 -100 12 -350v-276zM625 1202q0 116 -13 146q-12 30 -51 30q-34 0 -49 -24q-20 -27 -20 -152v-756q0 -142 14 -174q9 -32 51 -32q43 0 55 39q13 35 13 180v743zM573 1827l-84 -90h-194l180 194h197l166 -194h-189zM1157 2089l-229 -188h-142l123 188h248z" />
    <glyph glyph-name="obthsac" unicode="&#x1ed1;" horiz-adv-x="1047" 
d="M985 860v-323q0 -179 -18 -263q-17 -84 -76 -155q-59 -75 -152 -109q-97 -35 -213 -35q-129 0 -227 31q-91 28 -143.5 87.5t-73.5 146.5q-23 90 -23 252v339q0 183 41 289q40 104 143.5 168t266.5 64q130 0 233 -41q97 -40 152 -107q49 -60 72 -133q18 -70 18 -211z
M582 961q0 99 -11 129q-12 26 -47 26q-37 0 -49 -26q-12 -28 -12 -129v-599q0 -95 12 -122q12 -29 47 -29q38 0 49 27q11 25 11 110v613zM520 1524l-84 -90h-194l180 194h196l166 -194h-188zM1104 1786l-230 -189h-141l123 189h248z" />
    <glyph glyph-name="obhoahuyen" unicode="&#x1ed2;" horiz-adv-x="1118" 
d="M1044 672q0 -123 -2 -202t-8 -144q-12 -100 -71 -187q-60 -81 -164 -129q-102 -45 -240 -45q-130 0 -233 43t-166 127q-64 87 -76 187t-12 350v276q0 245 12 346q9 99 72 185q58 82 163 129q102 45 240 45q124 0 234 -41q106 -44 165 -129q65 -85 74 -185
q12 -100 12 -350v-276zM625 1202q0 116 -13 146q-12 30 -51 30q-34 0 -49 -24q-20 -27 -20 -152v-756q0 -142 14 -174q9 -32 51 -32q43 0 55 39q13 35 13 180v743zM573 1827l-84 -90h-194l180 194h197l166 -194h-189zM569 2130h248l123 -188h-141z" />
    <glyph glyph-name="obthhuyen" unicode="&#x1ed3;" horiz-adv-x="1047" 
d="M985 860v-323q0 -179 -18 -263q-17 -84 -76 -155q-59 -75 -152 -109q-97 -35 -213 -35q-129 0 -227 31q-91 28 -143.5 87.5t-73.5 146.5q-23 90 -23 252v339q0 183 41 289q40 104 143.5 168t266.5 64q130 0 233 -41q97 -40 152 -107q49 -60 72 -133q18 -70 18 -211z
M582 961q0 99 -11 129q-12 26 -47 26q-37 0 -49 -26q-12 -28 -12 -129v-599q0 -95 12 -122q12 -29 47 -29q38 0 49 27q11 25 11 110v613zM520 1524l-84 -90h-194l180 194h196l166 -194h-188zM516 1827h248l123 -189h-142z" />
    <glyph glyph-name="obhoahoi" unicode="&#x1ed4;" horiz-adv-x="1118" 
d="M1044 672q0 -123 -2 -202t-8 -144q-12 -100 -71 -187q-60 -81 -164 -129q-102 -45 -240 -45q-130 0 -233 43t-166 127q-64 87 -76 187t-12 350v276q0 245 12 346q9 99 72 185q58 82 163 129q102 45 240 45q124 0 234 -41q106 -44 165 -129q65 -85 74 -185
q12 -100 12 -350v-276zM625 1202q0 116 -13 146q-12 30 -51 30q-34 0 -49 -24q-20 -27 -20 -152v-756q0 -142 14 -174q9 -32 51 -32q43 0 55 39q13 35 13 180v743zM573 1827l-84 -90h-194l180 194h197l166 -194h-189zM891 2071h-113q0 47 11.5 69.5t35.5 44.5q33 17 109 17
q46 -10 82 -41q24 -34 24 -72q0 -55 -20 -76q-23 -29 -66 -55.5t-51 -40.5v-16h-115q0 43 22 74.5t77 56.5q33 11 33 61v16q0 25 -2 29q-4 6 -13 6t-12 -8q-2 -6 -2 -43v-22z" />
    <glyph glyph-name="obthhoi" unicode="&#x1ed5;" horiz-adv-x="1047" 
d="M985 860v-323q0 -179 -18 -263q-17 -84 -76 -155q-59 -75 -152 -109q-97 -35 -213 -35q-129 0 -227 31q-91 28 -143.5 87.5t-73.5 146.5q-23 90 -23 252v339q0 183 41 289q40 104 143.5 168t266.5 64q130 0 233 -41q97 -40 152 -107q49 -60 72 -133q18 -70 18 -211z
M582 961q0 99 -11 129q-12 26 -47 26q-37 0 -49 -26q-12 -28 -12 -129v-599q0 -95 12 -122q12 -29 47 -29q38 0 49 27q11 25 11 110v613zM520 1524l-84 -90h-194l180 194h196l166 -194h-188zM838 1767h-113q0 46 11.5 69.5t35.5 45.5q33 16 109 16q46 -9 82 -40
q24 -34 24 -72q0 -56 -20 -76q-24 -30 -67 -57t-50 -39v-17h-115q0 44 21.5 75t77.5 57q32 11 32 61v16q0 25 -2 29q-3 6 -12 6t-12 -8q-2 -6 -2 -43v-23z" />
    <glyph glyph-name="obhoanga" unicode="&#x1ed6;" horiz-adv-x="1118" 
d="M1044 672q0 -123 -2 -202t-8 -144q-12 -100 -71 -187q-60 -81 -164 -129q-102 -45 -240 -45q-130 0 -233 43t-166 127q-64 87 -76 187t-12 350v276q0 245 12 346q9 99 72 185q58 82 163 129q102 45 240 45q124 0 234 -41q106 -44 165 -129q65 -85 74 -185
q12 -100 12 -350v-276zM625 1202q0 116 -13 146q-12 30 -51 30q-34 0 -49 -24q-20 -27 -20 -152v-756q0 -142 14 -174q9 -32 51 -32q43 0 55 39q13 35 13 180v743zM573 1827l-84 -90h-194l180 194h197l166 -194h-189zM862 2148h-4q-30 -70 -78 -98q-42 -27 -78 -27
q-48 0 -104 21l-51 20q-48 19 -72 19q-51 0 -82 -70l-108 72q73 135 170 135q53 0 106 -20l43 -15q55 -18 72 -18q55 0 74 61z" />
    <glyph glyph-name="obthnga" unicode="&#x1ed7;" horiz-adv-x="1047" 
d="M985 860v-323q0 -179 -18 -263q-17 -84 -76 -155q-59 -75 -152 -109q-97 -35 -213 -35q-129 0 -227 31q-91 28 -143.5 87.5t-73.5 146.5q-23 90 -23 252v339q0 183 41 289q40 104 143.5 168t266.5 64q130 0 233 -41q97 -40 152 -107q49 -60 72 -133q18 -70 18 -211z
M582 961q0 99 -11 129q-12 26 -47 26q-37 0 -49 -26q-12 -28 -12 -129v-599q0 -95 12 -122q12 -29 47 -29q38 0 49 27q11 25 11 110v613zM520 1524l-84 -90h-194l180 194h196l166 -194h-188zM809 1845h-4q-32 -71 -78 -98q-43 -27 -78 -27q-52 0 -104 21l-51 20
q-48 19 -72 19q-52 0 -82 -70l-109 72q75 135 170 135q55 0 107 -21l43 -14q55 -18 72 -18q55 0 73 61z" />
    <glyph glyph-name="obhoanang" unicode="&#x1ed8;" horiz-adv-x="1118" 
d="M1044 672q0 -123 -2 -202t-8 -144q-12 -100 -71 -187q-60 -81 -164 -129q-102 -45 -240 -45q-130 0 -233 43t-166 127q-64 87 -76 187t-12 350v276q0 245 12 346q9 99 72 185q58 82 163 129q102 45 240 45q124 0 234 -41q106 -44 165 -129q65 -85 74 -185
q12 -100 12 -350v-276zM625 1202q0 116 -13 146q-12 30 -51 30q-34 0 -49 -24q-20 -27 -20 -152v-756q0 -142 14 -174q9 -32 51 -32q43 0 55 39q13 35 13 180v743zM573 1827l-84 -90h-194l180 194h197l166 -194h-189zM717 -125v-147h-291v147h291z" />
    <glyph glyph-name="obthnang" unicode="&#x1ed9;" horiz-adv-x="1047" 
d="M985 860v-323q0 -179 -18 -263q-17 -84 -76 -155q-59 -75 -152 -109q-97 -35 -213 -35q-129 0 -227 31q-91 28 -143.5 87.5t-73.5 146.5q-23 90 -23 252v339q0 183 41 289q40 104 143.5 168t266.5 64q130 0 233 -41q97 -40 152 -107q49 -60 72 -133q18 -70 18 -211z
M582 961q0 99 -11 129q-12 26 -47 26q-37 0 -49 -26q-12 -28 -12 -129v-599q0 -95 12 -122q12 -29 47 -29q38 0 49 27q11 25 11 110v613zM520 1524l-84 -90h-194l180 194h196l166 -194h-188zM653 -131v-148h-291v148h291z" />
    <glyph glyph-name="ochoasac" unicode="&#x1eda;" horiz-adv-x="1229" 
d="M1044 672l3 2q0 -223 -11 -346q-12 -102 -71 -187q-60 -81 -164 -129q-102 -45 -240 -45q-130 0 -233 43t-166 127q-64 87 -76 187t-12 350v276q0 245 12 346q9 99 72 185q58 82 164 129q100 45 239 45q122 0 242 -41q104 -44 164 -127q28 -32 47 -76t22 -80
q33 0 43.5 62.5t10.5 248.5h139q0 -204 -48.5 -310.5t-136.5 -106.5v-277v-276zM627 1204q0 116 -13 146q-12 30 -51 30q-34 0 -49 -24q-20 -27 -20 -152v-755q0 -70 4 -115t10 -60q9 -32 51 -32q43 0 55 39q13 35 13 180v743zM817 1946l-229 -189h-142l123 189h248z" />
    <glyph glyph-name="octhsac" unicode="&#x1edb;" horiz-adv-x="1167" 
d="M985 860l-2 -323q0 -179 -18 -263q-17 -84 -76 -155q-59 -75 -152 -109q-97 -35 -213 -35q-129 0 -227 31q-91 28 -143.5 87.5t-73.5 146.5q-23 90 -23 252v339q0 183 41 289q40 104 143.5 168t266.5 64q136 0 240 -41q97 -40 151 -107q49 -60 72 -133q4 -24 4 -33
q24 0 38 28.5t20.5 97.5t6.5 188h138q0 -138 -22.5 -229.5t-65.5 -138t-107 -48.5q2 -16 2 -76zM580 961q0 94 -11 129q-12 26 -47 26q-37 0 -49 -26q-12 -28 -12 -129v-599q0 -95 12 -122q12 -29 47 -29q38 0 49 27q11 29 11 110v613zM758 1642l-230 -188h-141l123 188h248
z" />
    <glyph glyph-name="ochoahuyen" unicode="&#x1edc;" horiz-adv-x="1229" 
d="M1044 672l3 2q0 -223 -11 -346q-12 -102 -71 -187q-60 -81 -164 -129q-102 -45 -240 -45q-130 0 -233 43t-166 127q-64 87 -76 187t-12 350v276q0 245 12 346q9 99 72 185q58 82 164 129q100 45 239 45q122 0 242 -41q104 -44 164 -127q28 -32 47 -76t22 -80
q33 0 43.5 62.5t10.5 248.5h139q0 -204 -48.5 -310.5t-136.5 -106.5v-277v-276zM627 1204q0 116 -13 146q-12 30 -51 30q-34 0 -49 -24q-20 -27 -20 -152v-755q0 -70 4 -115t10 -60q9 -32 51 -32q43 0 55 39q13 35 13 180v743zM322 1946h247l123 -189h-141z" />
    <glyph glyph-name="octhhuyen" unicode="&#x1edd;" horiz-adv-x="1167" 
d="M985 860l-2 -323q0 -179 -18 -263q-17 -84 -76 -155q-59 -75 -152 -109q-97 -35 -213 -35q-129 0 -227 31q-91 28 -143.5 87.5t-73.5 146.5q-23 90 -23 252v339q0 183 41 289q40 104 143.5 168t266.5 64q136 0 240 -41q97 -40 151 -107q49 -60 72 -133q4 -24 4 -33
q24 0 38 28.5t20.5 97.5t6.5 188h138q0 -138 -22.5 -229.5t-65.5 -138t-107 -48.5q2 -16 2 -76zM580 961q0 94 -11 129q-12 26 -47 26q-37 0 -49 -26q-12 -28 -12 -129v-599q0 -95 12 -122q12 -29 47 -29q38 0 49 27q11 29 11 110v613zM313 1642h248l123 -188h-141z" />
    <glyph glyph-name="ochoahoi" unicode="&#x1ede;" horiz-adv-x="1229" 
d="M1044 672l3 2q0 -223 -11 -346q-12 -102 -71 -187q-60 -81 -164 -129q-102 -45 -240 -45q-130 0 -233 43t-166 127q-64 87 -76 187t-12 350v276q0 245 12 346q9 99 72 185q58 82 164 129q100 45 239 45q122 0 242 -41q104 -44 164 -127q28 -32 47 -76t22 -80
q33 0 43.5 62.5t10.5 248.5h139q0 -204 -48.5 -310.5t-136.5 -106.5v-277v-276zM627 1204q0 116 -13 146q-12 30 -51 30q-34 0 -49 -24q-20 -27 -20 -152v-755q0 -70 4 -115t10 -60q9 -32 51 -32q43 0 55 39q13 35 13 180v743zM592 1927h-113q0 48 11.5 70.5t35.5 44.5
q33 16 109 16q47 -9 82 -41q24 -32 24 -71q0 -56 -20 -76q-22 -27 -64.5 -53.5t-52.5 -42.5v-17h-115q0 43 22 74.5t77 56.5q33 11 33 62v16q0 25 -3 29q-3 6 -12 6t-12 -8q-2 -6 -2 -43v-23z" />
    <glyph glyph-name="octhhoi" unicode="&#x1edf;" horiz-adv-x="1167" 
d="M985 860l-2 -323q0 -179 -18 -263q-17 -84 -76 -155q-59 -75 -152 -109q-97 -35 -213 -35q-129 0 -227 31q-91 28 -143.5 87.5t-73.5 146.5q-23 90 -23 252v339q0 183 41 289q40 104 143.5 168t266.5 64q136 0 240 -41q97 -40 151 -107q49 -60 72 -133q4 -24 4 -33
q24 0 38 28.5t20.5 97.5t6.5 188h138q0 -138 -22.5 -229.5t-65.5 -138t-107 -48.5q2 -16 2 -76zM580 961q0 94 -11 129q-12 26 -47 26q-37 0 -49 -26q-12 -28 -12 -129v-599q0 -95 12 -122q12 -29 47 -29q38 0 49 27q11 29 11 110v613zM543 1624h-113q0 48 11.5 70.5
t35.5 44.5q33 16 109 16q47 -9 82 -41q24 -32 24 -72q0 -55 -20 -75q-21 -27 -65.5 -56t-51.5 -41v-16h-115q0 43 22 74.5t77 56.5q32 11 32 62v16q0 25 -2 29q-3 6 -12 6t-12 -8q-2 -7 -2 -43v-23z" />
    <glyph glyph-name="ochoanga" unicode="&#x1ee0;" horiz-adv-x="1229" 
d="M1044 672l3 2q0 -223 -11 -346q-12 -102 -71 -187q-60 -81 -164 -129q-102 -45 -240 -45q-130 0 -233 43t-166 127q-64 87 -76 187t-12 350v276q0 245 12 346q9 99 72 185q58 82 164 129q100 45 239 45q122 0 242 -41q104 -44 164 -127q28 -32 47 -76t22 -80
q33 0 43.5 62.5t10.5 248.5h139q0 -204 -48.5 -310.5t-136.5 -106.5v-277v-276zM627 1204q0 116 -13 146q-12 30 -51 30q-34 0 -49 -24q-20 -27 -20 -152v-755q0 -70 4 -115t10 -60q9 -32 51 -32q43 0 55 39q13 35 13 180v743zM850 1892h-4q-32 -71 -78 -98q-43 -27 -78 -27
q-48 0 -104 21l-51 20q-48 19 -72 19q-52 0 -82 -70l-109 72q75 135 170 135q54 0 107 -20l43 -15q55 -18 72 -18q55 0 73 61z" />
    <glyph glyph-name="octhnga" unicode="&#x1ee1;" horiz-adv-x="1167" 
d="M985 860l-2 -323q0 -179 -18 -263q-17 -84 -76 -155q-59 -75 -152 -109q-97 -35 -213 -35q-129 0 -227 31q-91 28 -143.5 87.5t-73.5 146.5q-23 90 -23 252v339q0 183 41 289q40 104 143.5 168t266.5 64q136 0 240 -41q97 -40 151 -107q49 -60 72 -133q4 -24 4 -33
q24 0 38 28.5t20.5 97.5t6.5 188h138q0 -138 -22.5 -229.5t-65.5 -138t-107 -48.5q2 -16 2 -76zM580 961q0 94 -11 129q-12 26 -47 26q-37 0 -49 -26q-12 -28 -12 -129v-599q0 -95 12 -122q12 -29 47 -29q38 0 49 27q11 29 11 110v613zM811 1589h-4q-32 -71 -78 -98
q-43 -27 -78 -27q-52 0 -104 21l-51 20q-48 19 -72 19q-52 0 -82 -70l-109 72q75 135 170 135q55 0 107 -21l43 -14q55 -18 72 -18q55 0 73 61z" />
    <glyph glyph-name="ochoanang" unicode="&#x1ee2;" horiz-adv-x="1229" 
d="M1044 672l3 2q0 -223 -11 -346q-12 -102 -71 -187q-60 -81 -164 -129q-102 -45 -240 -45q-130 0 -233 43t-166 127q-64 87 -76 187t-12 350v276q0 245 12 346q9 99 72 185q58 82 164 129q100 45 239 45q122 0 242 -41q104 -44 164 -127q28 -32 47 -76t22 -80
q33 0 43.5 62.5t10.5 248.5h139q0 -204 -48.5 -310.5t-136.5 -106.5v-277v-276zM627 1204q0 116 -13 146q-12 30 -51 30q-34 0 -49 -24q-20 -27 -20 -152v-755q0 -70 4 -115t10 -60q9 -32 51 -32q43 0 55 39q13 35 13 180v743zM705 -141v-148h-291v148h291z" />
    <glyph glyph-name="octhnang" unicode="&#x1ee3;" horiz-adv-x="1167" 
d="M985 860l-2 -323q0 -179 -18 -263q-17 -84 -76 -155q-59 -75 -152 -109q-97 -35 -213 -35q-129 0 -227 31q-91 28 -143.5 87.5t-73.5 146.5q-23 90 -23 252v339q0 183 41 289q40 104 143.5 168t266.5 64q136 0 240 -41q97 -40 151 -107q49 -60 72 -133q4 -24 4 -33
q24 0 38 28.5t20.5 97.5t6.5 188h138q0 -138 -22.5 -229.5t-65.5 -138t-107 -48.5q2 -16 2 -76zM580 961q0 94 -11 129q-12 26 -47 26q-37 0 -49 -26q-12 -28 -12 -129v-599q0 -95 12 -122q12 -29 47 -29q38 0 49 27q11 29 11 110v613zM666 -133v-148h-291v148h291z" />
    <glyph glyph-name="uhoanang" unicode="&#x1ee4;" horiz-adv-x="1120" 
d="M1040 1620v-1083q0 -184 -12 -258q-9 -72 -70 -152q-56 -79 -155 -121q-101 -41 -228 -41q-143 0 -256 49q-110 47 -165 125q-57 79 -66 162q-10 95 -10 361v958h420v-1214q0 -109 14 -136q9 -30 45 -30q42 0 51 32q13 37 13 154v1194h419zM705 -154v-147h-291v147h291z
" />
    <glyph glyph-name="uthnang" unicode="&#x1ee5;" horiz-adv-x="1069" 
d="M997 1327v-1327h-411l8 111q-40 -66 -105 -101q-64 -35 -141 -35q-92 0 -151 33q-64 38 -88 84q-29 53 -35 113q-8 49 -8 227v895h403v-903q0 -154 10 -184q9 -29 51 -29q47 0 56 31q8 24 8 192v893h403zM666 -123v-147h-291v147h291z" />
    <glyph glyph-name="uhoahoi" unicode="&#x1ee6;" horiz-adv-x="1120" 
d="M1040 1620v-1083q0 -184 -12 -258q-9 -72 -70 -152q-56 -79 -155 -121q-101 -41 -228 -41q-143 0 -256 49q-110 47 -165 125q-57 79 -66 162q-10 95 -10 361v958h420v-1214q0 -109 14 -136q9 -30 45 -30q42 0 51 32q13 37 13 154v1194h419zM571 1903h-112q0 45 11.5 68.5
t35.5 45.5q33 17 108 17q48 -11 82 -41q25 -33 25 -72q0 -55 -21 -76q-23 -29 -65.5 -55.5t-50.5 -40.5v-16h-115q0 43 22.5 74.5t75.5 56.5q33 10 33 61v17q0 24 -2 28q-3 6 -12 6q-10 0 -13 -8q-2 -6 -2 -43v-22z" />
    <glyph glyph-name="uthhoi" unicode="&#x1ee7;" horiz-adv-x="1069" 
d="M997 1327v-1327h-411l8 111q-40 -66 -105 -101q-64 -35 -141 -35q-92 0 -151 33q-64 38 -88 84q-29 53 -35 113q-8 49 -8 227v895h403v-903q0 -154 10 -184q9 -29 51 -29q47 0 56 31q8 24 8 192v893h403zM604 1610h-112q0 45 11.5 68.5t35.5 45.5q32 17 108 17
q47 -9 82 -41q25 -35 25 -72q0 -55 -21 -76q-23 -29 -66 -55.5t-51 -40.5v-16h-114q0 43 22.5 74.5t75.5 56.5q33 11 33 61v17q0 24 -2 28q-3 6 -13 6q-9 0 -12 -8q-2 -6 -2 -43v-22z" />
    <glyph glyph-name="uchoasac" unicode="&#x1ee8;" horiz-adv-x="1188" 
d="M1040 1620v-315q99 0 99 315h139q0 -143 -22 -234.5t-74.5 -138.5t-141.5 -47v-663q0 -184 -12 -258q-9 -72 -70 -152q-56 -79 -155 -121q-101 -41 -228 -41q-143 0 -256 49q-110 47 -165 125q-57 79 -66 162q-10 95 -10 361v958h420v-1214q0 -109 14 -136q9 -30 45 -30
q42 0 51 32q13 37 13 154v1194h419zM848 1921l-230 -188h-141l123 188h248z" />
    <glyph glyph-name="ucthsac" unicode="&#x1ee9;" horiz-adv-x="1167" 
d="M997 1327v-317q99 0 99 317h139q0 -143 -22 -234.5t-74.5 -138.5t-141.5 -47v-907h-411l8 111q-40 -66 -105 -101q-64 -35 -141 -35q-92 0 -151 33q-64 38 -88 84q-29 53 -35 113q-8 49 -8 227v895h403v-903q0 -154 10 -184q9 -29 51 -29q47 0 56 31q8 24 8 192v893h403z
M829 1634l-229 -188h-141l123 188h247z" />
    <glyph glyph-name="uchoahuyen" unicode="&#x1eea;" horiz-adv-x="1188" 
d="M1040 1620v-315q99 0 99 315h139q0 -143 -22 -234.5t-74.5 -138.5t-141.5 -47v-663q0 -184 -12 -258q-9 -72 -70 -152q-56 -79 -155 -121q-101 -41 -228 -41q-143 0 -256 49q-110 47 -165 125q-57 79 -66 162q-10 95 -10 361v958h420v-1214q0 -109 14 -136q9 -30 45 -30
q42 0 51 32q13 37 13 154v1194h419zM352 1921h248l123 -188h-141z" />
    <glyph glyph-name="ucthhuyen" unicode="&#x1eeb;" horiz-adv-x="1167" 
d="M997 1327v-317q99 0 99 317h139q0 -143 -22 -234.5t-74.5 -138.5t-141.5 -47v-907h-411l8 111q-40 -66 -105 -101q-64 -35 -141 -35q-92 0 -151 33q-64 38 -88 84q-29 53 -35 113q-8 49 -8 227v895h403v-903q0 -154 10 -184q9 -29 51 -29q47 0 56 31q8 24 8 192v893h403z
M303 1624h248l123 -188h-142z" />
    <glyph glyph-name="uchoahoi" unicode="&#x1eec;" horiz-adv-x="1188" 
d="M1040 1620v-315q99 0 99 315h139q0 -143 -22 -234.5t-74.5 -138.5t-141.5 -47v-663q0 -184 -12 -258q-9 -72 -70 -152q-56 -79 -155 -121q-101 -41 -228 -41q-143 0 -256 49q-110 47 -165 125q-57 79 -66 162q-10 95 -10 361v958h420v-1214q0 -109 14 -136q9 -30 45 -30
q42 0 51 32q13 37 13 154v1194h419zM602 1903h-113q0 47 12 69.5t36 44.5q32 17 108 17q48 -11 82 -41q25 -35 25 -72q0 -55 -21 -76q-23 -29 -66 -55.5t-51 -40.5v-16h-114q0 43 22.5 74.5t75.5 56.5q33 11 33 61v17q0 24 -2 28q-3 6 -13 6q-9 0 -12 -8q-2 -6 -2 -43v-22z
" />
    <glyph glyph-name="ucthhoi" unicode="&#x1eed;" horiz-adv-x="1167" 
d="M997 1327v-317q99 0 99 317h139q0 -143 -22 -234.5t-74.5 -138.5t-141.5 -47v-907h-411l8 111q-40 -66 -105 -101q-64 -35 -141 -35q-92 0 -151 33q-64 38 -88 84q-29 53 -35 113q-8 49 -8 227v895h403v-903q0 -154 10 -184q9 -29 51 -29q47 0 56 31q8 24 8 192v893h403z
M604 1606h-112q0 45 11.5 68.5t35.5 45.5q32 17 108 17q47 -9 82 -41q25 -35 25 -72q0 -55 -21 -76q-23 -29 -66 -55.5t-51 -40.5v-16h-114q0 43 22.5 74.5t75.5 56.5q33 11 33 61v17q0 24 -2 28q-3 6 -13 6q-9 0 -12 -8q-2 -6 -2 -43v-22z" />
    <glyph glyph-name="uchoanga" unicode="&#x1eee;" horiz-adv-x="1188" 
d="M1040 1620v-315q99 0 99 315h139q0 -143 -22 -234.5t-74.5 -138.5t-141.5 -47v-663q0 -184 -12 -258q-9 -72 -70 -152q-56 -79 -155 -121q-101 -41 -228 -41q-143 0 -256 49q-110 47 -165 125q-57 79 -66 162q-10 95 -10 361v958h420v-1214q0 -109 14 -136q9 -30 45 -30
q42 0 51 32q13 37 13 154v1194h419zM840 1847h-4q-31 -70 -78 -98q-43 -27 -78 -27q-49 0 -105 21l-51 20q-47 19 -71 19q-52 0 -82 -70l-109 72q73 135 170 135q55 0 107 -21l43 -14q54 -18 71 -18q56 0 74 61z" />
    <glyph glyph-name="ucthnga" unicode="&#x1eef;" horiz-adv-x="1167" 
d="M997 1327v-317q99 0 99 317h139q0 -143 -22 -234.5t-74.5 -138.5t-141.5 -47v-907h-411l8 111q-40 -66 -105 -101q-64 -35 -141 -35q-92 0 -151 33q-64 38 -88 84q-29 53 -35 113q-8 49 -8 227v895h403v-903q0 -154 10 -184q9 -29 51 -29q47 0 56 31q8 24 8 192v893h403z
M831 1561h-4q-28 -68 -77 -99q-42 -26 -78 -26q-52 0 -105 20l-51 21q-49 18 -72 18q-51 0 -82 -70l-108 72q73 135 170 135q55 0 106 -20l43 -15q55 -18 72 -18q56 0 74 61z" />
    <glyph glyph-name="uchoanang" unicode="&#x1ef0;" horiz-adv-x="1188" 
d="M1040 1620v-315q99 0 99 315h139q0 -143 -22 -234.5t-74.5 -138.5t-141.5 -47v-663q0 -184 -12 -258q-9 -72 -70 -152q-56 -79 -155 -121q-101 -41 -228 -41q-143 0 -256 49q-110 47 -165 125q-57 79 -66 162q-10 95 -10 361v958h420v-1214q0 -109 14 -136q9 -30 45 -30
q42 0 51 32q13 37 13 154v1194h419zM715 -143v-148h-291v148h291z" />
    <glyph glyph-name="ucthnang" unicode="&#x1ef1;" horiz-adv-x="1167" 
d="M997 1327v-317q99 0 99 317h139q0 -143 -22 -234.5t-74.5 -138.5t-141.5 -47v-907h-411l8 111q-40 -66 -105 -101q-64 -35 -141 -35q-92 0 -151 33q-64 38 -88 84q-29 53 -35 113q-8 49 -8 227v895h403v-903q0 -154 10 -184q9 -29 51 -29q47 0 56 31q8 24 8 192v893h403z
M676 -117v-147h-291v147h291z" />
    <glyph glyph-name="yhoahuyen" unicode="&#x1ef2;" horiz-adv-x="969" 
d="M981 1620l-307 -1034v-586h-389v586l-297 1034h387q94 -483 102 -639q34 261 117 639h387zM229 1911h248l123 -189h-141z" />
    <glyph glyph-name="ythhuyen" unicode="&#x1ef3;" horiz-adv-x="918" 
d="M918 1327l-115 -960q-25 -200 -45 -312q-23 -85 -64.5 -137.5t-118.5 -77.5q-33 -12 -96 -19t-147 -7h-246v213q89 0 121 10q26 9 26 41q0 16 -24 139l-221 1110h366l133 -895l64 895h367zM219 1628h248l123 -188h-141z" />
    <glyph glyph-name="yhoanang" unicode="&#x1ef4;" horiz-adv-x="969" 
d="M981 1620l-307 -1034v-586h-389v586l-297 1034h387q94 -483 102 -639q34 261 117 639h387zM623 -109v-147h-291v147h291z" />
    <glyph glyph-name="ythnang" unicode="&#x1ef5;" horiz-adv-x="918" 
d="M918 1327l-115 -960q-25 -200 -45 -312q-23 -85 -64.5 -137.5t-118.5 -77.5q-33 -12 -96 -19t-147 -7h-246v213q89 0 121 10q26 9 26 41q0 16 -24 139l-221 1110h366l133 -895l64 895h367zM551 -315v-148h-291v148h291z" />
    <glyph glyph-name="yhoahoi" unicode="&#x1ef6;" horiz-adv-x="969" 
d="M981 1620l-307 -1034v-586h-389v586l-297 1034h387q94 -483 102 -639q34 261 117 639h387zM520 1903h-112q0 45 11.5 68.5t35.5 45.5q32 17 108 17q48 -11 82 -41q25 -35 25 -72q0 -55 -21 -76q-23 -29 -66 -55.5t-51 -40.5v-16h-114q0 43 22.5 74.5t75.5 56.5
q33 10 33 61v17q0 24 -2 28q-3 6 -12 6q-10 0 -13 -8q-2 -6 -2 -43v-22z" />
    <glyph glyph-name="ythhoi" unicode="&#x1ef7;" horiz-adv-x="918" 
d="M918 1327l-115 -960q-25 -200 -45 -312q-23 -85 -64.5 -137.5t-118.5 -77.5q-33 -12 -96 -19t-147 -7h-246v213q89 0 121 10q26 9 26 41q0 16 -24 139l-221 1110h366l133 -895l64 895h367zM520 1610h-112q0 45 11.5 68.5t35.5 45.5q32 17 108 17q47 -9 82 -41
q25 -35 25 -72q0 -55 -21 -76q-23 -29 -66 -55.5t-51 -40.5v-16h-114q0 43 22.5 74.5t75.5 56.5q33 10 33 61v17q0 24 -2 28q-3 6 -12 6q-10 0 -13 -8q-2 -6 -2 -43v-22z" />
    <glyph glyph-name="yhoanga" unicode="&#x1ef8;" horiz-adv-x="969" 
d="M981 1620l-307 -1034v-586h-389v586l-297 1034h387q94 -483 102 -639q34 261 117 639h387zM768 1858h-4q-31 -70 -78 -99q-42 -26 -78 -26q-51 0 -104 20l-51 21q-49 18 -72 18q-52 0 -82 -70l-109 72q75 135 170 135q54 0 107 -20l43 -15q55 -18 72 -18q55 0 73 61z" />
    <glyph glyph-name="ythnga" unicode="&#x1ef9;" horiz-adv-x="918" 
d="M918 1327l-115 -960q-25 -200 -45 -312q-23 -85 -64.5 -137.5t-118.5 -77.5q-33 -12 -96 -19t-147 -7h-246v213q89 0 121 10q26 9 26 41q0 16 -24 139l-221 1110h366l133 -895l64 895h367zM737 1565h-4q-29 -69 -78 -99q-40 -26 -77 -26q-52 0 -105 20l-51 21
q-49 18 -72 18q-51 0 -82 -69l-108 71q73 135 170 135q53 0 106 -20l43 -14q54 -19 72 -19q54 0 74 62z" />
    <glyph glyph-name="emdash" unicode="&#x2013;" horiz-adv-x="2048" 
d="M-10 786h2070v-247h-2070v247z" />
    <glyph glyph-name="endash" unicode="&#x2014;" horiz-adv-x="1024" 
d="M-10 786h1046v-247h-1046v247z" />
    <glyph glyph-name="quoteleft" unicode="&#x2018;" horiz-adv-x="344" 
d="M37 1096v143q0 113 29 188q24 71 92 123q63 51 149 70v-117q-58 -33 -67 -92h67v-315h-270z" />
    <glyph glyph-name="quoteright" unicode="&#x2019;" horiz-adv-x="344" 
d="M307 1620v-145q0 -116 -26 -187q-28 -72 -93 -125q-66 -52 -151 -67v116q58 34 67 91h-67v317h270z" />
    <glyph glyph-name="quotesinglbase" unicode="&#x201a;" horiz-adv-x="344" 
d="M307 317v-145q0 -118 -26 -186q-28 -72 -93 -125q-68 -53 -151 -68v117q58 33 67 90h-67v317h270z" />
    <glyph glyph-name="quotedblleft" unicode="&#x201c;" horiz-adv-x="707" 
d="M397 1096v143q0 109 29 188q27 71 92 123q63 51 150 70v-117q-59 -33 -68 -92h68v-315h-271zM37 1096v143q0 113 29 188q24 71 92 123q63 51 149 70v-117q-58 -33 -67 -92h67v-315h-270z" />
    <glyph glyph-name="quotedblright" unicode="&#x201d;" horiz-adv-x="707" 
d="M668 1620v-145q0 -113 -27 -187q-26 -71 -92 -125q-67 -52 -152 -67v116q59 35 68 91h-68v317h271zM307 1620v-145q0 -116 -26 -187q-28 -72 -93 -125q-66 -52 -151 -67v116q58 34 67 91h-67v317h270z" />
    <glyph glyph-name="quotedblbase" unicode="&#x201e;" horiz-adv-x="707" 
d="M668 317v-145q0 -115 -27 -186q-26 -71 -92 -125q-68 -53 -152 -68v117q59 33 68 90h-68v317h271zM307 317v-145q0 -118 -26 -186q-28 -72 -93 -125q-68 -53 -151 -68v117q58 33 67 90h-67v317h270z" />
    <glyph glyph-name="dagger" unicode="&#x2020;" horiz-adv-x="1112" 
d="M334 1620h444v-469h297v-381h-297v-958h-444v958h-297v381h297v469z" />
    <glyph glyph-name="daggerdbl" unicode="&#x2021;" horiz-adv-x="1112" 
d="M334 1620h444v-377h297v-379h-297v-299h297v-381h-297v-372h-444v372h-297v381h297v299h-297v379h297v377z" />
    <glyph glyph-name="bullet" unicode="&#x2022;" horiz-adv-x="713" 
d="M651 817q0 -136 -88 -217q-89 -86 -207 -86q-121 0 -209 86q-86 86 -86 211q0 121 86 207q87 88 207 88q129 0 213 -90t84 -199z" />
    <glyph glyph-name="ellipsis" unicode="&#x2026;" horiz-adv-x="1133" 
d="M342 330v-330h-305v330h305zM1098 330v-330h-305v330h305zM719 330v-330h-305v330h305z" />
    <glyph glyph-name="perthousand" unicode="&#x2030;" horiz-adv-x="2099" 
d="M1104 1651l-635 -1682h-154l635 1682h154zM633 1343v-278q0 -112 -21 -164q-22 -54 -88 -94q-68 -41 -180 -41q-129 0 -194 38.5t-91 92.5q-22 55 -22 156v290q0 120 24 179q25 58 95 92q72 37 172 37q113 0 184 -39q72 -41 96 -96q25 -57 25 -173zM377 1413q0 65 -6 80
q-8 14 -37 14q-27 0 -35 -14q-8 -13 -8 -80v-407q0 -71 8 -84q5 -15 37 -15q22 0 33 17q8 13 8 75v414zM1382 561v-278q0 -108 -18 -164q-20 -53 -88 -94q-71 -41 -180 -41q-130 0 -195 39q-69 40 -90 92q-25 58 -25 153v293q0 115 25 176q24 58 94 94q70 37 174 37
q116 0 187 -41q69 -38 94 -96q12 -30 17 -71.5t5 -98.5zM1126 631q0 63 -6 80q-6 14 -35 14q-26 0 -34.5 -14t-8.5 -80v-408q0 -70 9 -84q6 -12 34 -12q27 0 35 14q6 16 6 76v414zM2062 561v-278q0 -108 -18 -164q-20 -53 -88 -94q-71 -41 -180 -41q-130 0 -195 39
q-69 40 -90 92q-25 58 -25 153v293q0 117 27 176q21 58 92 94q70 37 174 37q114 0 187 -41q69 -38 94 -96q12 -30 17 -71.5t5 -98.5zM1806 631q0 63 -6 80q-6 14 -35 14q-26 0 -34.5 -14t-8.5 -80v-408q0 -70 9 -84q6 -12 34 -12q27 0 35 14q6 16 6 76v414z" />
    <glyph glyph-name="guilsinglleft" unicode="&#x2039;" horiz-adv-x="406" 
d="M123 1257h246l-86 -561l86 -592h-244l-88 592z" />
    <glyph glyph-name="guilsinglright" unicode="&#x203a;" horiz-adv-x="406" 
d="M281 1257l88 -561l-88 -592h-244l88 592l-88 561h244z" />
    <glyph glyph-name="trademark" unicode="&#x2122;" horiz-adv-x="1604" 
d="M264 801v676h-252v141h666v-141h-248v-676h-166zM737 801v817h260l150 -563l147 563h260v-817h-157v651l-176 -651h-152l-176 651v-651h-156z" />
    <glyph glyph-name="absachoa" unicode="&#xf006;" 
d="M20 2101l-229 -188h-141l123 188h247z" />
    <glyph glyph-name="sac" unicode="&#xf008;" horiz-adv-x="682" 
d="M684 1772l-229 -189h-142l123 189h248z" />
    <glyph glyph-name="aasacth" unicode="&#xf009;" 
d="M-209 1903l-229 -189h-142l123 189h248z" />
    <glyph glyph-name="asacth" unicode="&#xf00a;" 
d="M-276 1642l-230 -188h-141l123 188h248z" />
    <glyph glyph-name="abhuyenhoa" unicode="&#xf00b;" 
d="M-547 2122h248l123 -189h-141z" />
    <glyph glyph-name="huyen" unicode="&#xf00d;" horiz-adv-x="682" 
d="M0 1772h248l123 -189h-142z" />
    <glyph glyph-name="aahuyenth" unicode="&#xf00e;" 
d="M-786 1903h247l123 -189h-141z" />
    <glyph glyph-name="ahuyenth" unicode="&#xf00f;" 
d="M-782 1642h247l123 -188h-141z" />
    <glyph glyph-name="abhoihoa" unicode="&#xf010;" 
d="M-236 2062h-112q0 46 11.5 69.5t35.5 45.5q33 16 108 16q49 -10 82 -41q25 -31 25 -71q0 -56 -20 -76q-23 -27 -65.5 -53.5t-51.5 -42.5v-17h-115q0 44 21 74.5t77 56.5q33 12 33 62v16q0 25 -2 29q-3 6 -12 6t-12 -8q-3 -6 -3 -43v-23z" />
    <glyph glyph-name="ahoihoa" unicode="&#xf011;" 
d="M-522 1931h-113q0 48 11.5 70.5t35.5 44.5q33 16 109 16q47 -9 82 -41q24 -32 24 -71q0 -56 -20 -76q-23 -28 -66 -55t-51 -41v-17h-115q0 44 22 75t77 56q32 11 32 62v16q0 25 -2 29q-3 6 -12 6t-12 -8q-2 -6 -2 -43v-23z" />
    <glyph glyph-name="hoi" unicode="&#xf012;" horiz-adv-x="682" 
d="M287 1587h-113q0 48 11.5 70.5t35.5 44.5q33 16 109 16q47 -9 82 -41q24 -32 24 -71q0 -56 -20 -76q-23 -28 -66 -55t-51 -41v-17h-115q0 43 22 74.5t77 56.5q32 11 32 62v16q0 25 -2 29q-3 6 -12 6t-12 -8q-2 -6 -2 -43v-23z" />
    <glyph glyph-name="aahoith" unicode="&#xf013;" 
d="M-465 1884h-113q0 48 12 70.5t36 44.5q32 16 108 16q49 -10 82 -41q25 -33 25 -71q0 -56 -21 -76q-22 -27 -64.5 -53.5t-52.5 -42.5v-17h-114q0 43 22.5 74.5t75.5 56.5q33 11 33 62v16q0 25 -2 29q-3 6 -13 6q-9 0 -12 -8q-2 -6 -2 -43v-23z" />
    <glyph glyph-name="ahoith" unicode="&#xf014;" 
d="M-502 1624h-112q0 46 11.5 69.5t35.5 45.5q32 16 108 16q49 -10 82 -41q25 -33 25 -72q0 -55 -21 -75q-16 -21 -41 -38t-46.5 -32.5t-28.5 -26.5v-16h-115q0 43 22.5 74.5t75.5 56.5q33 10 33 62v16q0 25 -2 29q-3 6 -12 6q-10 0 -13 -8q-2 -7 -2 -43v-23z" />
    <glyph glyph-name="abngahoa" unicode="&#xf015;" 
d="M-264 2140h-4q-32 -71 -78 -98q-41 -27 -78 -27q-54 0 -104 21l-52 20q-51 19 -71 19q-52 0 -82 -70l-109 72q73 135 170 135q55 0 107 -21l43 -14q55 -18 71 -18q56 0 74 61z" />
    <glyph glyph-name="abngahoa" unicode="&#xf02f;" 
d="M-264 2140h-4q-32 -71 -78 -98q-41 -27 -78 -27q-54 0 -104 21l-52 20q-51 19 -71 19q-52 0 -82 -70l-109 72q73 135 170 135q55 0 107 -21l43 -14q55 -18 71 -18q56 0 74 61z" />
    <glyph glyph-name="abngahoa" unicode="&#xf02d;" 
d="M-264 2140h-4q-32 -71 -78 -98q-41 -27 -78 -27q-54 0 -104 21l-52 20q-51 19 -71 19q-52 0 -82 -70l-109 72q73 135 170 135q55 0 107 -21l43 -14q55 -18 71 -18q56 0 74 61z" />
    <glyph glyph-name="aangath" unicode="&#xf018;" 
d="M-217 1839h-4q-32 -71 -78 -98q-41 -27 -78 -27q-52 0 -104 21l-51 20q-52 19 -72 19q-52 0 -82 -70l-109 72q75 135 170 135q55 0 107 -21l43 -14q55 -18 72 -18q55 0 73 61z" />
    <glyph glyph-name="angath" unicode="&#xf019;" 
d="M-233 1589h-5q-30 -70 -77 -98q-43 -27 -78 -27q-53 0 -105 21l-51 20q-48 19 -72 19q-51 0 -81 -70l-109 72q73 135 170 135q56 0 106 -21l43 -14q55 -18 72 -18q56 0 74 61z" />
    <glyph glyph-name="angath" unicode="&#xf01b;" 
d="M-233 1589h-5q-30 -70 -77 -98q-43 -27 -78 -27q-53 0 -105 21l-51 20q-48 19 -72 19q-51 0 -81 -70l-109 72q73 135 170 135q56 0 106 -21l43 -14q55 -18 72 -18q56 0 74 61z" />
    <glyph glyph-name="angath" unicode="&#xf01a;" 
d="M-233 1589h-5q-30 -70 -77 -98q-43 -27 -78 -27q-53 0 -105 21l-51 20q-48 19 -72 19q-51 0 -81 -70l-109 72q73 135 170 135q56 0 106 -21l43 -14q55 -18 72 -18q56 0 74 61z" />
    <glyph glyph-name="nga" unicode="&#xf01d;" horiz-adv-x="682" 
d="M764 1692h-4q-31 -70 -78 -99q-42 -26 -78 -26q-51 0 -104 20l-51 21q-49 18 -72 18q-53 0 -82 -70l-109 72q75 135 170 135q54 0 107 -20l43 -14q54 -19 72 -19q55 0 73 62z" />
    <glyph glyph-name="anangth" unicode="&#xf023;" 
d="M-379 -133v-148h-291v148h291z" />
    <glyph glyph-name="anangth" unicode="&#xf02c;" 
d="M-379 -133v-148h-291v148h291z" />
    <glyph glyph-name="anangth" unicode="&#xf028;" 
d="M-379 -133v-148h-291v148h291z" />
    <glyph glyph-name="anangth" unicode="&#xf027;" 
d="M-379 -133v-148h-291v148h291z" />
    <glyph glyph-name="anangth" unicode="&#xf026;" 
d="M-379 -133v-148h-291v148h291z" />
    <glyph glyph-name="anangth" unicode="&#xf025;" 
d="M-379 -133v-148h-291v148h291z" />
    <glyph glyph-name="anangth" unicode="&#xf024;" 
d="M-379 -133v-148h-291v148h291z" />
    <glyph glyph-name="nang" unicode="&#xf02a;" horiz-adv-x="561" 
d="M496 1333v-147h-291v147h291z" />
    <glyph glyph-name="lslash" 
 />
    <glyph glyph-name="dotaccent" horiz-adv-x="682" 
d="M471 1761v-260h-260v260h260z" />
    <glyph glyph-name="hungarumlaut" horiz-adv-x="682" 
d="M414 1810l-242 -309h-147l116 309h273zM803 1810l-240 -309h-149l118 309h271z" />
    <glyph glyph-name="fi" horiz-adv-x="1149" 
d="M1075 1620v-211h-416v211h416zM588 1620v-205q-125 -3 -148 -12q-22 -13 -22 -66v-43h170v-209h-96v-1085h-404v1085h-84v209h84q0 137 8 174q9 47 45 80q34 34 99 54q64 18 198 18h150zM1075 1327v-1327h-416v1327h416z" />
    <glyph glyph-name="aa" horiz-adv-x="682" 
d="M455 1802l262 4q-3 -92 -60 -149q-61 -55 -161 -55q-107 0 -162 55q-59 56 -62 147h136q9 -94 90 -94q45 0 45 21q0 26 -88 71l131 2q-3 -92 -60 -149q-62 -56 -161 -56q-106 0 -162 56q-59 56 -62 147h135q10 -94 91 -94q79 0 88 94z" />
    <glyph glyph-name="ab" horiz-adv-x="682" 
d="M350 1632l-84 -90h-194l180 195h197l165 -195h-188z" />
    <glyph glyph-name="abth" horiz-adv-x="1032" 
d="M432 813h-379v88q0 154 37 240q33 80 141 145q111 66 279 66q203 0 309 -72q104 -73 125 -178q21 -108 21 -436v-666h-394v119q-38 -74 -94 -107q-60 -37 -139 -37q-104 0 -195 62q-90 59 -90 260v109q0 147 47 202q49 55 234 125q196 75 213 107q14 25 14 108
q0 106 -14.5 137t-52.5 31q-42 0 -52 -26q-10 -32 -10 -138v-139zM561 631q-97 -72 -112 -119q-17 -48 -17 -137q0 -108 14 -133q16 -31 54 -31q39 0 51 25q10 23 10 122v273zM510 1532l-84 -90h-195l181 194h196l166 -194h-188z" />
    <glyph glyph-name="abhoa" horiz-adv-x="1040" 
d="M811 1620l240 -1620h-430l-21 291h-151l-25 -291h-436l215 1620h608zM588 578q-16 136 -28.5 264.5t-35.5 414.5q-38 -276 -54 -416.5t-26 -262.5h144zM506 1817l-84 -91h-195l181 195h196l166 -195h-188z" />
    <glyph glyph-name="ebth" horiz-adv-x="1047" 
d="M987 641h-524v-289q0 -92 14 -114q11 -27 49 -27q49 0 64 35q14 31 14 133v176h383v-98q0 -128 -14 -191q-15 -65 -74 -139q-58 -76 -143 -113q-90 -39 -221 -39q-124 0 -226 37q-98 38 -151 103q-58 67 -78 141q-21 76 -21 225v387q0 170 47 277q48 100 154 153
q111 54 248 54q168 0 280 -66q109 -65 154 -170t45 -301v-174zM582 856v96q0 105 -11 133q-12 31 -45 31q-44 0 -53 -24q-10 -32 -10 -140v-96h119zM530 1526l-84 -90h-194l180 194h197l166 -194h-189z" />
    <glyph glyph-name="ebhoa" horiz-adv-x="852" 
d="M84 1618h702v-324h-282v-307h264v-307h-264v-356h309v-324h-729v1618zM438 1812l-84 -90h-194l180 195h197l165 -195h-188z" />
    <glyph glyph-name="obth" horiz-adv-x="1047" 
d="M985 860v-323q0 -179 -18 -263q-17 -84 -76 -155q-59 -75 -152 -109q-97 -35 -213 -35q-129 0 -227 31q-91 28 -143.5 87.5t-73.5 146.5q-23 90 -23 252v339q0 183 41 289q40 104 143.5 168t266.5 64q130 0 233 -41q97 -40 152 -107q49 -60 72 -133q18 -70 18 -211z
M582 961q0 99 -11 129q-12 26 -47 26q-37 0 -49 -26q-12 -28 -12 -129v-599q0 -95 12 -122q12 -29 47 -29q38 0 49 27q11 25 11 110v613zM520 1524l-84 -90h-194l180 194h196l166 -194h-188z" />
    <glyph glyph-name="obhoa" horiz-adv-x="1118" 
d="M1044 672q0 -123 -2 -202t-8 -144q-12 -100 -71 -187q-60 -81 -164 -129q-102 -45 -240 -45q-130 0 -233 43t-166 127q-64 87 -76 187t-12 350v276q0 245 12 346q9 99 72 185q58 82 163 129q102 45 240 45q124 0 234 -41q106 -44 165 -129q65 -85 74 -185
q12 -100 12 -350v-276zM625 1202q0 116 -13 146q-12 30 -51 30q-34 0 -49 -24q-20 -27 -20 -152v-756q0 -142 14 -174q9 -32 51 -32q43 0 55 39q13 35 13 180v743zM573 1827l-84 -90h-194l180 194h197l166 -194h-189z" />
    <glyph glyph-name="athsac" horiz-adv-x="1032" 
d="M432 813h-379v88q0 154 37 240q33 80 141 145q111 66 279 66q203 0 309 -72q104 -73 125 -178q21 -108 21 -436v-666h-394v119q-38 -74 -94 -107q-60 -37 -139 -37q-104 0 -195 62q-90 59 -90 260v109q0 147 47 202q49 55 234 125q196 75 213 107q14 25 14 108
q0 106 -14.5 137t-52.5 31q-42 0 -52 -26q-10 -32 -10 -138v-139zM561 631q-97 -72 -112 -119q-17 -48 -17 -137q0 -108 14 -133q16 -31 54 -31q39 0 51 25q10 23 10 122v273zM756 1642l-230 -188h-141l123 188h248z" />
    <glyph glyph-name="athhuyen" horiz-adv-x="1032" 
d="M432 813h-379v88q0 154 37 240q33 80 141 145q111 66 279 66q203 0 309 -72q104 -73 125 -178q21 -108 21 -436v-666h-394v119q-38 -74 -94 -107q-60 -37 -139 -37q-104 0 -195 62q-90 59 -90 260v109q0 147 47 202q49 55 234 125q196 75 213 107q14 25 14 108
q0 106 -14.5 137t-52.5 31q-42 0 -52 -26q-10 -32 -10 -138v-139zM561 631q-97 -72 -112 -119q-17 -48 -17 -137q0 -108 14 -133q16 -31 54 -31q39 0 51 25q10 23 10 122v273zM301 1642h248l123 -188h-142z" />
    <glyph glyph-name="athnga" horiz-adv-x="1032" 
d="M432 813h-379v88q0 154 37 240q33 80 141 145q111 66 279 66q203 0 309 -72q104 -73 125 -178q21 -108 21 -436v-666h-394v119q-38 -74 -94 -107q-60 -37 -139 -37q-104 0 -195 62q-90 59 -90 260v109q0 147 47 202q49 55 234 125q196 75 213 107q14 25 14 108
q0 106 -14.5 137t-52.5 31q-42 0 -52 -26q-10 -32 -10 -138v-139zM561 631q-97 -72 -112 -119q-17 -48 -17 -137q0 -108 14 -133q16 -31 54 -31q39 0 51 25q10 23 10 122v273zM799 1589h-4q-32 -71 -78 -98q-43 -27 -78 -27q-54 0 -104 21l-52 20q-47 19 -71 19
q-52 0 -82 -70l-109 72q73 135 170 135q55 0 107 -21l43 -14q55 -18 71 -18q56 0 74 61z" />
    <glyph glyph-name="ahoasac" horiz-adv-x="1040" 
d="M811 1620l240 -1620h-430l-21 291h-151l-25 -291h-436l215 1620h608zM588 578q-16 136 -28.5 264.5t-35.5 414.5q-38 -276 -54 -416.5t-26 -262.5h144zM739 1911l-229 -189h-141l123 189h247z" />
    <glyph glyph-name="ahoahuyen" horiz-adv-x="1040" 
d="M811 1620l240 -1620h-430l-21 291h-151l-25 -291h-436l215 1620h608zM588 578q-16 136 -28.5 264.5t-35.5 414.5q-38 -276 -54 -416.5t-26 -262.5h144zM295 1911h248l123 -189h-142z" />
    <glyph glyph-name="ahoanga" horiz-adv-x="1040" 
d="M811 1620l240 -1620h-430l-21 291h-151l-25 -291h-436l215 1620h608zM588 578q-16 136 -28.5 264.5t-35.5 414.5q-38 -276 -54 -416.5t-26 -262.5h144zM803 1858h-4q-31 -70 -78 -99q-42 -26 -78 -26q-53 0 -104 20l-52 21q-48 18 -71 18q-52 0 -82 -70l-109 72
q73 135 170 135q54 0 107 -20l43 -15q55 -18 71 -18q56 0 74 61z" />
    <glyph glyph-name="ethsac" horiz-adv-x="1047" 
d="M987 641h-524v-289q0 -92 14 -114q11 -27 49 -27q49 0 64 35q14 31 14 133v176h383v-98q0 -128 -14 -191q-15 -65 -74 -139q-58 -76 -143 -113q-90 -39 -221 -39q-124 0 -226 37q-98 38 -151 103q-58 67 -78 141q-21 76 -21 225v387q0 170 47 277q48 100 154 153
q111 54 248 54q168 0 280 -66q109 -65 154 -170t45 -301v-174zM582 856v96q0 105 -11 133q-12 31 -45 31q-44 0 -53 -24q-10 -32 -10 -140v-96h119zM780 1642l-229 -188h-141l122 188h248z" />
    <glyph glyph-name="ethhuyen" horiz-adv-x="1047" 
d="M987 641h-524v-289q0 -92 14 -114q11 -27 49 -27q49 0 64 35q14 31 14 133v176h383v-98q0 -128 -14 -191q-15 -65 -74 -139q-58 -76 -143 -113q-90 -39 -221 -39q-124 0 -226 37q-98 38 -151 103q-58 67 -78 141q-21 76 -21 225v387q0 170 47 277q48 100 154 153
q111 54 248 54q168 0 280 -66q109 -65 154 -170t45 -301v-174zM582 856v96q0 105 -11 133q-12 31 -45 31q-44 0 -53 -24q-10 -32 -10 -140v-96h119zM295 1642h248l123 -188h-142z" />
    <glyph glyph-name="ehoasac" horiz-adv-x="852" 
d="M84 1618h702v-324h-282v-307h264v-307h-264v-356h309v-324h-729v1618zM655 1909l-229 -189h-141l123 189h247z" />
    <glyph glyph-name="ehoahuyen" horiz-adv-x="852" 
d="M84 1618h702v-324h-282v-307h264v-307h-264v-356h309v-324h-729v1618zM211 1909h248l123 -189h-142z" />
    <glyph glyph-name="othsac" horiz-adv-x="1047" 
d="M985 860v-323q0 -179 -18 -263q-17 -84 -76 -155q-59 -75 -152 -109q-97 -35 -213 -35q-129 0 -227 31q-91 28 -143.5 87.5t-73.5 146.5q-23 90 -23 252v339q0 183 41 289q40 104 143.5 168t266.5 64q130 0 233 -41q97 -40 152 -107q49 -60 72 -133q18 -70 18 -211z
M582 961q0 99 -11 129q-12 26 -47 26q-37 0 -49 -26q-12 -28 -12 -129v-599q0 -95 12 -122q12 -29 47 -29q38 0 49 27q11 25 11 110v613zM760 1642l-230 -188h-141l123 188h248z" />
    <glyph glyph-name="othhuyen" horiz-adv-x="1047" 
d="M985 860v-323q0 -179 -18 -263q-17 -84 -76 -155q-59 -75 -152 -109q-97 -35 -213 -35q-129 0 -227 31q-91 28 -143.5 87.5t-73.5 146.5q-23 90 -23 252v339q0 183 41 289q40 104 143.5 168t266.5 64q130 0 233 -41q97 -40 152 -107q49 -60 72 -133q18 -70 18 -211z
M582 961q0 99 -11 129q-12 26 -47 26q-37 0 -49 -26q-12 -28 -12 -129v-599q0 -95 12 -122q12 -29 47 -29q38 0 49 27q11 25 11 110v613zM315 1642h248l123 -188h-141z" />
    <glyph glyph-name="othnga" horiz-adv-x="1047" 
d="M985 860v-323q0 -179 -18 -263q-17 -84 -76 -155q-59 -75 -152 -109q-97 -35 -213 -35q-129 0 -227 31q-91 28 -143.5 87.5t-73.5 146.5q-23 90 -23 252v339q0 183 41 289q40 104 143.5 168t266.5 64q130 0 233 -41q97 -40 152 -107q49 -60 72 -133q18 -70 18 -211z
M582 961q0 99 -11 129q-12 26 -47 26q-37 0 -49 -26q-12 -28 -12 -129v-599q0 -95 12 -122q12 -29 47 -29q38 0 49 27q11 25 11 110v613zM813 1589h-4q-32 -71 -78 -98q-43 -27 -78 -27q-52 0 -104 21l-51 20q-48 19 -72 19q-51 0 -82 -70l-108 72q73 135 170 135
q54 0 106 -21l43 -14q55 -18 72 -18q55 0 73 61z" />
    <glyph glyph-name="ohoasac" horiz-adv-x="1118" 
d="M1044 672q0 -123 -2 -202t-8 -144q-12 -100 -71 -187q-60 -81 -164 -129q-102 -45 -240 -45q-130 0 -233 43t-166 127q-64 87 -76 187t-12 350v276q0 245 12 346q9 99 72 185q58 82 163 129q102 45 240 45q124 0 234 -41q106 -44 165 -129q65 -85 74 -185
q12 -100 12 -350v-276zM625 1202q0 116 -13 146q-12 30 -51 30q-34 0 -49 -24q-20 -27 -20 -152v-756q0 -142 14 -174q9 -32 51 -32q43 0 55 39q13 35 13 180v743zM815 1944l-229 -189h-142l123 189h248z" />
    <glyph glyph-name="ohoahuyen" horiz-adv-x="1118" 
d="M1044 672q0 -123 -2 -202t-8 -144q-12 -100 -71 -187q-60 -81 -164 -129q-102 -45 -240 -45q-130 0 -233 43t-166 127q-64 87 -76 187t-12 350v276q0 245 12 346q9 99 72 185q58 82 163 129q102 45 240 45q124 0 234 -41q106 -44 165 -129q65 -85 74 -185
q12 -100 12 -350v-276zM625 1202q0 116 -13 146q-12 30 -51 30q-34 0 -49 -24q-20 -27 -20 -152v-756q0 -142 14 -174q9 -32 51 -32q43 0 55 39q13 35 13 180v743zM319 1944h248l123 -189h-141z" />
    <glyph glyph-name="ohoanga" horiz-adv-x="1118" 
d="M1044 672q0 -123 -2 -202t-8 -144q-12 -100 -71 -187q-60 -81 -164 -129q-102 -45 -240 -45q-130 0 -233 43t-166 127q-64 87 -76 187t-12 350v276q0 245 12 346q9 99 72 185q58 82 163 129q102 45 240 45q124 0 234 -41q106 -44 165 -129q65 -85 74 -185
q12 -100 12 -350v-276zM625 1202q0 116 -13 146q-12 30 -51 30q-34 0 -49 -24q-20 -27 -20 -152v-756q0 -142 14 -174q9 -32 51 -32q43 0 55 39q13 35 13 180v743zM848 1890h-4q-32 -71 -78 -98q-43 -27 -78 -27q-48 0 -104 21l-52 20q-47 19 -71 19q-52 0 -82 -70l-109 72
q73 135 170 135q54 0 107 -20l43 -15q55 -18 72 -18q55 0 73 61z" />
    <glyph glyph-name="ithsac" horiz-adv-x="561" 
d="M487 1327v-1327h-415v1327h415zM510 1626l-229 -188h-142l123 188h248z" />
    <glyph glyph-name="ithhuyen" horiz-adv-x="561" 
d="M487 1327v-1327h-415v1327h415zM96 1626h248l123 -188h-141z" />
    <glyph glyph-name="ihoasac" horiz-adv-x="590" 
d="M504 1620v-1620h-420v1620h420zM500 1911l-230 -189h-141l123 189h248z" />
    <glyph glyph-name="ihoahuyen" horiz-adv-x="590" 
d="M504 1620v-1620h-420v1620h420zM66 1921h247l123 -188h-141z" />
    <glyph glyph-name="uthsac" horiz-adv-x="1069" 
d="M997 1327v-1327h-411l8 111q-40 -66 -105 -101q-64 -35 -141 -35q-92 0 -151 33q-64 38 -88 84q-29 53 -35 113q-8 49 -8 227v895h403v-903q0 -154 10 -184q9 -29 51 -29q47 0 56 31q8 24 8 192v893h403zM829 1618l-229 -188h-141l123 188h247z" />
    <glyph glyph-name="uthhuyen" horiz-adv-x="1069" 
d="M997 1327v-1327h-411l8 111q-40 -66 -105 -101q-64 -35 -141 -35q-92 0 -151 33q-64 38 -88 84q-29 53 -35 113q-8 49 -8 227v895h403v-903q0 -154 10 -184q9 -29 51 -29q47 0 56 31q8 24 8 192v893h403zM303 1618h248l123 -188h-142z" />
    <glyph glyph-name="uhoasac" horiz-adv-x="1120" 
d="M1040 1620v-1083q0 -184 -12 -258q-9 -72 -70 -152q-56 -79 -155 -121q-101 -41 -228 -41q-143 0 -256 49q-110 47 -165 125q-57 79 -66 162q-10 95 -10 361v958h420v-1214q0 -109 14 -136q9 -30 45 -30q42 0 51 32q13 37 13 154v1194h419zM858 1911l-229 -189h-142
l123 189h248z" />
    <glyph glyph-name="uhoahuyen" horiz-adv-x="1120" 
d="M1040 1620v-1083q0 -184 -12 -258q-9 -72 -70 -152q-56 -79 -155 -121q-101 -41 -228 -41q-143 0 -256 49q-110 47 -165 125q-57 79 -66 162q-10 95 -10 361v958h420v-1214q0 -109 14 -136q9 -30 45 -30q42 0 51 32q13 37 13 154v1194h419zM301 1911h248l123 -189h-142z
" />
    <glyph glyph-name="ythsac" horiz-adv-x="918" 
d="M918 1327l-115 -960q-25 -200 -45 -312q-23 -85 -64.5 -137.5t-118.5 -77.5q-33 -12 -96 -19t-147 -7h-246v213q89 0 121 10q26 9 26 41q0 16 -24 139l-221 1110h366l133 -895l64 895h367zM745 1618l-229 -188h-141l123 188h247z" />
    <glyph glyph-name="yhoasac" horiz-adv-x="969" 
d="M981 1620l-307 -1034v-586h-389v586l-297 1034h387q94 -483 102 -639q34 261 117 639h387zM776 1911l-229 -189h-141l122 189h248z" />
    <glyph glyph-name="aasachoa" 
d="M-240 2200l-229 -189h-141l123 189h247z" />
    <glyph glyph-name="aahuyenhoa" 
d="M-786 2189h247l123 -188h-141z" />
    <glyph glyph-name="aahoihoa" 
d="M-465 2161h-113q0 47 12 69.5t36 44.5q32 17 108 17q47 -9 82 -41q25 -35 25 -72q0 -55 -21 -76q-23 -29 -66 -55.5t-51 -40.5v-16h-114q0 43 22.5 74.5t75.5 56.5q33 11 33 61v17q0 24 -2 28q-3 6 -13 6q-9 0 -12 -8q-2 -6 -2 -43v-22z" />
    <glyph glyph-name="aangahoa" 
d="M-238 2126h-4q-30 -70 -77 -98q-41 -27 -78 -27q-52 0 -105 20l-51 21q-49 18 -72 18q-51 0 -82 -69l-108 71q74 136 170 136q52 0 106 -21l43 -14q54 -19 72 -19q56 0 74 62z" />
    <glyph glyph-name="cth" 
d="M-422 1628l131 2q-3 -93 -59 -149q-62 -56 -162 -56q-106 0 -162 56q-58 55 -61 147h135q9 -94 90 -94q79 0 88 94z" />
    <glyph glyph-name="csacth" 
d="M-422 1628l131 2q-3 -93 -59 -149q-62 -56 -162 -56q-106 0 -162 56q-58 55 -61 147h135q9 -94 90 -94q79 0 88 94zM-197 1911l-229 -189h-141l123 189h247z" />
    <glyph glyph-name="chuyenth" 
d="M-422 1628l131 2q-3 -93 -59 -149q-62 -56 -162 -56q-106 0 -162 56q-58 55 -61 147h135q9 -94 90 -94q79 0 88 94zM-784 1901h247l123 -189h-141z" />
    <glyph glyph-name="choith" 
d="M-422 1628l131 2q-3 -93 -59 -149q-62 -56 -162 -56q-106 0 -162 56q-58 55 -61 147h135q9 -94 90 -94q79 0 88 94zM-463 1872h-112q0 45 11.5 69t35.5 46q32 16 108 16q47 -9 82 -41q25 -33 25 -72q0 -55 -21 -75q-16 -21 -41.5 -38.5t-47.5 -33t-28 -25.5v-16h-114
q0 43 22.5 74.5t75.5 56.5q33 11 33 61v17q0 24 -2 28q-3 7 -13 7q-9 0 -12 -9q-2 -6 -2 -43v-22z" />
    <glyph glyph-name="cngath" 
d="M-422 1628l131 2q-3 -93 -59 -149q-62 -56 -162 -56q-106 0 -162 56q-58 55 -61 147h135q9 -94 90 -94q79 0 88 94zM-236 1868h-4q-29 -69 -77 -99q-42 -26 -78 -26q-52 0 -105 20l-51 21q-49 18 -72 18q-51 0 -82 -69l-108 71q73 135 170 135q55 0 106 -20l43 -14
q54 -19 72 -19q56 0 74 62z" />
    <glyph glyph-name="cnangth" 
d="M-422 1628l131 2q-3 -93 -59 -149q-62 -56 -162 -56q-106 0 -162 56q-58 55 -61 147h135q9 -94 90 -94q79 0 88 94zM-381 -139v-148h-291v148h291z" />
    <glyph glyph-name="choa" 
d="M-432 1915l131 2q-3 -92 -59 -150q-63 -55 -162 -55q-105 0 -162.5 55t-60.5 148h135q9 -94 90 -94q79 0 88 94z" />
    <glyph glyph-name="csachoa" 
d="M-432 1915l131 2q-3 -92 -59 -150q-63 -55 -162 -55q-105 0 -162.5 55t-60.5 148h135q9 -94 90 -94q79 0 88 94zM-207 2198l-229 -189h-142l123 189h248z" />
    <glyph glyph-name="chuyenhoa" 
d="M-432 1915l131 2q-3 -92 -59 -150q-63 -55 -162 -55q-105 0 -162.5 55t-60.5 148h135q9 -94 90 -94q79 0 88 94zM-795 2187h248l123 -188h-141z" />
    <glyph glyph-name="choihoa" 
d="M-432 1915l131 2q-3 -92 -59 -150q-63 -55 -162 -55q-105 0 -162.5 55t-60.5 148h135q9 -94 90 -94q79 0 88 94zM-473 2159h-113q0 47 11.5 69.5t35.5 44.5q33 17 109 17q46 -10 82 -41q24 -34 24 -72q0 -55 -20 -76q-23 -29 -66 -55.5t-51 -40.5v-16h-114
q0 43 22.5 74.5t75.5 56.5q33 11 33 61v17q0 24 -2 28q-4 6 -13 6t-12 -8q-2 -6 -2 -43v-22z" />
    <glyph glyph-name="cngahoa" 
d="M-432 1915l131 2q-3 -92 -59 -150q-63 -55 -162 -55q-105 0 -162.5 55t-60.5 148h135q9 -94 90 -94q79 0 88 94zM-246 2154h-4q-29 -68 -78 -98q-40 -26 -78 -26q-51 0 -104 20l-51 21q-49 18 -72 18q-51 0 -82 -70l-108 72q73 135 170 135q53 0 106 -20l43 -15
q55 -18 72 -18q55 0 74 61z" />
    <glyph glyph-name="cnanghoa" 
d="M-432 1915l131 2q-3 -92 -59 -150q-63 -55 -162 -55q-105 0 -162.5 55t-60.5 148h135q9 -94 90 -94q79 0 88 94zM-381 -129v-147h-291v147h291z" />
    <glyph glyph-name="bth" 
d="M-545 1530l-84 -90h-194l180 194h197l165 -194h-188z" />
    <glyph glyph-name="bsacth" 
d="M-545 1530l-84 -90h-194l180 194h197l165 -194h-188zM39 1792l-229 -188h-142l123 188h248z" />
    <glyph glyph-name="bhuyenth" 
d="M-545 1530l-84 -90h-194l180 194h197l165 -194h-188zM-549 1833h248l123 -188h-141z" />
    <glyph glyph-name="bhoith" 
d="M-545 1530l-84 -90h-194l180 194h197l165 -194h-188zM-227 1774h-113q0 47 11.5 69.5t35.5 44.5q33 17 109 17q46 -10 82 -41q24 -34 24 -72q0 -55 -20 -76q-24 -30 -67 -57t-50 -39v-16h-115q0 43 22 74.5t77 56.5q32 11 32 61v16q0 25 -2 29q-3 6 -12 6t-12 -8
q-2 -6 -2 -43v-22z" />
    <glyph glyph-name="bngath" 
d="M-545 1530l-84 -90h-194l180 194h197l165 -194h-188zM-256 1851h-4q-31 -69 -78 -98q-43 -27 -78 -27q-48 0 -104 21l-51 20q-48 19 -72 19q-52 0 -82 -70l-109 72q75 135 170 135q54 0 107 -20l43 -15q55 -18 72 -18q55 0 73 61z" />
    <glyph glyph-name="bnangth" 
d="M-545 1530l-84 -90h-194l180 194h197l165 -194h-188zM-412 -125v-147h-290v147h290z" />
    <glyph glyph-name="bhoa" 
d="M-545 1827l-84 -90h-194l180 194h197l165 -194h-188z" />
    <glyph glyph-name="bsachoa" 
d="M-545 1827l-84 -90h-194l180 194h197l165 -194h-188zM39 2089l-229 -188h-142l123 188h248z" />
    <glyph glyph-name="bhuyenhoa" 
d="M-545 1827l-84 -90h-194l180 194h197l165 -194h-188zM-549 2130h248l123 -188h-141z" />
    <glyph glyph-name="bhoihoa" 
d="M-545 1827l-84 -90h-194l180 194h197l165 -194h-188zM-227 2071h-113q0 47 11.5 69.5t35.5 44.5q33 17 109 17q46 -10 82 -41q24 -34 24 -72q0 -55 -20 -76q-24 -30 -67 -57t-50 -39v-16h-115q0 43 22 74.5t77 56.5q32 11 32 61v16q0 25 -2 29q-3 6 -12 6t-12 -8
q-2 -6 -2 -43v-22z" />
    <glyph glyph-name="bngahoa" 
d="M-545 1827l-84 -90h-194l180 194h197l165 -194h-188zM-256 2148h-4q-32 -71 -78 -98q-43 -27 -78 -27q-48 0 -104 21l-51 20q-48 19 -72 19q-52 0 -82 -70l-109 72q75 135 170 135q54 0 107 -20l43 -15q55 -18 72 -18q55 0 73 61z" />
    <glyph glyph-name="bnanghoa" 
d="M-545 1827l-84 -90h-194l180 194h197l165 -194h-188zM-412 -145v-148h-290v148h290z" />
    <glyph glyph-name="nonbreakingspace" horiz-adv-x="1040" 
 />
  </font>
</defs>
</svg>
