<svg width="16" height="15" viewBox="0 0 16 15" fill="none" xmlns="http://www.w3.org/2000/svg">
<path d="M11.1616 9.623L10.7571 10.0227C10.7571 10.0227 9.79447 10.9721 7.16782 8.37976C4.54117 5.78738 5.50384 4.83796 5.50384 4.83796L5.75806 4.58561C6.3865 3.96619 6.44605 2.97089 5.89761 2.24382L4.77762 0.758811C4.09851 -0.141196 2.78741 -0.260314 2.00964 0.507339L0.61409 1.88382C0.229204 2.265 -0.0285723 2.75736 0.00253865 3.30442C0.0825381 4.70473 0.720756 7.71622 4.27984 11.2298C8.05493 14.9551 11.5971 15.1033 13.0451 14.9692C13.5038 14.9269 13.902 14.6957 14.2229 14.378L15.4851 13.1321C16.3384 12.2913 16.0984 10.8486 15.0069 10.2601L13.3091 9.34329C12.5927 8.9577 11.7216 9.07064 11.1616 9.623Z" fill="black"/>
</svg>
